<svg xmlns="http://www.w3.org/2000/svg" viewBox="0 0 40.93 45.86"><defs><style>.cls-1{fill:#fff;}</style></defs><g id="Capa_2" data-name="Capa 2"><g id="Layer_1" data-name="Layer 1"><path class="cls-1" d="M29.42,22.24v-9.6H10.77v9.6h0a17.15,17.15,0,0,0,2.76,9.06,11.92,11.92,0,0,0,6.54,5h0a11.82,11.82,0,0,0,6.55-5,17.05,17.05,0,0,0,2.75-9.06h.05Zm-.38,0v0C28.88,28.83,25.22,34.47,20.1,36c-5.11-1.48-8.78-7.12-8.94-13.71a0,0,0,0,0,0-.05V13H29v9.19Z"/><path class="cls-1" d="M20.08,33.68h0c4-1.48,6.82-6.22,6.94-11.5V15.1m0,0H13.22a.06.06,0,0,0-.06,0v7.11c.12,5.28,3,10,6.94,11.5ZM20.08,33.28c-3.76-1.47-6.46-6-6.58-11.11V15.59a.91.91,0,0,0,.11.22c.11.16.34.61.34.61v.23s.11.14.16.22.18.31.29.35.13-.11,0-.25a1.54,1.54,0,0,1-.23-.46,1.66,1.66,0,0,0-.11-.38,3.52,3.52,0,0,1-.15-.42s.43.11.49.35a10,10,0,0,0,.3,1.07,2.46,2.46,0,0,0,.34.56,1.77,1.77,0,0,0,.82.58c.37.11.79-.13,1,0a3.47,3.47,0,0,0,.76.56c.24.08.88.21,1,.47s.44.29.61.32.68.24.68.72l-.42.87a1.66,1.66,0,0,0-.37.66,1,1,0,0,0,.11,1,3.25,3.25,0,0,1,.55,1.47c0,.43.42.48.69.67s0,.36-.16.77-.09,1.22-.23,1.72a3.75,3.75,0,0,0-.34,1.14,3.06,3.06,0,0,1-.14,1.24A3.53,3.53,0,0,0,19.53,31a1.89,1.89,0,0,0,.34,1.22c.26.34.87.5.79,0A2.1,2.1,0,0,1,21,30.66l.31-.35a.82.82,0,0,1,.27-.7c.31-.22.53-.38.34-.46s0-.26.19-.26.26.07.69-.42a2.74,2.74,0,0,1,1-.85c.43-.24.58-.71.85-1a2.2,2.2,0,0,1,1-.55.65.65,0,0,0,.45-.7c0-.34-.1-.57.13-.94s.1-.45.31-.63C26,28.2,23.45,32,20.1,33.3Zm6.59-11.22v.74c-.19-.2-.51-.32-.7-.54a2.07,2.07,0,0,0-.61-.44.49.49,0,0,0-.45-.11c-.29.06-.53,0-.58-.29s0-.59-.31-.74a4.64,4.64,0,0,1-.69-.5c-.21-.16-.42-.45-.5-.48a3.42,3.42,0,0,0-.64,0,.94.94,0,0,0-.79-.19s-.29-.45-.61-.21-.58.4-.76.16-.51-.13-.72-.11-.4-.34-.45-.5,0-.4-.08-.4a1.12,1.12,0,0,1-.61,0c-.22-.11-.1-.31,0-.44a1.58,1.58,0,0,0,.14-.77h-.24s-.29,0-.35.17a.61.61,0,0,1-.71.34.85.85,0,0,1-.6-.56.86.86,0,0,1,0-.63c.06-.16-.17-.44-.25-.52s-.09.05-.24-.22a1.22,1.22,0,0,0-.31-.33H26.69v6.63Z"/><path class="cls-1" d="M15,5a.79.79,0,0,0-.89.09.61.61,0,0,1-.17.15,1.19,1.19,0,0,0-.82.26.61.61,0,0,0,0,.61c.31.85.34,1,.35,1h0s.56.55.33,1-.22.71.09.88.35.28.35.83h0c0,.39,0,.73.19.91a.55.55,0,0,0,.4.14.36.36,0,0,0,.3-.15,2,2,0,0,0,.1-1.39c-.07-.3-.23-1,0-1.17s.37-.22.5-.08h0A.33.33,0,0,0,16,7.73.79.79,0,0,0,16,7.51H16a.36.36,0,0,0,.39-.11.35.35,0,0,0,0-.39,5.31,5.31,0,0,0-.69-1l-.09-.08c-.17-.15-.17-.15-.15-.3S15.32,5.15,15,5Zm.73,2.78v.06A.75.75,0,0,0,15,8c-.38.28-.27.92-.14,1.5a1.91,1.91,0,0,1,0,1.11h-.23a2.53,2.53,0,0,1-.09-.68h0c0-.62-.14-.92-.53-1.12a.24.24,0,0,1-.09-.06A1.74,1.74,0,0,1,14,8.4,1.29,1.29,0,0,0,13.69,7a7.25,7.25,0,0,0-.34-1,.37.37,0,0,1,0-.29c.09-.12.4-.15.55-.14H14a.6.6,0,0,0,.36-.26.47.47,0,0,1,.51,0c.28.13.34.26.34.31,0,.29,0,.37.26.57l.08.08a4.66,4.66,0,0,1,.71,1h-.06a.46.46,0,0,0-.44.08.32.32,0,0,0,0,.35Z"/><path class="cls-1" d="M14.3,6.18a.29.29,0,0,0-.28.28h0a.29.29,0,1,0,.29-.29Z"/><path class="cls-1" d="M11.35,6.31s-1.26.34-1.26,1.13a.83.83,0,0,0,.79.85h0a.06.06,0,0,0,0-.06.5.5,0,0,1-.14-.35c0-.1.13-.17.26-.24s.3-.19.28-.37a2.5,2.5,0,0,1,.09-.86v0c0-.05,0,0,0,0Zm-.87,1.42a.73.73,0,0,1-.07-.29c0-.29.3-.5.59-.64a1.69,1.69,0,0,0,0,.45l-.12.08a.8.8,0,0,0-.39.4Z"/><path class="cls-1" d="M12,7.71q-.43.23-.84.48a.06.06,0,0,0,0,.06h0a14.09,14.09,0,0,0,1.82.3.75.75,0,0,0,.54-.42,1,1,0,0,0-.2-.93c-.4-.8-.65-1.39-.65-1.4m-.06,0A1.41,1.41,0,0,0,11.5,7.35H12a.24.24,0,0,1,.19.12s0,.08-.2.18Zm-.09,1.69c0-.27-.34-.37-.44-.39h-.27a1,1,0,0,1,.67-.88c.1.23.3.66.56,1.17h0c.12.19.25.44.17.63a.44.44,0,0,1-.3.23,8.62,8.62,0,0,1-1-.15L12.13,8c.1-.06.4-.22.37-.51Z"/><path class="cls-1" d="M14.22,11.05a.13.13,0,0,0-.09-.11l-.31-.16h0a.37.37,0,0,0-.34.12l-1.4,1s-.15.13-.12.22,0,.08.12.09l.85.12a.77.77,0,0,0,.44-.14c.11-.12.75-.86.77-.9a.29.29,0,0,0,.08-.26ZM13.16,12h-.58l1.11-.8h0l.11.06c-.24.27-.63.73-.71.83Z"/><path class="cls-1" d="M13.67,12.39l.55.06a.47.47,0,0,0,.37-.25l.37-.7a.2.2,0,0,0,0-.21s0-.08-.14-.11l-.27-.07s-.23-.08-.33.1a10.82,10.82,0,0,1-.68.85.24.24,0,0,0-.06.23.18.18,0,0,0,.15.1Zm.57-.26H14c.17-.2.44-.53.54-.67h.12l-.32.59S14.3,12.12,14.24,12.13Z"/><path class="cls-1" d="M15.08,12.47h.44a.3.3,0,0,0,.28-.32h0v-.76h0a.28.28,0,0,0-.28-.12h-.27a.23.23,0,0,0-.21.18,3.53,3.53,0,0,1-.29.68.28.28,0,0,0,0,.25.37.37,0,0,0,.34.13Zm.39-.33h-.4l.25-.59h.15v.58Z"/><path class="cls-1" d="M17.12,12.41h.39a.11.11,0,0,0,.11-.06v-.22c0-.1-.56-1.19-.58-1.23h0s-.1-.13-.21-.09h0l-.26.16c-.06,0-.15.11-.09.28s.33,1,.33,1h0c0,.07.09.19.33.18Zm-.32-1.26c.12.23.33.67.45.92h-.16a5.14,5.14,0,0,0-.29-.93Z"/><path class="cls-1" d="M16,12.47h.55a.17.17,0,0,0,.14-.07.17.17,0,0,0,0-.19l-.33-1h0a.17.17,0,0,0-.21-.12h0l-.27.08h0s-.07,0-.07.19v.91s0,.21.18.2Zm.13-.33v-.7h0l.23.69Z"/><path class="cls-1" d="M17.94,12.33l.42-.06a.23.23,0,0,0,.2-.11.32.32,0,0,0,0-.33c-.19-.36-.87-1.42-.91-1.49s0-.08-.11-.09a.17.17,0,0,0-.16.06l-.25.24a.26.26,0,0,0-.06.31l.62,1.31h0a.28.28,0,0,0,.28.16Zm-.59-1.57.09-.09c.18.29.64,1,.79,1.29H18c-.08-.16-.5-1-.6-1.25Z"/><path class="cls-1" d="M9.5,23.83c-.7-.33-1.36-.07-1.36.56,0,1.44,3,1.23,2.47-1.27a36.6,36.6,0,0,1-1.39-5.94c-.21-2.68,1.23-3.55,1.23-3.55v-.69c-2.28,1.11-1.83,6-1.15,8.27s.17,2.62.17,2.62Z"/><path class="cls-1" d="M32.1,24.39c0-.63-.67-.89-1.36-.56,0,0-.51-.35.17-2.62s1.12-7.16-1.15-8.27v.69s1.44.87,1.23,3.55-1.09,4.51-1.36,5.94C29.14,25.62,32.1,25.83,32.1,24.39Z"/><path class="cls-1" d="M8.61,25.86,7.22,27c-1.62-1.24-2.32.23-2.32.23A2.15,2.15,0,0,1,6,27.29C4.72,27.63,5,28.42,5,28.42s1.28-.77,1.82.11a1.66,1.66,0,0,1-.17,2c2.12,0,1.41-2.83,1.41-2.83L10,25.86Z"/><path class="cls-1" d="M35,27.22s-.71-1.47-2.33-.23l-1.39-1.13H30l1.86,1.84s-.7,2.83,1.42,2.83a1.66,1.66,0,0,1-.17-2c.54-.88,1.81-.11,1.81-.11s.31-.79-.94-1.13A2.37,2.37,0,0,1,35,27.23Z"/><path class="cls-1" d="M10.43,15.25V14.12a.78.78,0,0,1-.42.5c-.2.12-.1.26-.1.26a.47.47,0,0,1,.5.37Z"/><path class="cls-1" d="M10.22,18.16c.08.76.28.49.28.49s-.06-1.27-.08-1.52-.77-.12-.78.15c0,.45.07.9.14,1.34H10v-.94s.18-.24.26.52Z"/><path class="cls-1" d="M10.35,20.8c.19.25.21-1,.15-1.25,0,0-.56-.18-.5.12A3,3,0,0,0,10.35,20.8Z"/><path class="cls-1" d="M9.63,15.92c0,.25.76.15.76.15v-.4S9.63,15.54,9.63,15.92Z"/><path class="cls-1" d="M10.39,16.69v-.4s-.76-.12-.76.25S10.39,16.69,10.39,16.69Z"/><path class="cls-1" d="M12.47,30.57a.23.23,0,1,0-.23.23.23.23,0,0,0,.23-.23Z"/><path class="cls-1" d="M30.38,28a.24.24,0,0,0-.28.19.23.23,0,0,0,.18.28.17.17,0,0,0,.1,0,.24.24,0,0,0,.19-.28A.23.23,0,0,0,30.38,28Z"/><path class="cls-1" d="M29.83,28.36a.24.24,0,1,0-.48,0,.25.25,0,0,0,.23.25h0a.23.23,0,0,0,.23-.23Z"/><path class="cls-1" d="M29.11,28.47a.23.23,0,0,0-.23-.23.23.23,0,0,0-.23.23h0a.23.23,0,0,0,.23.23A.23.23,0,0,0,29.11,28.47Z"/><path class="cls-1" d="M10.06,32.6l.16-1.41s-.13-.28-.54-.07l-.07,1.06s-.25.4-.75,0l.07-1.1a.4.4,0,0,0-.5-.07l-.08,1.44a1.22,1.22,0,0,0,1.7.23s0,0,0,0Z"/><path class="cls-1" d="M9.22,32a.15.15,0,0,0,.15-.14V31.4a.15.15,0,0,0-.14-.15.14.14,0,0,0-.15.13h0v.46a.16.16,0,0,0,.14.16Z"/><path class="cls-1" d="M12,32.89l.12-1.34s-.12-.27-.51-.08l-.07,1s-.23.39-.72,0l.07-1a.37.37,0,0,0-.47-.08l-.08,1.39A1.17,1.17,0,0,0,12,33l0,0Z"/><path class="cls-1" d="M11.22,32.35a.15.15,0,0,0,.15-.14v-.44a.13.13,0,0,0-.12-.14h0a.14.14,0,0,0-.15.13h0v.44a.17.17,0,0,0,.14.15Z"/><path class="cls-1" d="M13.8,33v-.7s-.06-.36-.4-.11v.32s-.19.24-.16-.19v-.44a.13.13,0,0,0-.22,0v.56s-.09.09-.26,0l.06-.8s-.11-.32-.44-.07l-.06,1.23s.49.86,1.47.17Z"/><path class="cls-1" d="M9.22,30.05a.24.24,0,1,0-.24.24H9A.24.24,0,0,0,9.22,30.05Z"/><path class="cls-1" d="M10.4,30.22a.24.24,0,0,0-.18-.22.24.24,0,0,0-.28.19.23.23,0,0,0,.18.28.17.17,0,0,0,.1,0,.24.24,0,0,0,.23-.24Z"/><path class="cls-1" d="M11.32,30.38a.24.24,0,1,0-.24.24A.24.24,0,0,0,11.32,30.38Z"/><path class="cls-1" d="M10.22,26.33v.82l.53.46s.27-1-.55-1.28Z"/><path class="cls-1" d="M11,28.48c-.07.08-.17.23-.23,0s-.3-.25-.43-.25-.29.52-.4.16-.18-.54-.61-.47v.86l2.17.48a1.9,1.9,0,0,0-.09-.67c-.1-.09-.35-.14-.41-.06Z"/><path class="cls-1" d="M11.53,29.59a14.79,14.79,0,0,0-2.19-.5v.34L11.6,30s.08-.07,0-.36Z"/><path class="cls-1" d="M31.74,32.41,31.65,31a.36.36,0,0,0-.49.07l.06,1.1c-.5.44-.75,0-.75,0l-.07-1.06c-.41-.21-.53.07-.53.07L30,32.59a1.22,1.22,0,0,0,1.73-.17l0,0Z"/><path class="cls-1" d="M30.67,31.89a.15.15,0,0,0,.15.14.15.15,0,0,0,.14-.16h0v-.46a.13.13,0,0,0-.15-.13h0a.15.15,0,0,0-.14.15v.46Z"/><path class="cls-1" d="M29.69,32.72l-.09-1.39a.37.37,0,0,0-.47.08l.07,1c-.49.43-.72,0-.72,0l-.07-1c-.39-.19-.51.08-.51.08L28,32.83a1.17,1.17,0,0,0,1.65-.14l0,0Z"/><path class="cls-1" d="M28.78,31.63a.14.14,0,0,0-.14.14v.44a.14.14,0,0,0,.14.14.15.15,0,0,0,.14-.15v-.44a.15.15,0,0,0-.15-.13Z"/><path class="cls-1" d="M26.67,32.54l-.06-.32c-.34-.25-.4.11-.4.11V33c1,.69,1.46-.17,1.46-.17l-.06-1.23c-.33-.25-.43.07-.43.07v.8c-.17.11-.26,0-.26,0V32c-.11-.19-.22,0-.22,0v.44c0,.43-.15.19-.15.19Z"/><path class="cls-1" d="M3,5.28a.33.33,0,0,0,.22-.41v0L2.45,3.06l-.18.07L3,4.86c.06.15,0,.21-.07.25s-.15,0-.22-.14L2,3.25l-.19.07L2.5,5.11a.32.32,0,0,0,.41.19Z"/><polygon class="cls-1" points="3.76 4.97 3.2 3.08 3.2 3.08 4.01 4.9 4.29 4.81 3.66 2.69 3.48 2.74 4.03 4.56 4.02 4.56 3.24 2.81 2.95 2.89 3.59 5.02 3.76 4.97 3.76 4.97"/><polygon class="cls-1" points="4.84 4.67 4.29 2.52 4.09 2.57 4.64 4.72 4.84 4.67 4.84 4.67"/><polygon class="cls-1" points="5.61 4.49 5.38 2.27 5.18 2.31 5.42 4.32 5.42 4.33 4.78 2.4 4.59 2.45 5.32 4.56 5.61 4.49 5.61 4.49"/><polygon class="cls-1" points="6.63 4.28 6.6 4.11 6.27 4.18 6.09 3.3 6.41 3.24 6.37 3.07 6.06 3.13 5.9 2.34 6.23 2.27 6.2 2.1 5.67 2.21 6.1 4.39 6.63 4.28 6.63 4.28"/><path class="cls-1" d="M7.15,4.19,7,3.13H7.1c.1,0,.16,0,.18.1l.16.92h.2l-.16-.93c0-.16-.12-.18-.26-.17h0c.15,0,.2-.11.17-.27l-.1-.56C7.29,2,7.14,2,6.94,2l-.37.06L7,4.27h.2Zm-.35-2h.11c.1,0,.18,0,.2.12l.09.49c0,.13,0,.17-.13.19H6.94L6.8,2.2Z"/><path class="cls-1" d="M7.73,2.42a.57.57,0,0,0,.13.27l.38.47a.3.3,0,0,1,.08.2l0,.3c0,.11,0,.17-.09.19s-.14-.05-.15-.15V3.41h-.2V3.7A.28.28,0,0,0,8.21,4,.14.14,0,0,0,8.3,4a.3.3,0,0,0,.29-.31.09.09,0,0,0,0-.05l-.06-.35A.54.54,0,0,0,8.41,3L8,2.51a.48.48,0,0,1-.07-.2V2.08c0-.09,0-.15.09-.16s.12,0,.14.13v.26h.2l0-.27c0-.21-.14-.3-.36-.26a.29.29,0,0,0-.28.3s0,0,0,.07v.26Z"/><polygon class="cls-1" points="9.15 3.87 8.84 1.68 8.64 1.7 8.94 3.91 9.15 3.87 9.15 3.87"/><path class="cls-1" d="M9.88,3.77c.28,0,.33-.18.3-.39L10,1.89c0-.22-.12-.35-.39-.31H9.27l.27,2.2h.34Zm-.29-2c.13,0,.18,0,.2.15L10,3.44c0,.12,0,.17-.16.19h-.1L9.48,1.77Z"/><path class="cls-1" d="M10.69,3.06h.36l.15.59h.2l-.56-2.17h-.28l-.08,2.25h.2V3.06Zm0-1.46h0L11,2.86h-.31V1.6Z"/><path class="cls-1" d="M12,3.54c.28,0,.33-.18.31-.39l-.12-1.49c0-.22-.1-.35-.37-.33h-.34l.2,2.2H12Zm-.23-2c.13,0,.18,0,.19.15l.14,1.53c0,.13,0,.17-.15.18h-.11l-.18-1.87Z"/><polygon class="cls-1" points="13.43 3.42 13.29 1.46 13.29 1.46 13.69 3.41 13.98 3.38 13.82 1.17 13.64 1.19 13.78 3.08 13.77 3.08 13.38 1.2 13.09 1.22 13.26 3.44 13.43 3.42 13.43 3.42"/><path class="cls-1" d="M14.5,2.73h.35l.12.61h.25l-.46-2.2h-.27l-.27,2.22h.2V2.74Zm.08-1.46h0l.23,1.27H14.5l.07-1.29Z"/><path class="cls-1" d="M15.74,3.3A.28.28,0,0,0,16,3s0,0,0,0V2.65h-.2V3c0,.1,0,.14-.11.15s-.12,0-.13-.14l-.07-1.62c0-.1,0-.15.1-.16s.12,0,.12.14v.29H16v-.3A.28.28,0,0,0,15.7,1h-.08a.28.28,0,0,0-.29.27v.06L15.41,3a.28.28,0,0,0,.26.3S15.72,3.3,15.74,3.3Z"/><polygon class="cls-1" points="16.55 3.24 16.46 1.03 16.26 1.03 16.35 3.25 16.55 3.24 16.55 3.24"/><path class="cls-1" d="M17.3,3.23c.27,0,.35-.16.34-.38V1.35c0-.22-.1-.38-.37-.37s-.35.17-.35.39v1.5c0,.22.1.38.37.36Zm-.08-2.08c.13,0,.16.09.16.2v1.5c0,.12,0,.21-.14.21s-.17-.08-.17-.2V1.37C17.07,1.25,17.07,1.15,17.22,1.15Z"/><polygon class="cls-1" points="18.21 3.19 18.17 1.22 18.18 1.22 18.47 3.19 18.76 3.19 18.72 0.97 18.54 0.97 18.58 2.87 18.57 2.87 18.29 0.97 17.99 0.98 18.03 3.2 18.21 3.19 18.21 3.19"/><path class="cls-1" d="M19.31,2.56h.36l.08.61H20L19.61,1h-.27L19,3.23h.19l.08-.62Zm.16-1.45h0l.16,1.28h-.31l.14-1.28Z"/><polygon class="cls-1" points="20.77 3.01 20.44 3.01 20.45 0.95 20.25 0.95 20.23 3.17 20.77 3.18 20.77 3.01 20.77 3.01"/><path class="cls-1" d="M21.72,2.58h.36l.06.62h.21L22.07,1h-.28l-.37,2.21h.2l.1-.61Zm.2-1.45h0l.13,1.28h-.31l.17-1.27Z"/><path class="cls-1" d="M23,3.23c.17,0,.36,0,.36-.29L23.38,1h-.16V2.87c0,.15-.07.2-.17.2s-.15-.06-.14-.22l0-1.85h-.2L22.6,2.92c0,.25.17.32.35.32Z"/><polygon class="cls-1" points="23.83 3.25 24.03 3.25 24.12 1.21 24.35 1.23 24.35 1.05 23.69 1.03 23.69 1.19 23.91 1.21 23.83 3.25 23.83 3.25"/><path class="cls-1" d="M24.91,3.32c.28,0,.37-.13.38-.36l.08-1.5a.32.32,0,0,0-.24-.38H25a.33.33,0,0,0-.38.36l-.08,1.5C24.58,3.14,24.64,3.31,24.91,3.32Zm-.13-.38.08-1.5c0-.12,0-.2.17-.19s.15.08.14.21L25.09,3c0,.13,0,.21-.17.2s-.15-.09-.14-.21Z"/><polygon class="cls-1" points="25.95 1.39 25.96 1.39 26.08 3.37 26.36 3.4 26.51 1.19 26.34 1.17 26.21 3.07 26.2 3.07 26.08 1.15 25.79 1.13 25.64 3.34 25.82 3.36 25.95 1.39 25.95 1.39"/><path class="cls-1" d="M27.08,3.47a.33.33,0,0,0,.39-.24v-.1l.13-1.51c0-.22-.06-.37-.33-.4s-.37.13-.38.35l-.13,1.5C26.76,3.28,26.76,3.45,27.08,3.47ZM27,3.08l.12-1.49c0-.12,0-.21.17-.2s.15.1.14.23L27.27,3.1c0,.12,0,.21-.17.2S27,3.2,27,3.08Z"/><polygon class="cls-1" points="28.18 1.5 28.19 1.5 28.22 3.56 28.48 3.57 28.91 1.56 28.91 1.56 28.72 3.6 28.89 3.61 29.11 1.41 28.79 1.38 28.38 3.33 28.37 3.33 28.33 1.33 28.03 1.3 27.81 3.51 27.98 3.53 28.18 1.5 28.18 1.5"/><path class="cls-1" d="M29.51,3.07h.35v.62h.2L30,1.45h-.27l-.58,2.17h.2L29.5,3Zm.33-1.42h0V2.94h-.32l.3-1.25Z"/><polygon class="cls-1" points="32.9 2.09 32.91 2.09 32.79 4.15 33.04 4.19 33.62 2.22 33.62 2.22 33.27 4.23 33.45 4.27 33.83 2.08 33.53 2.03 32.95 3.94 32.95 3.94 33.07 1.95 32.76 1.89 32.38 4.08 32.55 4.11 32.9 2.09 32.9 2.09"/><polygon class="cls-1" points="34.33 4.45 34.37 4.28 34.04 4.21 34.22 3.33 34.53 3.4 34.56 3.22 34.25 3.16 34.41 2.37 34.74 2.44 34.77 2.27 34.25 2.17 33.8 4.34 34.33 4.45 34.33 4.45"/><polygon class="cls-1" points="34.51 4.48 34.71 4.53 35.11 3.66 35.12 3.66 35.1 4.62 35.3 4.67 35.28 3.52 35.78 2.5 35.58 2.45 35.21 3.29 35.21 3.29 35.24 2.37 35.04 2.33 35.05 3.47 34.51 4.48 34.51 4.48"/><polygon class="cls-1" points="35.74 4.78 36.3 2.63 36.11 2.58 35.54 4.73 35.74 4.78 35.74 4.78"/><path class="cls-1" d="M36.4,5a.28.28,0,0,0,.37-.14.14.14,0,0,0,0-.06l.09-.31h-.19l-.09.29c0,.1-.07.12-.16.11s-.09-.08-.06-.17l.48-1.56a.1.1,0,0,1,.15-.1c.08,0,.09.08.06.17L37,3.5l.2.06.08-.28a.28.28,0,0,0-.14-.37l-.07,0a.29.29,0,0,0-.37.14s0,0,0,.06L36.22,4.6a.28.28,0,0,0,.17.37l0,0Z"/><path class="cls-1" d="M37.27,5.3a.32.32,0,0,0,.44-.12.32.32,0,0,0,0-.09l.57-1.4a.31.31,0,0,0-.1-.44l-.09,0a.31.31,0,0,0-.43.12.36.36,0,0,0,0,.09l-.57,1.4a.32.32,0,0,0,.1.44Zm0-.41.56-1.39a.16.16,0,0,1,.23-.14c.12,0,.1.14.06.26L37.56,5a.15.15,0,0,1-.22.14C37.22,5.1,37.23,5,37.27,4.89Z"/><path class="cls-1" d="M.8,4.72c.37.54.47.69.47,1.13V6a1.33,1.33,0,0,0,.26,1,1.44,1.44,0,0,0,1.09.32A8.79,8.79,0,0,0,4.16,7.1,12.59,12.59,0,0,1,7.4,6.79a3.18,3.18,0,0,1-2.74.73C3,7.34,1.22,7.27.66,8.14c-.33.47-.28,1.17.16,2.09a0,0,0,0,0,.07,0,1.57,1.57,0,0,0,1-1.86,7,7,0,0,1,1.5.38l.33.11c-1,.29-1.86.72-1.86,1.18,0,.28.31.38,1.06.73s1.52.63,2.19,1c1.93,1,3.31,1.77,3.52,1.57S4.22,11.2,5.34,9.62c.6-.88,1.61.29.78.48S7.31,12.33,9.68,13a4,4,0,0,1,.75-.6s.35-.27-.17-.41S6.49,10.88,7.83,9.64c.4-.37.43-.63.26-.8a3.25,3.25,0,0,0,1.13-.68,1.31,1.31,0,0,0,.42-.89c0-.84-1.06-2-1.45-2.42A78.88,78.88,0,0,1,20.08,4a77.94,77.94,0,0,1,12.21.89c-.39.4-1.47,1.58-1.47,2.43a1.3,1.3,0,0,0,.41.89,2.87,2.87,0,0,0,.74.51c-.35.2-.54.42-.54.6a1,1,0,0,0,.67,1c.08.85-1.92,1.74-2.47,2a3.73,3.73,0,0,1,.69.35,4.54,4.54,0,0,0,2.81-2.05c.42-.56-.67-.27-.67-.82s1.63-1,1.3.55-2.27,2.24-3.12,2.56a3.26,3.26,0,0,1,.33.31c0,.08.16.25.24.23s0-.33.19-.3.27.1.35-.06.06-.32.2-.22.16.18.29.12-.12-.42.18-.33.35-.07.28-.23.13-.07.32.06.21-.13.11-.28,0-.26.2-.1.5.12.27-.12,0-.46.29-.27.22.08.08-.16,0-.32.29-.11.53.12.19-.15-.21-.46.14-.25.79.3.4,0-.51-.6,0-.35.84.19.14-.25.37,0,.62.18.29-.13-.19-.39-.2-.36.45,0,.64,0,.11-.18-.75-.58-.09-.25,1.31.38.65,0a2.92,2.92,0,0,1-.61-.37c.2-.06.45,0,.9.31.86.61,0,1.27-.71,1.55A10.93,10.93,0,0,0,33.55,13a4.53,4.53,0,0,1-2.24.69,1.34,1.34,0,0,1,.16.39,6.55,6.55,0,0,0,2.9-.82,15.29,15.29,0,0,1,3.74-1.78c.91-.22,1.77-.7.38-1.69A8.28,8.28,0,0,0,37.08,9h.08a6.58,6.58,0,0,1,1.5-.37,1.61,1.61,0,0,0,1,1.86m.06,0c.45-.92.5-1.62.17-2.09-.61-.88-2.39-.8-4-.63a3.09,3.09,0,0,1-2.81-.79,4.21,4.21,0,0,1,.71,0,11.91,11.91,0,0,1,1.68.24c1.36.24,2.76.47,3.4,0a.87.87,0,0,0,.35-.66A3.77,3.77,0,0,1,39.85,5c.28-.47.52-.88.4-1.24s-.32-.45-.73-.63a34.72,34.72,0,0,0-7.84-2A76.84,76.84,0,0,0,20,0C12.22,0,5.07,1,1.22,2.56c0,0-.76.26-.94.8a.88.88,0,0,0,.15.81c.14.22.27.4.37.55ZM1.33,2.87h0C5.13,1.31,12.26.35,19.93.35c9.41,0,16.3,1.53,19.33,2.85.32.13.5.28.55.42a2.06,2.06,0,0,1-.37,1,4,4,0,0,0-.67,1.69.62.62,0,0,1-.23.43h0a.65.65,0,0,0-.18-.31c-1.29-1.29-9.11-2.72-18.28-2.72a77.58,77.58,0,0,0-13,1,25.68,25.68,0,0,0-3.95,1c-.8.3-1.28.59-1.43.89A1.79,1.79,0,0,1,1.63,6V5.85a1.87,1.87,0,0,0-.52-1.31L.7,4a.61.61,0,0,1-.12-.52c.11-.32.6-.55.75-.6Zm34.09,3.8c-.58-.11-1.19-.2-1.72-.25a3.12,3.12,0,0,0-2.54.79A6.05,6.05,0,0,1,32.72,5c3,.52,4.89,1.15,5.41,1.67a.25.25,0,0,1,.1.15.11.11,0,0,1,0,.08,9,9,0,0,1-2.79-.2Zm-2.83.22.13.06a3.38,3.38,0,0,0,3.1.91c.85-.09,2.71-.29,3.51.26A5,5,0,0,0,37,8.49l-.43.14a5.85,5.85,0,0,0-4.24-.1A2.66,2.66,0,0,1,31.47,8a1,1,0,0,1-.26-.36,2.4,2.4,0,0,1,1.36-.81.09.09,0,0,0,0,.07Zm6.35,1.52a2.16,2.16,0,0,1,.71.12,1.79,1.79,0,0,1-.17,1.34A1.25,1.25,0,0,1,38.94,8.41ZM9.22,7c-1.51-.9-3.59-.51-5.14-.22A9,9,0,0,1,2.62,7,1.61,1.61,0,0,1,2,6.9a.11.11,0,0,1,0-.08.31.31,0,0,1,.1-.15c.54-.53,2.57-1.2,5.7-1.72A6.71,6.71,0,0,1,9.22,7ZM7.69,8.66a7.09,7.09,0,0,0-2.43-.1,5.78,5.78,0,0,0-1,.16c-.28-.07-.56-.16-.84-.26a5,5,0,0,0-2.33-.37c.8-.55,2.66-.35,3.51-.26a3.36,3.36,0,0,0,3.09-.91l.14-.07h0a3.42,3.42,0,0,1,1.44.58A2,2,0,0,1,7.69,8.67ZM.94,9.84A1.82,1.82,0,0,1,.77,8.49a3.39,3.39,0,0,1,.71-.11A1.25,1.25,0,0,1,.94,9.84Z"/><path class="cls-1" d="M21.22,11.25h0a1.22,1.22,0,0,0,1.3,1.07,3.71,3.71,0,0,0,2.23-1.06c.14.24.72,1.09,1.22,1,.21,0,.38-.21.5-.54a1.53,1.53,0,0,0,1.13.51,1.6,1.6,0,0,0,1.19-.9,0,0,0,0,0,0-.07h-.06a2.1,2.1,0,0,1-1.63-.15,1.49,1.49,0,0,1-.51-1.28,6.8,6.8,0,0,1,.16-1.74,2.21,2.21,0,0,0,1,.28c1.12,0,1.33-.65,1.35-.68h0a1.85,1.85,0,0,1-.81,0c.52-.17.9-.18,1.09,0a.64.64,0,0,1,.15.51v.06m.06,0c.4-.44.55-.8.45-1.11-.17-.53-1-.75-1.84-.91a2.38,2.38,0,0,1-1.58-1.51h0a2.75,2.75,0,0,0-.65.53L25.2,4.4h0a1.14,1.14,0,0,0-.14,1,1.28,1.28,0,0,1-.37-.73h0a1.36,1.36,0,0,0,0,1.84,3.34,3.34,0,0,1-2-.11h0a1,1,0,0,0,.18.77,1.61,1.61,0,0,0,1.23.48,2,2,0,0,1-1.82.11h0a1.63,1.63,0,0,0,2,1.08,2.59,2.59,0,0,1-2.46.64h0a1.31,1.31,0,0,0,.57,1c.47.26,1.19.12,2.1-.42-.13.34-.66,1.27-2.71,1.08ZM24,7.72a.26.26,0,0,0,0-.29.23.23,0,0,0-.24-.15,1.4,1.4,0,0,1-1.1-.37.53.53,0,0,1-.11-.21,2.76,2.76,0,0,0,2,0,.29.29,0,0,0,.13-.18.29.29,0,0,0-.06-.22,1.21,1.21,0,0,1-.29-1,2,2,0,0,0,.43.49.3.3,0,0,0,.34,0,.28.28,0,0,0,.08-.33,1.11,1.11,0,0,1-.1-.57l.54.61-.06.17a1.11,1.11,0,0,0,.1.76c-.91.58-.94,1.12-.89,1.37a1.85,1.85,0,0,1-1.12.77,1.43,1.43,0,0,1-1.28-.4,1.77,1.77,0,0,0,1.65-.41Zm2.33-2.63a3.48,3.48,0,0,0,.4.6l-.45,0L26,5.42A1.29,1.29,0,0,1,26.36,5.09Zm3.23,2.44-.11-.12c-.32-.27-.82-.27-1.55,0a.3.3,0,0,0-.18.25.27.27,0,0,0,.15.25,1.66,1.66,0,0,0,.42.12,2,2,0,0,1-.61.09,2.22,2.22,0,0,1-.91-.26,1.44,1.44,0,0,1,.42-.36l.15-.11A2.62,2.62,0,0,0,28,6.47h.08c.45.1,1.47.31,1.6.7a.5.5,0,0,1,0,.34ZM28,11.75a.91.91,0,0,1-.52.25,1.35,1.35,0,0,1-.91-.47.21.21,0,0,0-.15-.09,2.68,2.68,0,0,1-.21-.68h.09a1.39,1.39,0,0,0,.5.69,2,2,0,0,0,1.2.31Zm-2.14-6,.21.24a.25.25,0,0,0,.2.09h.36a.48.48,0,0,1-.18.26.57.57,0,0,1-.48,0h0a.85.85,0,0,1-.08-.52Zm1.26,1.39-.14.1a1.87,1.87,0,0,0-.47.46l-.14-.1A1.53,1.53,0,0,1,27,7.06a.8.8,0,0,0,.38-.79.94.94,0,0,0,.23.1A1.87,1.87,0,0,1,27.14,7.14Zm-2.12,4c-.08,0-.2-.16-.16-.79a1.54,1.54,0,0,0,.51-.47.81.81,0,0,0,.19.7l.12.09C25.48,10.92,25.18,11.21,25,11.14Zm0-2.08h0a1.51,1.51,0,0,0,.53-.32,1.31,1.31,0,0,0,0,.28c-.45.78-.86,1.07-1.08,1.09a3.68,3.68,0,0,1,.52-1Zm1.2,1.32a.38.38,0,0,1-.37-.07c-.19-.21-.09-.74,0-1.08a2,2,0,0,0,.34-.12V9.9a3.84,3.84,0,0,0,0,.48ZM25.9,6.62a1,1,0,0,0,.69,0A.73.73,0,0,0,27,6H27v.08h0s.12.49-.18.64a1.86,1.86,0,0,0-.74.62L26,7.22a.28.28,0,0,0-.3-.08.27.27,0,0,0-.17.19.91.91,0,0,1-.42.21c0-.21.19-.53.78-.91Zm0,4.33a4.31,4.31,0,0,0,.22.6v.07c-.08.24-.17.39-.26.4a1.59,1.59,0,0,1-.69-.56,1.8,1.8,0,0,0,.76-.51Zm-.06-2.11A2,2,0,0,1,25.78,8m0,0h-.06a6.1,6.1,0,0,1-.59.54A1.08,1.08,0,0,1,25,7.92h0c.52-.12.7-.29.76-.39a3.86,3.86,0,0,0,.58.49,3.25,3.25,0,0,0-.14.69,1.53,1.53,0,0,1-.37.16ZM24.22,9a.26.26,0,0,0,.07-.19,1.15,1.15,0,0,0,.45-.33.42.42,0,0,0,.09.3,5.31,5.31,0,0,1-.77,1.06H24c-.86.52-1.52.68-1.89.48a.75.75,0,0,1-.33-.43A3,3,0,0,0,24.22,9Zm0,1.45a.8.8,0,0,0,.3.06,4.71,4.71,0,0,0,.09.52l-.09.05a3.39,3.39,0,0,1-2,1,.88.88,0,0,1-.87-.46c1.77.06,2.39-.74,2.61-1.19Z"/><path class="cls-1" d="M3.53,31.68c0-.14,0-.33-.06-.37s-.19.07-.22.11h0a.6.6,0,0,1-.6.27.93.93,0,0,0-.74.36.48.48,0,0,0-.06.46c.12.28.32.43.43.39s.1,0,.07-.16v-.22h.08a.38.38,0,0,0,.41,0,.19.19,0,0,0,.06-.23.87.87,0,0,0-.07-.17V32H3c.41,0,.51-.06.57-.39Zm-1.14.49h0Z"/><path class="cls-1" d="M40.49,31.28a.76.76,0,0,1-.23-.13.66.66,0,0,0-.48-.18.32.32,0,0,0-.27.11c-.09.13,0,.38.12.74a.54.54,0,0,1,0,.18,3.86,3.86,0,0,1-.54-.19.29.29,0,0,0-.31,0c-.21.15-.25.61-.24,1.05a2,2,0,0,0-1.22.67.76.76,0,0,0-.1-.53.46.46,0,0,0-.38-.1,1.37,1.37,0,0,0-.58.19.76.76,0,0,0,0-.3.25.25,0,0,0-.21-.17.55.55,0,0,0-.53.14.25.25,0,0,0-.08.27.79.79,0,0,0,.42.44.36.36,0,0,0-.07.1.42.42,0,0,0-.09.4c.08.23.41.4.75.52a1.71,1.71,0,0,1-1.52.64,1.68,1.68,0,0,0-1.71-.39H33.1c-1.11.26-2,.47-2.41,1.55a2,2,0,0,1-.37.63c-.27.33-.48.61-.66,2.64a8.21,8.21,0,0,0-1.5.63,1,1,0,0,1-.35.07,1.27,1.27,0,0,0-1,.5.51.51,0,0,1-.5.13.59.59,0,0,0-.54.13.91.91,0,0,1-.4.1,1.18,1.18,0,0,1,.73-.76,4.16,4.16,0,0,0,1.9-1h0a1.65,1.65,0,0,1,.56-.64c.23-.17.42-.32.28-.64a1.09,1.09,0,0,1,.1-.75c.08-.25.18-.5,0-.67a1.37,1.37,0,0,0,.7-.4.19.19,0,0,0,0-.18,1.62,1.62,0,0,1,0-.44,1,1,0,0,0,0-.72.46.46,0,0,0-.29-.13.59.59,0,0,0-.34-.3.56.56,0,0,0-.5.19.55.55,0,0,0-.5,0,.44.44,0,0,0-.15.4l-.34.55a1.78,1.78,0,0,0-1.23.39L26,36.2c-.71.43-1.27.78-1.45,1.61a3.52,3.52,0,0,1-.21.77.71.71,0,0,0-.14-.1,3.54,3.54,0,0,0-.52-.25,1.79,1.79,0,0,1-.76-.48c-.35-.48-.87-.51-1.53-.1a2,2,0,0,1-2.12.06l-.45-.17a5.88,5.88,0,0,1-2.42-1.36c-.08-.11-.16-.23-.22-.33-.36-.56-.66-1-1.42-1a1.16,1.16,0,0,0-1,.15h-.11c-.19-.18-.35-.24-.72,0A3.24,3.24,0,0,0,12,36a.12.12,0,0,1-.07-.07A2,2,0,0,0,11,34.79a1.72,1.72,0,0,1-.71-.6,3.27,3.27,0,0,0-.44-.47.54.54,0,0,0-.39-.15c-.25,0-.44.28-.64.54l-.06.08a5.08,5.08,0,0,1-.91.82l-.37.28h0a.68.68,0,0,1-.28-.3,4.4,4.4,0,0,0-.76-1.24A1,1,0,0,0,6.22,33c.22,0,.39-.14.54-.44a.36.36,0,0,0,0-.35C6.67,32.06,6.41,32,6,32a1.24,1.24,0,0,0-.81.46,2.1,2.1,0,0,0-.74.13.39.39,0,0,0-.12-.41c-.48-.4-1.24.33-1.6.69a.87.87,0,0,0-.28.73H2.32a3.58,3.58,0,0,0-.45-.09c-.07-.3-.25-.84-.67-.83H1a.24.24,0,0,0,0-.12.54.54,0,0,0-.14-.36A.52.52,0,0,0,.52,32,.5.5,0,0,0,0,32.5H0a.48.48,0,0,0,.15.36l.09.07a.67.67,0,0,0-.23.27.38.38,0,0,0,.12.41l.52.49a2.09,2.09,0,0,0-.13.49h0a.32.32,0,0,0-.27.28.45.45,0,0,0,.24.34A4.45,4.45,0,0,0,.5,36c-.07.1-.13.23,0,.3a.45.45,0,0,0,.17.11l.07.11a3.28,3.28,0,0,1,.31.34s.05,0,.07.07-.06.4.1.44a1,1,0,0,0,.35,0l.3.21a3.54,3.54,0,0,1,.41.26c0,.15,0,.4.16.36h.27c.37.29.65.55.64.63s-.6.65-.8.65a.26.26,0,0,0-.21.11.83.83,0,0,0,0,.69c-.11.08-.4.37-.3.59a.77.77,0,0,0,.18.18c.08.09.16.18.15.24s0,.06-.13.1-.6.24-.68.54a.92.92,0,0,0,.26.74h0l-.13.16s-.46.11-.31.46.74.37.64-.17l.1-.07a.87.87,0,0,0,.76.16.66.66,0,0,0,.42-.61,5.08,5.08,0,0,0,2,.41.43.43,0,0,0,.41.14.34.34,0,0,0,.23-.22,9.37,9.37,0,0,0,1.06,0,.34.34,0,0,0,.32.16c.18,0,.21-.13.19-.24a.85.85,0,0,0,.24-.09A3.19,3.19,0,0,1,9,42.53l.06.11a2.8,2.8,0,0,0,.37.53v.1a.39.39,0,0,0,0,.3.58.58,0,0,0,.35.15h0a.76.76,0,0,1,.75.34h0c.09.14.15.23.25.26s.23,0,.48-.18a.78.78,0,0,1,.83,0c0,.07.22.35.42.32s.22-.13.29-.35a.87.87,0,0,1,.41-.11,1.51,1.51,0,0,0,.83-.21s.83-.54,1.31-.81a1,1,0,0,1,.13.42c.07.44-1.73,1.26-1,2.35.09.14.17.1.17.1a.66.66,0,0,1,.09-.62c.2-.21,1.15.08,1.66-.54a1,1,0,0,0,.83.69h.06l.23-1.61a.87.87,0,0,0,.37.45.76.76,0,0,0,.47.06,1.05,1.05,0,0,0,1.27.56c.3,0,.45-.06.48-.17s.06-.19-.47-.5a.07.07,0,0,1-.07-.07l.11-.07c.11-.07.65.1,1,.78a1.3,1.3,0,0,0,1.5.66h0v0a.57.57,0,0,1-.32-.49,2.28,2.28,0,0,0,1.63.59,1.22,1.22,0,0,0,.83-.46m0-.06h0a1,1,0,0,1-1.2-.4,2.17,2.17,0,0,0,1.24-1,3.25,3.25,0,0,1,1.75,0l.28.09c1,.33,3.07,1,4.46-.06.93-.72,1.15-1.18,1.17-1.45A.38.38,0,0,0,32,42h.3a5.4,5.4,0,0,1,1.07.26l.25.09c-.08.11-.23.37,0,.47s.92-.27.92.1.31.32.85.08c0,0,.26-.07.29.09a.33.33,0,0,0,.37.28c.1,0,.24-.18.39-.32L37,43c.17.14.34.18.45.08a.39.39,0,0,0,.11-.27,1.16,1.16,0,0,0,.55-.52,1.25,1.25,0,0,0,.08-.83.71.71,0,0,0,.21-.4c0-.25-.25-.21-.43-.48a1.37,1.37,0,0,0-.29-.39,1,1,0,0,1-.09-.33c0-.39-.44-.54-.51-.09a5.11,5.11,0,0,0-3.21-.2l-.76.21c-.78.24-1.52.46-1.87.09,0-.13.25-.7,1.35-1.09.79-.29,2.66-1.06,3-2.22.37,0,3.06.13,3.71-.79s1.09-1.54.51-2.26a2.47,2.47,0,0,0,.61-.64.44.44,0,0,0,.09-.41.55.55,0,0,0-.29-.27c0-.07.16-.17.44-.22s.26-.17.26-.24a.76.76,0,0,0-.42-.44ZM6,32.28a1.61,1.61,0,0,1,.44.06c-.14.28-.19.29-.46.16l-.26-.11A.43.43,0,0,1,6,32.28Zm30,.8-.1-.08h.09a.17.17,0,0,1,0,.1Zm1.82,8.17a.33.33,0,0,0,0,.14.82.82,0,0,1-.66,1.17A5.67,5.67,0,0,1,33.8,42a1.54,1.54,0,0,0-.3-.11,8.42,8.42,0,0,0-1.58-.36h-.1c-.53-.13-.59-.29-.59-.67a.49.49,0,0,1,.37-.49,4.46,4.46,0,0,0,1.62-.24l.75-.21a4.54,4.54,0,0,1,3.14.27,1.24,1.24,0,0,1,.68,1.08ZM31.62,42s0,.43-1,1.23c-1.23,1-3.11.34-4.12,0h0l-.28,0a3.68,3.68,0,0,0-1.92,0,2.43,2.43,0,0,0,0-.85c-.08-.25.18-.49.35-.62a2.38,2.38,0,0,0,.71-.17,1.2,1.2,0,0,0,.56-.11c-.08.15-.21.45-.06.5s.7.17.52-.6a1,1,0,0,0,.69-.22h0a.91.91,0,0,1,.74-.38,1.34,1.34,0,0,0,.49-.1h0a7.64,7.64,0,0,1,1.45-.6h0a1.27,1.27,0,0,0,1.12.14h0a.69.69,0,0,0,.25.2,1.07,1.07,0,0,0-.31.67.74.74,0,0,0,.18.55,1.32,1.32,0,0,0,.54.36.41.41,0,0,0,0,.18Zm-10,2.42a.31.31,0,0,0-.18.28,1.93,1.93,0,0,0,0,.34.85.85,0,0,1-.52-.46,1.58,1.58,0,0,0-1.38-1,.7.7,0,0,0-.19.06,1,1,0,0,0,.11-.34,1.35,1.35,0,0,0,1-.19h.18a8.36,8.36,0,0,1,1.71,1.11,3.31,3.31,0,0,1,.26.27,2.68,2.68,0,0,0,.44.45,2.48,2.48,0,0,1-1.14-.58.3.3,0,0,0-.34,0Zm-4.95.08a.29.29,0,0,0,0-.13,4,4,0,0,0,.15-1.09.28.28,0,0,0-.13-.24.24.24,0,0,0-.25.06s.19,1.29-.6,1.56a6.35,6.35,0,0,1-.76.13,2.78,2.78,0,0,0-.38.12c.08-.64,1.16-.84,1.15-1.51a1.86,1.86,0,0,0-.63-1.13,3.4,3.4,0,0,1-.81-1.43.06.06,0,0,0,0-.06V40.6a1,1,0,0,1,0-.25c.17-.73.69-1.52,1.61-1.32a1.36,1.36,0,0,1,.46.28.75.75,0,0,1,.16.35c0,.37-.47.47-.48.47s0-.72-.39-.72a.9.9,0,0,0-.77.66.73.73,0,0,0,.52.87l.38.15a4.45,4.45,0,0,0,.57.22h0a.17.17,0,0,0,0,.17.79.79,0,0,0,.58.25c.64.09,1.3.26,1.3.9a.83.83,0,0,1-.39.79,1.92,1.92,0,0,0-1.23-1.24c-1.1-.39-1.49-.76-1.66-1.52h0s-.19-.09-.3,0a.25.25,0,0,0-.06.26,2,2,0,0,0,1,1.24,3.3,3.3,0,0,0,.43.19,2.4,2.4,0,0,1,1.28.9.35.35,0,0,0-.16.23L17,45a.52.52,0,0,1-.24-.41ZM12.55,44h0a.27.27,0,0,0-.1-.11,1.1,1.1,0,0,0-1.25,0L11,44v-.06h0a1.23,1.23,0,0,0-1-.51H10A.41.41,0,0,0,9.84,43a3.76,3.76,0,0,1-.32-.46c-.3-.5.18-1.28.34-1.54a2.87,2.87,0,0,1,1.88-.78,9.26,9.26,0,0,1,2.43.63,3.4,3.4,0,0,0,.94,1.83,1.54,1.54,0,0,1,.17.19c-.47.26-1.18.72-1.27.78a1.19,1.19,0,0,1-.66.17,1.1,1.1,0,0,0-.53.11.47.47,0,0,0-.15.19h0ZM5.78,42.47a4.22,4.22,0,0,1-2.4-.33.32.32,0,0,0-.3,0,.38.38,0,0,0-.14.26c0,.11,0,.3-.18.36s-.44,0-.7-.38c-.14-.17-.21-.32-.19-.4s.11-.18.44-.3a.52.52,0,0,0,.37-.36.68.68,0,0,0-.24-.58l-.07-.06a.91.91,0,0,1,.18-.21.31.31,0,0,0,.1-.36.78.78,0,0,1,0-.34c.45-.08,1-.79,1-.8a.37.37,0,0,0,.06-.29C3.56,38.2,2,37.24,2,37.23a2.66,2.66,0,0,1-.72-.66L1,36.2a3.18,3.18,0,0,1-.11-1.59,1,1,0,0,1,.35-.72,1.24,1.24,0,0,1,1,0,.57.57,0,0,0,.26,0h.23a.5.5,0,0,1,.1.19,1.36,1.36,0,0,0,.11.28c.09.15.3.43.54.76l.47.64c.16.25.48.87.89,1.74a3.24,3.24,0,0,1-.11,1.12.61.61,0,0,0,0,.19c-.07.2-.13.47,0,.53s.3,0,.46-.34a.33.33,0,0,0,.14-.12h0s.1-.09.86.06h0a2.6,2.6,0,0,1,1,.42l.34.35a14.81,14.81,0,0,0,1.1,1,2.18,2.18,0,0,0,.64.29,2.22,2.22,0,0,0-.28,1.07,3.38,3.38,0,0,0-1.37.23,4.19,4.19,0,0,1-1.69.13Zm-4.33-9a1.08,1.08,0,0,0-.45.17l-.19.16-.45-.42h0A1.24,1.24,0,0,1,1.19,33c.09,0,.21.2.29.47ZM3,33.08c.76-.74,1-.73,1.11-.66s0,.16-.26.57a1.5,1.5,0,0,0-.27.68l-.47.19a.82.82,0,0,0-.12-.2.36.36,0,0,0-.16-.14A.46.46,0,0,1,3,33.08Zm6,1.39.07-.08c.11-.15.29-.4.38-.4a.23.23,0,0,1,.12.06,4,4,0,0,1,.39.43,1.76,1.76,0,0,0,.9.71s.34.13.68.93a.55.55,0,0,0,.34.31.56.56,0,0,0,.15.27,1.8,1.8,0,0,0,1.08.4,1,1,0,0,1,.63.22,4,4,0,0,0,1.28.93,2.55,2.55,0,0,1,.61.42,1.87,1.87,0,0,0-1.53,1.64h0a8.4,8.4,0,0,0-1-.34.74.74,0,0,0-.09-.36c-.11-.29-.51-.62-.43-.33a.86.86,0,0,1,0,.32.49.49,0,0,0,0,.24,5.64,5.64,0,0,0-.82-.15.41.41,0,0,0-.09-.23c-.16-.21-.21-.18-.23-.07a.51.51,0,0,0,0,.3,3.55,3.55,0,0,0-1,.28.86.86,0,0,0,0-.39c-.05-.18-.08-.38-.15-.24a.59.59,0,0,0-.15.44.29.29,0,0,0,.14.28,2.23,2.23,0,0,0-.77.59h0a1.61,1.61,0,0,1-.65-.3,7.76,7.76,0,0,1-.8-.72c0-.18.09-.51,0-.58s-.24,0-.33.26L7.4,39l-.18-.08c0-.14,0-.37-.07-.4s-.17.13-.2.26a2.9,2.9,0,0,0-.7-.24H6.14c0-.15.12-.38,0-.36s-.23.16-.35.3a1.17,1.17,0,0,0-.69.07,3.74,3.74,0,0,0,.1-1h0c.49-.39,2.13-1.66,2.46-1.94L8,35.34a5.26,5.26,0,0,0,1-.88Zm3.29,1.75h0a3.56,3.56,0,0,1,.74-.76.45.45,0,0,1,.19-.11h0a.48.48,0,0,0,.4.17.33.33,0,0,0,.26-.13.82.82,0,0,1,.74-.13.24.24,0,0,0,.12,0c.59,0,.78.31,1.14.85l.22.34a4.71,4.71,0,0,0,2,1.25h0s-.14.1,0,.28.49.64.54.51a1.34,1.34,0,0,0-.14-.65l.24.09.44.18a2.37,2.37,0,0,0,2.45-.1c.62-.39.87-.21,1,0a2,2,0,0,0,.9.6,3.54,3.54,0,0,1,.48.23c.17.1.2.17.2.18h0s-.17.59-.39,1.38c-.12.43-.38.47-.49.47a2.57,2.57,0,0,0-2.84.55,1.31,1.31,0,0,1-.58.34.39.39,0,0,1-.29-.09l-.06-.09a1.37,1.37,0,0,0-.15-.21l-.1-.2a3.5,3.5,0,0,0-.37-.62A8.29,8.29,0,0,0,16.76,39a1.14,1.14,0,0,0-.51-.32,4.55,4.55,0,0,0-1.09-.81A3.54,3.54,0,0,1,14,37a1,1,0,0,0-.48-.26c0-.22-.1-.53-.22-.53s-.22.31-.27.45a1.35,1.35,0,0,1-.76-.31v-.13ZM27.5,36h.07c0,.09-.1.3.12.28s.53-.19.26-.54c.11-.16.3-.47.3-.47a.31.31,0,0,0,0-.19V35h.17a.29.29,0,0,0,.34-.07.57.57,0,0,1,.18-.12.84.84,0,0,1,.1.12.31.31,0,0,0,.29.2h0a1.85,1.85,0,0,1-.07.41,2.35,2.35,0,0,0,0,.53,1.52,1.52,0,0,1-.54.23.32.32,0,0,0-.24.25.36.36,0,0,0,.13.31,1.58,1.58,0,0,1-.09.31,1.44,1.44,0,0,0-.08,1c0,.06,0,.06-.17.21a2.17,2.17,0,0,0-.65.73,3.67,3.67,0,0,1-1.7.86,1.7,1.7,0,0,0-1,1.09.34.34,0,0,0,0,.2c-.3.1-1,.27-1.17-.17a1,1,0,0,0,.44-.63c.21-.74.38-1.32.4-1.37a.34.34,0,0,0,0-.2,2.58,2.58,0,0,0,.34-1c.15-.68.6-1,1.28-1.39l.29-.18c.65-.41.94-.34.94-.34ZM17,39.63v-.06a6.41,6.41,0,0,1,1.7,1.21h0a1.33,1.33,0,0,0-.79,0,2.09,2.09,0,0,1-1.84-.08l-.4-.15c-.24-.1-.34-.25-.29-.44s.28-.4.37-.39.23.11.13.54c0,.17.57.17.82,0a.76.76,0,0,0,.3-.68ZM4.22,35.5l-.47-.65a8.29,8.29,0,0,1-.48-.68,3,3,0,0,1,1.64-.4h0c.23.13.4.23.42.37s-.11.53-1.11,1.43Zm13.85,5.68a.89.89,0,0,1,1.12.4,2.16,2.16,0,0,0,.24.35,1.23,1.23,0,0,0,.82.62.73.73,0,0,1,.29.07v.1h0a1.49,1.49,0,0,1-1.32.07h0s-.14.1-.06.39a.19.19,0,0,1,0,.18c-.05.07-.2.09-.36.11h-.21a1.43,1.43,0,0,0,.28-.89c0-.88-.57-1.22-1.47-1.33a5.32,5.32,0,0,0,.79-.18Zm-13-4c-.2-.42-.44-.92-.63-1.28a6.75,6.75,0,0,0,1-1,.72.72,0,0,0,.75-.41c0-.09.08-.18.11-.27a3.42,3.42,0,0,1,.54.92.94.94,0,0,0,.34.42l-2.06,1.6Zm.74-2.82a.35.35,0,0,1-.2.18.88.88,0,0,0,.08-.42c0-.33-.35-.51-.6-.65h0a1.73,1.73,0,0,0-1.1,0c.06-.12.12-.24.19-.36s0-.07,0-.11l.15-.06c.88-.34,1.08-.15,1.47.23.22.2.19.58-.08,1.2Zm13.41,9.56V44a.42.42,0,0,0,.24.47h0a.72.72,0,0,1-.79-.43.88.88,0,0,0,.55-.13Zm3.67.22h-.17a5.84,5.84,0,0,0-1-.71.47.47,0,0,0,0-.33c-.06-.12-.34,0-.45,0a3.23,3.23,0,0,0-.41-.22h0a.45.45,0,0,0,0-.39.77.77,0,0,0-.57-.25.44.44,0,0,1-.15-.05,2.09,2.09,0,0,0,.66-.39,2.22,2.22,0,0,1,2.52-.49h.17a.74.74,0,0,0,.66.46.81.81,0,0,0-.19.76,6.76,6.76,0,0,1,0,.9c-.66.85-1.07.77-1.07.77Zm8-4.43A1.44,1.44,0,0,1,30,39.6c.17-1.91.36-2.15.58-2.42a2.47,2.47,0,0,0,.42-.72c.37-.91,1.08-1.08,2.15-1.33h.12a1.44,1.44,0,0,1,1.33.23,1.09,1.09,0,0,0-.16.86,1,1,0,0,0,.67.54,5.24,5.24,0,0,1-2.65,1.69c-1.17.41-1.49,1-1.57,1.29Zm4.33-3.31c-.26-.08-.42-.19-.47-.32a.82.82,0,0,1,.12-.55c1,.22,1.83-.72,2.38-1.34.09-.11.19-.22.29-.32.57-.54,1-.91,1.72-.37s.47,1-.29,2c-.4.57-2.25.71-3.43.64a.3.3,0,0,0-.32.22Zm.84-2.59a1.13,1.13,0,0,1,.9-.52,1.4,1.4,0,0,1,0,.5A.49.49,0,0,0,37,34l-.24.27c-.54-.18-.67-.3-.69-.35v-.07Zm3.44-.59a1.48,1.48,0,0,0-.55-.3,2.42,2.42,0,0,1,0-.76c.19.08.38.14.56.2a2.78,2.78,0,0,1,.57.21v.08a2.28,2.28,0,0,1-.57.59h0ZM40,31.67a2.19,2.19,0,0,1-.12-.33.31.31,0,0,1,.18.09.86.86,0,0,0,.36.2h0a1,1,0,0,0-.37.2.58.58,0,0,0-.06-.17ZM.36,32.41H.55a.14.14,0,0,1,0,.09.14.14,0,0,1-.14.14H.31a.17.17,0,0,1,0-.1.14.14,0,0,1,0-.09Z"/><path class="cls-1" d="M7.73,35.91c-.19,0-.55.55-.29.6A2.33,2.33,0,0,0,8,36.09C8.1,35.94,7.93,35.86,7.73,35.91Z"/><path class="cls-1" d="M8.14,36.66c.21.07.33-.1.45-.29s0-.48-.18-.25C8.41,36.12,7.93,36.59,8.14,36.66Z"/><path class="cls-1" d="M9,37a.86.86,0,0,0,.22-.65c0-.2-.16-.1-.16-.1s-.4.44-.37.59S8.85,37.2,9,37Z"/><path class="cls-1" d="M10,37.17c.21-.06.12-.31.06-.54s-.12-.4-.22-.3a.73.73,0,0,0-.13.4C9.71,37,9.78,37.21,10,37.17Z"/><path class="cls-1" d="M15.44,8.69a.32.32,0,0,0-.22.31c0,.28.1.46.47.41s.11-.7,0-.77a.47.47,0,0,0-.32,0Zm.12.5a.54.54,0,0,1,0-.18V8.94h.06a.9.9,0,0,1,.07.27h-.1Z"/><path class="cls-1" d="M15.42,9.61a.41.41,0,0,0-.1.3c0,.21,0,.4.3.39s.34-.22.3-.47a.34.34,0,0,0-.4-.26Zm.25.42h-.08a.11.11,0,0,0,0-.08V9.82h0a.43.43,0,0,1,0,.16Z"/><path class="cls-1" d="M15.43,10.45s-.34.39-.1.51.43.17.54-.17S15.72,10.23,15.43,10.45Zm.18.26v.07h0l.07-.11h0a.09.09,0,0,1,0,.07Z"/><path class="cls-1" d="M16,8.31a.2.2,0,0,0-.16.23s0,0,0,0c.06.24.16.58.46.49s.23-.32.13-.63S16.15,8.25,16,8.31Zm.23.5h0a.82.82,0,0,1-.1-.26h0a.84.84,0,0,1,.08.27Z"/><path class="cls-1" d="M16,9.42s-.11.52.17.52.46-.06.44-.42S16.07,9,16,9.42Zm.34.24h-.14a.61.61,0,0,1,0-.19h0a.11.11,0,0,1,0-.08h0a.16.16,0,0,1,.05.14.29.29,0,0,1,0,.13Z"/><path class="cls-1" d="M16.29,10.06s-.25.07-.25.27-.12.56.17.51.56-.12.49-.54S16.48,10,16.29,10.06Zm.15.44a.34.34,0,0,1-.15.06V10.5a.43.43,0,0,0,0-.16h.14v.07a.19.19,0,0,1,0,.15Z"/><path class="cls-1" d="M16.61,7.69a.45.45,0,0,0-.14.51c.1.36.32.38.46.3s.24-.16.14-.52S16.76,7.49,16.61,7.69Zm.24.55h-.06a.29.29,0,0,0-.06-.14c-.06-.09,0-.2,0-.22a.33.33,0,0,1,0,.14.61.61,0,0,1,0,.19Z"/><path class="cls-1" d="M16.69,9c.07.26,0,.58.31.44s.32-.28.26-.6S16.62,8.75,16.69,9Zm.33.11h0V8.93h0v.18Z"/><path class="cls-1" d="M16.79,9.87c0,.32,0,.59.3.53s.38-.23.33-.61S16.79,9.55,16.79,9.87Zm.29.26V9.86h.06c0,.22,0,.26-.08.3Z"/><path class="cls-1" d="M24.71,11.46c-.08,0-.16,0-.29.18l-.1.1a3.5,3.5,0,0,1-.7.63m-.05.05h1.76m0-.06a8.87,8.87,0,0,1-.55-.81.11.11,0,0,0-.11-.11Zm-.85-.26.1-.1h0l.1.14Z"/><path class="cls-1" d="M1.32,28.18c1,3.38,1.77,4,1.51,2.08s-.6-3.43-.39-3.74a1.82,1.82,0,0,0,0-1.3,4.87,4.87,0,0,0-.22-1.82c-.4-1.22,0-.91,0-1.54s-.23-.6-.16-1.35.11-1.85.11-1.85-.65,0-.73.42a49.18,49.18,0,0,0,.26,7.38c.34,1.83-.59.06-.73-2.18s0-4.79,0-4.79.1-.59-.63-.75c0,0,0,6.06,1,9.44Z"/><path class="cls-1" d="M4.28,26.67c0-1.24-.46-1.82-.25-2.57s.33-1-.06-1.67-.23-.57-.13-1.35-.1-1.93,0-2.54c0,0-.37-.29-.42.05a62.36,62.36,0,0,0,.34,6.26c.23,1.69-.21,1-.36-.44-.11-1-.37-5.67-.37-5.67s-.47-.36-.57,0c0,0-.11,5.67,1,7.82s.88,1.38.88.13Z"/><path class="cls-1" d="M5.74,25.32a3.07,3.07,0,0,1-.13-1.41,9,9,0,0,0-.31-1.86,37.61,37.61,0,0,1-.16-3.83S5,18,4.7,18.22c0,0,0,2.83.15,3.87s-.41-.07-.44-1.87,0-2.16-.33-1.82c0,0-.11,5.48,1.43,7.2,0,0,.41.36.23-.31Z"/><path class="cls-1" d="M5.48,17.86s-.18,5,1.2,6.42.33.08.33-1.53c0-1.87-.38-1.46-.41-1.93,0,0-.08-1.9-.16-2.47s-.49-.83-.36.08.39,3.3,0,3.33-.28-1.51-.31-2.42.1-1.43-.34-1.48Z"/><path class="cls-1" d="M7.43,17.68s-.23-.21-.15.67.25,1.74,0,1.72S7.09,19,7,18.5s-.13-1-.31-.64c0,0,0,3.4,1,4.81s.93.33.49-.49a5.66,5.66,0,0,1-.52-2.63,11.76,11.76,0,0,0-.21-1.87Z"/><path class="cls-1" d="M8.34,21c.6.84.42.14.29-.72a19.22,19.22,0,0,1-.11-2.84.25.25,0,0,0-.34,0h0S8.37,19,8.22,19,8,18.43,8,17.89s-.1-.4-.26-.3c0,0,0,2.63.65,3.46Z"/><path class="cls-1" d="M.7,13.46a24,24,0,0,0-.24,2.68C.39,17.74.46,18,1.11,18s1-.5,1.08-1.77.15-2.09.16-2.27-.43-.75-.51.09,0,3.46-.56,3.34S.89,16,1,15.08s.38-2,0-2.07-.34.45-.34.45Z"/><path class="cls-1" d="M2.63,14s-.66,3.87,0,3.89c1,.05.88-1.06,1-2.27s.22-1.55,0-1.55-.33,1.16-.37,1.79,0,1.44-.3,1.4-.28-.92-.17-1.69c.23-1.72.13-1.93-.14-1.57Z"/><path class="cls-1" d="M4.22,14.42s-.08-.18-.21-.16a10.22,10.22,0,0,0-.17,2.15c0,.8.11,1.16.63,1.16s.47-.93.49-1.69.21-1.42,0-1.49-.24.5-.26,1S4.64,17,4.43,17s-.35-.26-.3-1,.1-1.51.1-1.51Z"/><path class="cls-1" d="M19.29,17.64c.18,0,.15-.16.29,0s.18.18.36.15a.66.66,0,0,1,.52.17c.1.12.26.1.23.2s-.19.22.23.29.57.15.69,0,.29-.15,0-.34-.46-.17-.73-.44-.25-.28-.43-.35a1,1,0,0,0-.68-.09,2.7,2.7,0,0,1-.63.07.12.12,0,0,0,0,.2c.12.1,0,.19.23.15Z"/><path class="cls-1" d="M21.12,18.68c-.13,0-.22-.12-.34-.12s-.21,0-.09.17.21.21.34.17S21.26,18.7,21.12,18.68Z"/><path class="cls-1" d="M22.11,18.81a1.17,1.17,0,0,0,.42-.09c.15-.08.27,0,.4.05a.27.27,0,0,0,.34-.13c.09-.16,0-.26-.14-.38a.39.39,0,0,0-.44,0c-.14.07-.1.12-.24.14s-.51.4-.34.45Z"/><path class="cls-1" d="M23.76,18.92a1.5,1.5,0,0,1,.3,0c.07,0,.18,0,.07-.21s-.07-.24-.29-.21-.18.12-.18.12,0,.28.1.28Z"/><path class="cls-1" d="M24.59,21.42s.14.12.18,0,0-.35-.27-.27c0,0-.1.08,0,.15s.09.11.12.14Z"/><path class="cls-1" d="M7.86,15.22c-.32,2.34.6,1.5.6,1.5a9.27,9.27,0,0,1,.15-1.38s-.19-.06-.21.23-.05,1-.27.93,0-1.28-.15-1.33-.12,0-.12,0Z"/><path class="cls-1" d="M6.72,14.94s-.16,1.16-.16,1.51a.54.54,0,0,0,.49.57l.17,0c.47,0,.36-.65.4-1.16s.09-.79.09-.79c-.23-.09-.21,0-.29.63s-.07.92-.38.94-.15-1.21-.11-1.5-.19-.22-.19-.22Z"/><path class="cls-1" d="M5.42,14.65a16.7,16.7,0,0,0-.18,2c0,.88,1,.63,1,0a12.85,12.85,0,0,1,.23-1.8c-.33-.25-.35.42-.41,1s-.09,1-.4.88-.11-1.65-.09-1.92-.19-.15-.19-.15Z"/><path class="cls-1" d="M5,35.47c-.15.28-.07.37.1.4s.22-.49.22-.49C5.28,35.17,5.12,35.18,5,35.47Z"/><path class="cls-1" d="M5.65,35.32s-.23,0-.19.32.24.4.32.33.06-.38.06-.46S5.75,35.22,5.65,35.32Z"/><path class="cls-1" d="M6.12,35.25a.77.77,0,0,0,.09.47c.14.19.38.29.3-.11S6.35,35.11,6.12,35.25Z"/><path class="cls-1" d="M2.43,34.6c-.09,0-.18-.07-.24.07s-.08.23.14.23a.17.17,0,0,0,.16-.18A.14.14,0,0,0,2.43,34.6Z"/><path class="cls-1" d="M1.5,35.16h0s0,.18.11.18.13-.06.14-.14a.13.13,0,0,0-.16-.11.11.11,0,0,0-.09,0Z"/><path class="cls-1" d="M1.81,36.34a.15.15,0,0,0,0,.22l0,0c.16.11.21.08.16-.13s-.1-.19-.19-.12Z"/><path class="cls-1" d="M2.84,36.31s.14.08.16,0a.15.15,0,0,0,0-.13s-.21-.06-.13.11Z"/><path class="cls-1" d="M3,37.19s-.07.2.1.23a.14.14,0,0,0,.14-.12.13.13,0,0,0,0-.1c-.06-.07-.22-.06-.22,0Z"/><path class="cls-1" d="M3.93,37.45h.15V37.3s-.2,0-.12.15Z"/><path class="cls-1" d="M3.75,40.7s.32-.76-.13-.61a.51.51,0,0,0-.16.52s-.24-.09-.08.22.26.59.56.31S3.75,40.7,3.75,40.7Z"/><path class="cls-1" d="M4.88,41.21s-.27.21-.19.31.42.15.45,0-.14-.41-.26-.32Z"/><path class="cls-1" d="M6,41.42s-.29.09-.15.25.43.18.44.14S6.46,41.33,6,41.42Z"/><path class="cls-1" d="M5.14,40.1s-.33.19-.2.32.38-.11.38-.11S5.39,40.06,5.14,40.1Z"/><path class="cls-1" d="M6.22,39.75a.27.27,0,0,0,.34-.11s-.17-.41-.37-.25c0,0-.2.27,0,.36Z"/><path class="cls-1" d="M7.57,41.25a.31.31,0,0,0,.35,0s.16-.24-.45-.37c0,0-.13.25.1.36Z"/><path class="cls-1" d="M10.89,41.12c0-.24-.26-.15-.26-.15a.17.17,0,0,0-.17.15c0,.15.2.13.2.13S10.89,41.35,10.89,41.12Z"/><path class="cls-1" d="M10.91,42.44a.56.56,0,0,0-.26.1s-.09.3.21.3.27-.2.27-.2S11.13,42.58,10.91,42.44Z"/><path class="cls-1" d="M12.45,42a.27.27,0,0,0-.3-.25h0a.34.34,0,0,0-.33.26c0,.26.39.24.39.24S12.46,42.18,12.45,42Z"/><path class="cls-1" d="M12.1,42.93a.24.24,0,0,0,.26.22h0c.25,0,.23-.17.23-.17s-.43-.24-.5,0Z"/><path class="cls-1" d="M13.64,42.07c.29,0,.2-.22.2-.22a.27.27,0,0,0-.27-.11c-.19,0-.22,0-.23.15S13.34,42.08,13.64,42.07Z"/><path class="cls-1" d="M10.83,37.26c.17,0,0-.54,0-.54s-.12-.31-.21-.3-.27,0-.16.41.16.45.33.43Z"/><path class="cls-1" d="M11.46,37c.12.15.21.17.35.09s-.26-.7-.26-.7-.38-.19-.35,0a4.41,4.41,0,0,0,.26.59Z"/><path class="cls-1" d="M6.51,36.91c-.12,0-.55.29-.39.36a.36.36,0,0,0,.37-.1c.15-.17.14-.26,0-.26Z"/><path class="cls-1" d="M7.22,37.23s-.49.48-.3.58.35-.18.43-.37S7.35,37.14,7.22,37.23Z"/><path class="cls-1" d="M7.67,38c0,.15.19.36.33,0s.08-.41,0-.31-.35.18-.29.33Z"/><path class="cls-1" d="M8.9,38.16c.09-.47,0-.42-.11-.31s-.31.26-.23.39S8.81,38.62,8.9,38.16Z"/><path class="cls-1" d="M9.79,38.8c.25,0,.18-.38.11-.65s-.13-.29-.21-.29-.15,0-.14.3S9.55,38.78,9.79,38.8Z"/><path class="cls-1" d="M10.67,38s-.25.54.09.75.21-.17.15-.41S10.75,37.85,10.67,38Z"/><path class="cls-1" d="M11.65,38s-.18,0-.12.26.16.55.45.49S11.83,38.11,11.65,38Z"/><path class="cls-1" d="M13.22,38.65c.15-.29-.6-.84-.72-.77s-.22.11,0,.36S13.07,38.93,13.22,38.65Z"/><path class="cls-1" d="M14.1,38.49c.17-.11-.28-.55-.28-.55s-.33-.36-.41-.27-.19.21.08.48S13.92,38.6,14.1,38.49Z"/><path class="cls-1" d="M9.06,39.29s-.48.68-.19.79.33-.48.32-.72S9.06,39.29,9.06,39.29Z"/><path class="cls-1" d="M13.53,39.13a5,5,0,0,1,.21.48c0,.14.17.38.32.16s.06-.3-.09-.49S13.43,38.93,13.53,39.13Z"/><path class="cls-1" d="M3.57,12a.58.58,0,0,0-.67.42c-.18.53,0,.74,0,.72s.18-.54.31-.49-.16.5,0,.55.25-.51.4-.46-.15.51.07.57.5-1.12-.19-1.31Z"/><path class="cls-1" d="M5,12.47a.53.53,0,0,0-.59.4c-.15.49,0,.68.07.66s.13-.49.26-.45-.13.46,0,.5.21-.47.34-.43-.11.47.08.51.42-1-.21-1.19Z"/><path class="cls-1" d="M2.22,12.73c.26.09.74-1.29-.13-1.58a.75.75,0,0,0-.89.43c-.29.62-.14.89,0,.87s.26-.62.44-.55-.25.58,0,.66.37-.58.54-.51-.22.59,0,.68Z"/><path class="cls-1" d="M6.22,13a.46.46,0,0,0-.52.34c-.15.42,0,.58,0,.56s.13-.42.24-.38-.12.39,0,.43.2-.4.31-.36-.11.41,0,.45.41-.88-.15-1Z"/><path class="cls-1" d="M7.48,14.22c.14,0,.33-.73-.13-.86a.37.37,0,0,0-.43.27c-.11.35,0,.49,0,.48s.11-.35.2-.32-.1.33,0,.36.16-.33.26-.3-.1.33,0,.37Z"/><path class="cls-1" d="M8.58,14.48c.14,0,.23-.77-.24-.83A.37.37,0,0,0,8,14c-.07.36,0,.48.1.46s.06-.36.15-.34,0,.33.07.35.12-.35.22-.33S8.49,14.46,8.58,14.48Z"/><path class="cls-1" d="M1.44,13.74c-.08.45-.44,3.09-.2,3.15s.2-1.16.26-1.77.17-1.54.17-1.54S1.52,13.28,1.44,13.74Z"/><path class="cls-1" d="M3.08,14.29a9.39,9.39,0,0,0-.15,2.48c.17,0,.15-.9.2-1.38s.13-1.22.13-1.22S3.15,13.94,3.08,14.29Z"/><path class="cls-1" d="M4.44,14.66c0,.28-.22,2,0,2s.12-.72.14-1.11l.08-1s-.13-.18-.17.11Z"/><path class="cls-1" d="M5.82,14.83c0,.22-.25,1.49-.07,1.5s.12-.56.15-.84.09-.74.09-.74S5.87,14.62,5.82,14.83Z"/><path class="cls-1" d="M7.27,15.08s-.11-.1-.15.08-.17,1.16,0,1.16.09-.44.11-.67v-.57Z"/><path class="cls-1" d="M8.32,15.23s-.1-.08-.13.06-.14,1,0,1,.08-.37.1-.57a3.63,3.63,0,0,0,0-.49Z"/><path class="cls-1" d="M29.82,14.15V15s.41,0,.41-.14.17.06.17.06a1.06,1.06,0,0,0-.58-.75Z"/><path class="cls-1" d="M30.44,16.49c-.15,0-.3,0-.28-.35s.07-.69-.31-.55v1.28s.57.4.9,0a2.58,2.58,0,0,0-.11-1.32l-.19.09c-.19.09.14.85,0,.85Z"/><path class="cls-1" d="M29.85,17.44a4.18,4.18,0,0,0,0,1c.07,0,.37,0,.35-.6s-.23-.52-.35-.35Z"/><path class="cls-1" d="M30.55,17.3s-.13,0-.13.38-.1.68,0,.68.23-.35.31-.69,0-.45-.2-.37Z"/><path class="cls-1" d="M29.94,19.26c.22,0,.55,0,.61-.38s-.39-.28-.72,0c0,0-.12.32.11.34Z"/><path class="cls-1" d="M29.83,19.73a5.57,5.57,0,0,0,0,1,5.45,5.45,0,0,0,.49-1c.08-.26-.42-.24-.51-.05Z"/><path class="cls-1" d="M29.67,26.74c.15.63,0,.6-.12.6s-.3-.91-.52-.3c-.13.34-.34.86.07.82s1.46,0,1.13-.79S29.52,26.07,29.67,26.74Z"/><path class="cls-1" d="M30.6,29.36a.36.36,0,0,0,.08-.36c0-.22-.74-.08-.74-.08L28.41,29s-.19.34-.13.39,2.21,0,2.32,0Z"/><path class="cls-1" d="M29.22,30.67c0-.59-.13-1.1-.61-1.08,0,0-.65,0-.67.39s-.07,1.07.12,1.07,0-.77.21-.78.17.3.17.52.29.31.26,0-.16-.58,0-.54.22.08.18.39.34.66.33,0Z"/><path class="cls-1" d="M29.85,30.19c.15,0,.16.29.16.48s.26.29.24,0-.15-.54,0-.5.2.07.17.36.31.61.29,0-.11-1-.56-1c0,0-.59,0-.61.36s-.07,1,.11,1,0-.71.19-.73Z"/><path class="cls-1" d="M14.22,37.13c.25,0,.12-1.17-.15-1a.58.58,0,0,0-.15.38C13.92,36.83,14,37.11,14.22,37.13Z"/><path class="cls-1" d="M15.22,37c-.07-.45-.27-.65-.29-.48a1.32,1.32,0,0,0,0,.56c.06.29.36.37.3-.08Z"/><path class="cls-1" d="M16.16,37.14c.06-.07-.3-.75-.45-.56,0,0-.18.09,0,.36s.35.27.42.2Z"/><path class="cls-1" d="M17.13,38.51c0-.1-.2-.24-.27-.23s-.19.09,0,.26.33.06.3,0Z"/><path class="cls-1" d="M18,38.56c.21-.11-.22-.5-.48-.48,0,0-.15,0,0,.22S17.73,38.66,18,38.56Z"/><path class="cls-1" d="M19,39.91c.26.22.45.22.31,0s-.27-.46-.38-.35-.19.18.07.4Z"/><path class="cls-1" d="M20.22,39.68c.07-.17-.36-.76-.54-.75,0,0-.23,0,0,.4s.5.53.57.35Z"/><path class="cls-1" d="M20.83,39.46c0-.17-.33-.82-.37-.62a.86.86,0,0,0,.07.65c.19.23.31.14.3,0Z"/><path class="cls-1" d="M21.71,39.21c0-.26-.26-.65-.36-.57s-.2.09,0,.39.42.43.38.18Z"/><path class="cls-1" d="M22.31,38.87c.43,0-.09-.33-.13-.41s-.23-.11-.22,0a.33.33,0,0,0,.24.4Z"/><path class="cls-1" d="M22.31,40.27a.26.26,0,0,0-.24-.24s-.28,0-.09.21.36.18.33,0Z"/><path class="cls-1" d="M23.08,40.15c-.15-.4-.28-.61-.43-.52a.41.41,0,0,0,.07.45C22.91,40.35,23.23,40.56,23.08,40.15Z"/><path class="cls-1" d="M23.61,39.61c0-.32-.61-1.12-.61-.83a.71.71,0,0,0,.14.51C23.33,39.55,23.66,39.93,23.61,39.61Z"/><path class="cls-1" d="M21.87,41.36c-.08.13-.19.5,0,.4,0,0,.41-.23.34-.35s-.31-.19-.39,0Z"/><path class="cls-1" d="M22.64,42.18c-.22,0-.42.25-.3.38s.12.24.39,0S22.85,42.13,22.64,42.18Z"/><path class="cls-1" d="M26.1,42.58s-.49.4-.09.42.48-.11.35-.3S26.23,42.51,26.1,42.58Z"/><path class="cls-1" d="M28.74,42.93c-.11,0-.5.22-.33.4,0,0,.32.13.48-.09S28.89,42.93,28.74,42.93Z"/><path class="cls-1" d="M29.78,42.13c-.18.09-.3.25,0,.39a.32.32,0,0,0,.33-.17C30.23,42.15,30,42.06,29.78,42.13Z"/><path class="cls-1" d="M28.05,42s-.4.51,0,.55.2-.36.2-.36S28.1,41.9,28,42Z"/><path class="cls-1" d="M28.07,41.11a.27.27,0,0,0-.41,0c-.09.08-.27.47.06.47s.55-.33.35-.51Z"/><path class="cls-1" d="M29.6,41c0-.18-.1-.25-.25-.17s-.33.24-.12.33S29.66,41.16,29.6,41Z"/><path class="cls-1" d="M24.92,39.91s-.11.22.13.24.26-.14.25-.22a.25.25,0,0,0-.35,0l0,0Z"/><path class="cls-1" d="M25.3,38.34s-.07.31.19.39.17-.17.14-.24S25.28,38.18,25.3,38.34Z"/><path class="cls-1" d="M26.62,39s-.23.25-.08.3S27,39.09,26.62,39Z"/><path class="cls-1" d="M27.59,38.32c.22,0,.37-.24.06-.29C27.65,38,27.38,38.29,27.59,38.32Z"/><path class="cls-1" d="M26.39,38.24s-.29,0-.13.18.23.17.3,0,0-.19-.17-.14Z"/><path class="cls-1" d="M26.91,37.2a.27.27,0,0,0,.1.31c.18.1.18,0,.19-.12S26.91,37,26.91,37.2Z"/><path class="cls-1" d="M26.57,36.73a.26.26,0,0,0,.27,0C27,36.64,26.53,36.53,26.57,36.73Z"/><path class="cls-1" d="M29,35.5c.13-.12-.16-.25-.24-.08C28.76,35.42,28.87,35.62,29,35.5Z"/><path class="cls-1" d="M36.84,42.21c.31-.1.52-.63,0-.49,0,0-.26.26-.26.32s0,.26.29.17Z"/><path class="cls-1" d="M34.81,41.34s-.09.33,0,.31.4-.11.23-.26-.22-.13-.27,0Z"/><path class="cls-1" d="M33.87,40.91s-.28.12-.29.22,0,.31.25.14.42-.53,0-.36Z"/><path class="cls-1" d="M32.8,40.54s-.34.1-.23.22.36.36.43.12S33,40.43,32.8,40.54Z"/><path class="cls-1" d="M35.12,40.11s-.26.1-.21.21.19.21.32.07S35.37,40,35.12,40.11Z"/><path class="cls-1" d="M35.94,41.18c.2-.06.49-.57,0-.5a.4.4,0,0,0-.23.23c-.07.16,0,.32.18.27Z"/><path class="cls-1" d="M31.08,37s0,.33.24.27a.17.17,0,0,0,.14-.21.14.14,0,0,0,0-.06S31,36.74,31.08,37Z"/><path class="cls-1" d="M31.05,38.5c-.21-.11-.22-.14-.28-.06s-.18.32,0,.34.46-.17.26-.28Z"/><path class="cls-1" d="M32,37.53c0-.14-.7.17-.4.3,0,0,.23.12.35,0s0-.21,0-.35Z"/><path class="cls-1" d="M32.66,36.12c.2,0,.18-.19.12-.3s-.39-.12-.37.09C32.41,35.91,32.47,36.13,32.66,36.12Z"/><path class="cls-1" d="M32.75,36.72c.42.25.28-.43.07-.31C32.82,36.41,32.56,36.61,32.75,36.72Z"/><path class="cls-1" d="M33.41,36.22c.45,0,.2-.46,0-.38a1.51,1.51,0,0,0-.23.21s-.16.17.2.17Z"/><path class="cls-1" d="M32.89,37.47c0,.1.11.14.29.1s.18-.31,0-.25c0,0-.24,0-.25.15Z"/><path class="cls-1" d="M33.91,37.19c.09,0,.06-.23.07-.37s-.06-.21-.22-.09a.14.14,0,0,0-.1.16C33.66,37,33.81,37.21,33.91,37.19Z"/><path class="cls-1" d="M37.68,34.9c.15-.14.27-.4,0-.43a.18.18,0,0,0-.18.18v0c0,.2,0,.35.2.22Z"/><path class="cls-1" d="M38.15,35.1a.78.78,0,0,0,.33.07c.13,0,.06-.22,0-.27s-.48.17-.3.2Z"/><path class="cls-1" d="M38.9,34.26c.33.06.39-.35.24-.31S38.56,34.19,38.9,34.26Z"/><path class="cls-1" d="M38.22,34.16c.18,0,.29-.06.18-.16s-.27-.25-.27-.15S38.05,34.17,38.22,34.16Z"/><path class="cls-1" d="M37,12.77c0-.35-.1-.43-.13-.39a3,3,0,0,0,0,1c.08,0,.15-.25.12-.6Z"/><path class="cls-1" d="M32.3,15c-.19,0-.26-.28-.27-.47s-.19-.32-.28-.07c0,0,0,.82.43.8s.63-.29.43-.94c0,0-.1-.18-.25-.06S32.49,15,32.3,15Z"/><path class="cls-1" d="M32.91,14.05s-.08.9.31.91.65-.23.55-1c0,0-.07-.21-.24-.09s0,.77-.16.78-.21-.33-.2-.54-.14-.37-.26-.11Z"/><path class="cls-1" d="M34.07,13.79s-.08.92.27.93.61-.24.53-1c0,0-.07-.2-.23-.08s0,.8-.15.81-.19-.34-.18-.56S34.19,13.52,34.07,13.79Z"/><path class="cls-1" d="M35.16,13.27v.8a.5.5,0,0,0,.43.55h.08c.58,0,.43-.73.43-1s0-.78-.18-.76-.18.2-.17.53.08.75-.1.74-.17-.27-.17-.6-.26-.59-.31-.22Z"/><path class="cls-1" d="M36.72,12.5s-.34-.31-.34.15-.13,1.76.62,1.8.64-.94.64-1.55.12-1.26-.13-1.1-.27.35-.3.8.1,1.16-.13,1.2-.37,0-.34-.69a1.57,1.57,0,0,0,0-.61Z"/><path class="cls-1" d="M38.39,13c0-.71,0-1.24-.14-1.24s-.27,0-.28.34-.16,1.8.32,2,1.15.09,1.17-.44,0-1.72,0-2-.31-.47-.38,0,.19,2.17-.21,2.14-.46,0-.49-.76Z"/><path class="cls-1" d="M38.69,11.83s-.15,1.28,0,1.36.09-.88.11-1.16-.12-.44-.14-.2Z"/><path class="cls-1" d="M36.8,31.94c.31,0,1.29-2.18,1.53-3.6a8.64,8.64,0,0,1,.61-2.4,18.4,18.4,0,0,0,.67-4.55c0-1.31.07-2.51,0-2.72s-.15-.27-.37-.11-.5.08-.46.67a34.13,34.13,0,0,1-.13,4.85c-.21.59-.4,1.49-.57,2.11s-.37,1.28-.25,0,.39-1.3.42-2,.19-1.66.16-2.75,0-2.47,0-2.47-.56-.74-.57-.07,0,4.09,0,4.55a8.91,8.91,0,0,0-.15,1.63c.06.46-.17.6-.2,1.36a19.76,19.76,0,0,1-.61,4.39c-.37.78-.42,1.09-.11,1.13Z"/><path class="cls-1" d="M36.31,28.49c.23-.15,1.18-2.38,1.23-5.77s.18-3.77,0-4-.47-.34-.41.36-.13,5.59-.37,5.61.17-4.18.08-5.85h0s-.3-.79-.32-.18,0,3.28-.11,3.49a6,6,0,0,0-.27,2.15,19.53,19.53,0,0,1,0,3.42c-.11.53-.15,1,.1.83Z"/><path class="cls-1" d="M36.08,20.85a23.74,23.74,0,0,0,.19-2.52.31.31,0,0,0-.41.18.28.28,0,0,0,0,.13,14.41,14.41,0,0,1-.08,1.79c-.08.39,0,2.06-.29,2s-.11-.84,0-1.56a7.07,7.07,0,0,0,.14-2.47s-.33-.37-.35,0a6.21,6.21,0,0,1-.07,1.36A2.51,2.51,0,0,0,35,20.91a4.44,4.44,0,0,1-.1,1.74,3.48,3.48,0,0,0-.2,1.2,5.71,5.71,0,0,1-.57,2.06c-.39.63.44.8,1.27-1.56a8.82,8.82,0,0,0,.72-3.51Z"/><path class="cls-1" d="M33.87,18.44a18.47,18.47,0,0,1-.22,3.15c-.18.41-.24,1.23-.35,1.46s-.54,1.27-.74,1.6-.17.74.2.47a6,6,0,0,0,1.68-3c.16-1.3.37-2.12.42-2.47a3.94,3.94,0,0,0,.06-1.37c-.12-.07-.34-.14-.34.21a9.68,9.68,0,0,1-.29,2.15c-.18.59-.2.82-.22.08a17.86,17.86,0,0,0,0-2.55s-.24,0-.24.32Z"/><path class="cls-1" d="M32.65,18.05v1.36a8.47,8.47,0,0,1-1,3.4c-.37.81.13.59.43.33a8,8,0,0,0,1.12-1.81,19.74,19.74,0,0,0,.54-3.24.25.25,0,0,0-.35,0l0,0c-.09.14-.2.2-.28,0s-.35-.05-.35-.05Z"/><path class="cls-1" d="M32.22,20.56a15.12,15.12,0,0,0,.22-2.42c0-.32-.14-.51-.18,0s-.2.3-.3-.18-.26.93-.19,1.41a12.91,12.91,0,0,1-.6,2.6c-.18.83.89-1,1-1.45Z"/><path class="cls-1" d="M32.39,15.82c-.07.64,0,.89-.17.81s0-1-.17-1-.14.38-.17.66-.07,1,.32,1c.66,0,.51-1.25.51-1.47S32.47,15.22,32.39,15.82Z"/><path class="cls-1" d="M33.72,15.42c-.17,0-.24,0-.23.4s.06.72-.12.68-.12-.45-.1-.78-.13-.32-.13-.32-.16,0-.16.3-.07,1.5.29,1.53.55-.28.58-1,0-.76-.13-.76Z"/><path class="cls-1" d="M34.47,17.49c.61,0,.49-1,.51-1.31s.07-.9-.08-.91-.13.17-.13.46,0,1-.22,1-.22-.34-.17-.85a1.6,1.6,0,0,0,0-.61s-.22,0-.22.41-.26,1.73.36,1.79Z"/><path class="cls-1" d="M36.22,15.16c-.19,0-.3,0-.3.36s0,1.48-.17,1.48-.27-.32-.27-.9.15-.89,0-.93-.3-.16-.32.4-.1,2.06.35,2.13.74-.5.69-1.19.15-1.3,0-1.35Z"/><path class="cls-1" d="M36.81,15s-.24,0-.27.42,0,1.28,0,1.69,0,.77.43.81.68-.58.68-1.26.17-1.73-.09-1.77-.2.2-.18.45,0,1.92-.3,1.88-.35-.75-.26-1.49,0-.73,0-.73Z"/><path class="cls-1" d="M37.11,15.29s-.11-.07-.11.37-.1,1.15.06,1.17,0-.39.11-.78S37.23,15.29,37.11,15.29Z"/><path class="cls-1" d="M39.54,14.71c-.23,0-.32-.07-.33.41s0,1.92,0,1.92,0,.57-.34.57-.39-.24-.39-.77.13-1.92-.2-2c0,0-.25,0-.27.47s0,1.83,0,2.07a.86.86,0,0,0,.75.9c.65.09.84-.83.85-1.75s.19-1.82,0-1.85Z"/><path class="cls-1" d="M38.82,15.21s-.16-.07-.18.34-.09,1.65.06,1.65.18-.07.16-.42a7.11,7.11,0,0,0,0-1.57Z"/><path class="cls-1" d="M31.57,3.59l.21-1.49a.31.31,0,0,0-.2-.39h-.1l-.34-.05-.31,2.2h.34c.28,0,.37-.1.4-.31Zm-.52.12.17-.81h.21V2.69h-.21l.12-.84h.1c.14,0,.17.08.15.2l-.21,1.51c0,.14-.07.17-.2.15Z"/><path class="cls-1" d="M14,14.59a.27.27,0,0,1-.29-.25V14h.59a.4.4,0,0,0,.47-.34.41.41,0,0,0-.34-.47H13.22v.21s.17,0,.17.15v.85a.19.19,0,0,1-.19.15v.15H14v-.11Zm.1-1.22a.21.21,0,0,1,0,.42h-.39v-.42Z"/><path class="cls-1" d="M11.74,23.85h.84a.21.21,0,0,1,.15.2h.16v-.84h-.15s0,.31-.27.31h-.25v-.59a.42.42,0,0,0-.4-.44h0a.44.44,0,0,0-.41.44V24h.21s0-.17.16-.17Zm-.22-.74a.22.22,0,0,1,.26-.17.23.23,0,0,1,.17.17v.4h-.43Z"/><path class="cls-1" d="M26.29,30.51a.15.15,0,0,1-.21,0l0,0L25.36,30a.21.21,0,0,1,0-.26l-.14-.05-.53.74h0l-.19.27a.42.42,0,0,0,.52.65.42.42,0,0,0,.15.3.44.44,0,0,0,.6-.13l.34-.47.11-.07.09-.13.19-.26-.16-.11ZM24.88,31a.24.24,0,0,1,0-.32l.23-.32a.25.25,0,0,1,.17.06l.23.16-.29.42a.23.23,0,0,1-.31,0Zm.88.29a.23.23,0,0,1-.29,0,.21.21,0,0,1,0-.29l.23-.31.34.25-.23.31Z"/><path class="cls-1" d="M16.13,13.21a.79.79,0,0,0-.71.86A.79.79,0,0,0,17,14,.82.82,0,0,0,16.13,13.21Zm0,1.34c-.15,0-.35-.27-.35-.56s.2-.55.35-.55.35.27.35.55S16.27,14.55,16.13,14.55Z"/><path class="cls-1" d="M18.44,14.59a.27.27,0,0,1-.3-.24V14h.26l.44.7a.53.53,0,0,0,.49-.18l-.07-.1s-.19.13-.28,0a4,4,0,0,0-.23-.39.42.42,0,0,0,.42-.4.43.43,0,0,0-.44-.41h-1.1v.21s.16,0,.16.15v.85a.19.19,0,0,1-.19.15v.15h.84Zm.1-1.22a.21.21,0,0,1,0,.42h-.4v-.42Z"/><path class="cls-1" d="M11.72,20.88h.85a.19.19,0,0,1,.15.19h.15v-.83h-.15s0,.31-.27.31h-.23v-.26l.7-.44a.54.54,0,0,0-.18-.49l-.11.07s.14.19,0,.28l-.39.22a.43.43,0,0,0-.41-.41.42.42,0,0,0-.4.44h0v1.1h.2s0-.17.16-.17Zm-.22-.74a.22.22,0,0,1,.26-.17.23.23,0,0,1,.17.17v.4H11.5Z"/><path class="cls-1" d="M19.67,34.05a.27.27,0,0,1,.23.29s0,0,0,.06a.42.42,0,0,1-.07.26l-.25-.07-.23-.79a.53.53,0,0,0-.52,0v.12s.22-.08.26.1.08.34.11.44a.42.42,0,0,0-.51.27.44.44,0,0,0,.31.52l.78.22.28.08v-.2s-.17,0-.11-.2.23-.82.23-.82a.2.2,0,0,1,.23-.08V34.1l-.79-.23V34Zm-.57.89a.24.24,0,0,1,.26-.16l.38.12-.11.4-.41-.11a.22.22,0,0,1-.14-.25Z"/><path class="cls-1" d="M28.65,15.07a.16.16,0,0,1-.17.16h-.85a.2.2,0,0,1-.14-.19h-.16v.83h.15a.27.27,0,0,1,.22-.3H28v.26l-.71.43a.55.55,0,0,0,.18.5l.11-.07s-.13-.19,0-.27l.4-.24a.42.42,0,0,0,.4.43.43.43,0,0,0,.41-.45h0V15.07Zm0,.9a.22.22,0,0,1-.21.21.21.21,0,0,1-.21-.21v-.4h.42V16Z"/><polygon class="cls-1" points="22.53 14.61 22.32 14.61 22.89 13.78 23.7 14.73 24.42 13.97 24.86 14.61 24.59 14.61 24.59 14.74 25.63 14.74 25.63 14.61 25.5 14.61 24.8 13.57 24.8 13.56 24.8 13.25 24.46 13.25 24.46 13.47 23.88 14.09 23.2 13.25 22.46 13.25 22.46 13.5 22.65 13.5 22.65 13.5 21.9 14.61 21.75 14.61 21.75 14.74 22.53 14.74 22.53 14.61 22.53 14.61"/><polygon class="cls-1" points="26.96 14.5 26.84 14.5 26.84 13.5 26.96 13.5 26.96 13.25 26.25 13.25 26.25 13.5 26.37 13.5 26.37 14.5 26.25 14.5 26.25 14.74 26.96 14.74 26.96 14.5 26.96 14.5"/><polygon class="cls-1" points="11.6 18.91 12.61 18.91 12.61 19.04 12.84 19.04 12.84 18.32 12.61 18.32 12.61 18.45 11.6 18.45 11.6 18.32 11.37 18.32 11.37 19.04 11.6 19.04 11.6 18.91 11.6 18.91"/><polygon class="cls-1" points="11.59 16.06 12.9 15.23 11.59 14.21 11.59 13.94 11.38 13.94 11.38 14.68 11.59 14.68 11.59 14.46 12.32 15.03 11.59 15.49 11.59 15.44 11.38 15.44 11.38 16.28 11.59 16.28 11.59 16.06 11.59 16.06"/><polygon class="cls-1" points="11.51 17.99 11.82 17.99 11.82 17.85 11.67 17.85 11.67 17.44 12.62 17.44 12.62 17.7 12.84 17.7 12.84 16.69 12.62 16.69 12.62 16.96 11.67 16.96 11.67 16.54 11.82 16.54 11.82 16.41 11.67 16.41 11.67 16.41 11.37 16.41 11.37 17.99 11.51 17.99 11.51 17.99 11.51 17.99"/><polygon class="cls-1" points="11.6 22.15 12.61 22.15 12.61 22.28 12.84 22.28 12.84 21.56 12.61 21.56 12.61 21.68 11.6 21.68 11.6 21.56 11.37 21.56 11.37 22.28 11.6 22.28 11.6 22.15 11.6 22.15"/><path class="cls-1" d="M24.77,32.36l-.1-.08-.62-.65v-.07l.12-.13L24,31.3l-1.13,1.06.19.39.13-.14a.89.89,0,0,1,0-.23.09.09,0,0,1,0-.07l.47-.45.65.7a.36.36,0,0,1,.07.1,3,3,0,0,1-.25.25l.14.15.71-.67-.13-.15-.14.12Z"/><path class="cls-1" d="M14.22,30.54l.77-.48h.06a.33.33,0,0,1,.11.15l.15-.1-.83-1.31-.4.11.1.16h.3l.33.54-.81.51-.1.06a2.23,2.23,0,0,1-.2-.3l-.17.11.52.82.17-.1-.09-.15a.73.73,0,0,1,.09-.09Z"/><path class="cls-1" d="M15,30.49l.14.17.08-.06h.07l.13.11.28.35-.39.31L15,30.91l-.13.09.36.45-.3.24-.31-.39h0l.08-.1-.13-.2-.25.34.83,1,.14-.11,0-.1v-.06h0l.77-.62h.06c.06,0,0,0,.11.12l.14-.12-.87-1.07-.4.18Z"/><path class="cls-1" d="M12.56,27.49l1-.31h.06a.26.26,0,0,0,.06.14l.17-.06L13.36,26h-.43l.07.2h.22a1.46,1.46,0,0,1,.09.15l.14.42-.47.16-.19-.55-.2.06.18.56-.37.12-.18-.48h0l.11-.07-.07-.2-.36.22.43,1.26.16-.06v-.16h0Z"/><path class="cls-1" d="M12.09,25.9c.18,0,.31-.18.39-.5a.48.48,0,0,1,.07-.3,1.31,1.31,0,0,1,.09-.28s.09,0,.12-.06.07,0,.1.07a.54.54,0,0,1,0,.18,1,1,0,0,1,0,.34.73.73,0,0,1-.3.22l.1.27c.16-.07.3-.14.42-.18a1.88,1.88,0,0,0,0-.58,1.07,1.07,0,0,0-.23-.62.36.36,0,0,0-.35-.2.35.35,0,0,0-.26.16,1.53,1.53,0,0,0-.14.41,1.11,1.11,0,0,1-.07.3.65.65,0,0,1-.08.27v.05a.29.29,0,0,1-.16-.22,4.69,4.69,0,0,1,0-.53,1.12,1.12,0,0,1,.28-.16L12,24.31c-.16.07-.3.11-.41.15a1.82,1.82,0,0,0,0,.57,1.56,1.56,0,0,0,.17.63c.1.18.22.26.35.24Z"/><path class="cls-1" d="M28.42,19.67h.07a.14.14,0,0,1,0,.09v.55l-1.07-.94s-.15-.19-.15.12V21l.4.13v-.29c-.12,0-.07-.06-.09-.09s0-.06,0-.13V20.2l1.07.92s.16.11.16-.13V19.5l-.42-.11v.28Z"/><path class="cls-1" d="M27.6,17v-.14h-.25v.62h.25V17.4h0l.26.13v.66l-.26.14v-.26h-.25v1h.25v-.14a.09.09,0,0,1,.06-.06l1.19-.71v-.43l-1.21-.64h0Zm.46.65.33.16-.33.19Z"/><path class="cls-1" d="M27.58,21.55v-.14h-.26V22h.25v-.12h0l.26.12v.66l-.26.15v-.27h-.25v1h.25V23.4a.13.13,0,0,1,.07-.06l1.18-.71V22.2l-1.21-.64h0Zm.46.65.33.16-.33.2Z"/><path class="cls-1" d="M22.74,32.87l-.14-.22-.52.34.13.21.11-.07h0v.29l-.56.35-.26-.14.23-.14-.14-.22-.85.54.14.21L21,34h.08l1.23.62.36-.23L22.62,33h0l.12-.08Zm-.72,1,.3-.19v.37L22,33.87Z"/><path class="cls-1" d="M18.28,33.12l-.15.21a.11.11,0,0,1,.1.08h0l-.26.13-.53-.38a1.5,1.5,0,0,1,0-.3l.21.16.14-.21L17,32.22l-.15.21.11.09a.14.14,0,0,1,0,.09L16.89,34l.36.25,1.22-.6h0l.12.08.15-.21-.51-.36Zm-.88.67v-.38l.29.2-.33.18Z"/><path class="cls-1" d="M26.54,27.68a.21.21,0,0,1,.05-.12l-.23-.11-.25.57.23.1V28h0l.18.21-.27.61a1.4,1.4,0,0,1-.29,0s.11-.23.11-.24l-.23-.1-.41.91.23.12a.14.14,0,0,1,.07-.13s0,0,.08,0l1.41-.18.17-.39-.84-1.08v-.06Zm.4,1.07h-.39l.15-.33.24.28Z"/><path class="cls-1" d="M28.28,25.56h-.11l-1-.21h0v-.16H27l-.2.74H27v-.1h.06l.37.09-.17.66-.38-.1h0v-.13h-.18l-.2.74.18.05V27h0l.89.23h.11v.16h.19l.2-.75h-.2v.09h-.11l-.3-.07.18-.66.29.08h.11a.29.29,0,0,1,0,.13l.2.05.2-.74h-.2v.11Z"/></g></g></svg>