<svg xmlns="http://www.w3.org/2000/svg" viewBox="0 0 35.52 49.94"><defs><style>.cls-1{fill:#fff;}</style></defs><g id="Capa_2" data-name="Capa 2"><g id="Layer_1" data-name="Layer 1"><path class="cls-1" d="M16.07,0C22.69,0,28,1.27,31.76,4a9.18,9.18,0,0,1,2.36,2.29c.18.27.74.6.61,1.14s-.46.54-.68.82c.48,1.09,2.22,2.37,1.1,3.76h-.07a2.24,2.24,0,0,0-.73-1.31,2.41,2.41,0,0,1-1,2.24c0-1.72-.42-1.83-1.47-2.47l-1.26-.89C30,9,29.48,8.36,29,7.69a3.73,3.73,0,0,1,.74-1.28A10.14,10.14,0,0,0,27,5c-.56-.24-1.14-.48-1.71-.7l-1.7-.44-1.82-.31c-1-.29-2.31,0-3.41-.21a8.05,8.05,0,0,0-2.59.12c-.51.15-1.08,0-1.54.14H13.5c-.54.18-1.12,0-1.7.24A8.06,8.06,0,0,1,10.61,4l-1,.28L8.35,4.8A8.24,8.24,0,0,0,5.47,6.36l.19.21c.27.13.42.4.63.59s.43.27.52.53-.22.74-.38.94a6.45,6.45,0,0,1-2.55,1.58c-.4.16-1.14.22-1.38.56a3.85,3.85,0,0,0-.46,2,2.55,2.55,0,0,1-.68-1.66,4.21,4.21,0,0,1,0-.87L1,10.69.5,11.88h0a3.11,3.11,0,0,1-.49-1c-.14-.67.92-2.11,1.28-2.36.18-.12.86-.32,1-.44l-.56-.49c-.2-.13-.47-.18-.58-.45C.88,6.48,2.51,5,2.85,4.62,5.07,2.4,8.22,1.3,11.66.47,12.72.21,13.91.28,15.09,0,15.26,0,15.82.21,16.07,0ZM15.6.29c-.23.17-.71,0-1,.07l-3,.39C9.4,1.39,7.13,1.81,5.45,2.9c-.81.53-1.53,1.15-2.26,1.73C2.66,5,1.38,6.28,1.34,7.08c.64.51,1.18,1.16,1.8,1.68h0C3.14,7.76,5,6.51,5.67,6A16,16,0,0,1,12,3.56c.87-.2,1.74-.17,2.69-.33A15.92,15.92,0,0,1,19,3.14c.93.18,1.91,0,2.8.21a23.41,23.41,0,0,1,4.67,1.14l1.36.59,1.09.58,2,1.42,1.3,1.38c.13.18.25.46.45.56.46-.66,1.34-.8,1.75-1.63-.25-1-2-2.58-2.87-3.18C27.77,1.4,22.23.3,15.6.29Zm.1.56c.87,0,1,1.63,0,1.59a.88.88,0,0,1-.42-1.17A.9.9,0,0,1,15.7.85Zm1.63,0h.23V2.36h-.25l-.42-.95h-.05v.9h-.23V.82c.41,0,.57.65.68,1h0Zm1.19,1.21H18c-.06.22,0,.34-.35.32h0c.13-.41.31-1.5.75-1.49h0l.44,1.5h-.28V2.32A.39.39,0,0,1,18.52,2.06ZM19.06.89h.26l-.08,1.32h.59v.24A2.48,2.48,0,0,1,19,2.37Zm-4,.08.07,1.49H14.9a6.61,6.61,0,0,1,0-1.54h0Zm5.65,1.56h-.23A3.85,3.85,0,0,1,20.61,1l.71.09c.15.21.25.7-.05.84a.65.65,0,0,1-.51,0ZM14,1c.26.06.43,0,.53.31v.14h-.17c0-.12-.06-.14-.14-.21H14l-.17.16a1.88,1.88,0,0,0,.19.84.47.47,0,0,0,.33-.09l.07-.26.21.07v.24a.61.61,0,0,1-.33.42c-.32.09-.45-.1-.61-.24C13.47,1.7,13.48,1.41,14,1Zm1.73.12-.14.09a1,1,0,0,0,.14.94H16a.83.83,0,0,0,.05-1Zm6.14,1a1,1,0,0,1-.12.6h-.23l.25-1.52h0l.69.14.17.19c0,.38,0,.5-.35.63a4.48,4.48,0,0,1,.28.72h-.28c0-.33-.1-.79-.39-.8Zm-9.23-.92h.28c.06.48.5.87.63,1.42h-.28l-.09-.29h-.47l-.07.37-.17,0h-.09Zm8.15.49c.34,0,.47,0,.42-.35L21,1.28h-.23Zm-2.48-.42-.14.49h.31V1.71c-.06-.12-.08-.33-.17-.42ZM23,1.33a2.33,2.33,0,0,1,.91.21l-.07.23h-.07l-.56-.11h0v.28l.59.14-.1.25-.56-.13-.07.39.07.05.59.12c0,.11,0,.22-.14.21l-.8-.17V2.66Zm-11,0c0,.44.42,1.09.23,1.52H12A2.36,2.36,0,0,0,11.37,2l.21.91L11.49,3h-.17c0-.53-.37-1-.25-1.51.48,0,.54.6.88.81l-.21-1Zm10,.1-.09.39h.47V1.54l-.05-.07Zm2.22.14a1.53,1.53,0,0,1,.75.32.71.71,0,0,1-.28.75l-.49-.07a1.49,1.49,0,0,1-.14.51h-.22Zm-11.42,0-.07.54a.76.76,0,0,1,.3,0V2ZM9.89,3v.38l-.21.06h0l.09-1.58H10c.2.48.68.79.8,1.33-.15,0-.2.07-.29,0a.53.53,0,0,0-.13-.26ZM24.36,1.87c-.14.25-.14.49.24.47a.33.33,0,0,0,0-.4Zm1.12,0,.28.06a8.77,8.77,0,0,1,0,1.62l-.24-.07V3.21L25,3.07l-.14.31-.26-.07ZM10,2.76h.24L10,2.21h0Zm16.42-.55a1,1,0,0,1,.84.46c0,.28-.1.55-.45.56.07.18.1.47.17.73l.06,0,.87-1.1.21.07v.05a4.87,4.87,0,0,1-.14,1.57l-.21-.08c0-.17.06-.34-.07-.41l-.37-.15-.19.29c-.2-.09-.22-.2-.46-.24l-.17-.75h-.14l-.21.58H25.9ZM8.5,2.21h.1L8.92,3.4l.58-.19.08.26h0a4,4,0,0,0-.82.23,11.78,11.78,0,0,1-.35-1.45Zm17,.11-.26.47.3.07V2.32Zm-17.58.1H8v.19l-.58.26.16.3.52-.25.07.25-.52.26.14.35a1.65,1.65,0,0,1,.63-.26h0c.06.1.07.13,0,.21a3.69,3.69,0,0,1-.8.31L7.11,2.63Zm18.61.07-.1.37.07.05h.33l.12-.1a.31.31,0,0,0-.1-.25Zm-19.66.4a2.13,2.13,0,0,1,.56,1.3.58.58,0,0,1-.66.35c-.25-.16-.79-1-.63-1.28l.16,0a2,2,0,0,0,.57,1h.25a3,3,0,0,0-.45-1.17Zm21.66.25a2.07,2.07,0,0,1,.87.38l-.07.23c-.16,0-.22-.1-.38-.09l-.44,1.07a.34.34,0,0,1-.23-.11l.51-1.12-.33-.19Zm-.72.1-.28.42a1.32,1.32,0,0,1,.3.09ZM6.33,4.4c0,.49-.09.63-.42.75-.76-.08-1.18-1.51-.26-1.54A1.68,1.68,0,0,1,6,3.82L5.84,4c-.12-.1-.37-.22-.47,0-.17.38.43,1.09.65.73V4.4Zm12.09-.6v.72a.57.57,0,0,1,.28.35c-.14.22-.24.3-.63.28V5.08L18.21,5a.55.55,0,0,0-.07-.33A3.84,3.84,0,0,1,17,4.29V4c.32,0,.47-.18.73-.24Zm11.35,0c1,0,.57,1.65-.16,1.57-1.07-.07-.4-1.25.14-1.51Zm-11,1.12V4.74c.3,0,1.09.11,1-.26,0-.1,0-.09-.09-.14h-.1l-.23.28a1.61,1.61,0,0,1-.91-.21V4.24c.23,0,.5.28.84.14a.32.32,0,0,0,.21-.3L19.4,4a1.69,1.69,0,0,1-.54.21,1.34,1.34,0,0,1-.42-.33h0A7.84,7.84,0,0,1,22,4.31,4.55,4.55,0,0,1,22,6.11L21.92,6a1.33,1.33,0,0,0-1.07,0,5.64,5.64,0,0,0-.1-1.08ZM17.53,4l-.21.14c.09.2.24.16.4.07a.22.22,0,0,0-.18-.15Zm-.59,0a.81.81,0,0,0,.1.51,3.81,3.81,0,0,1,1,.22v.16a1.3,1.3,0,0,1-1.68-.16l.42.14h.65V4.77h0c-.5,0-1,0-1.17-.3s.34-.43.69-.4Zm2.88,0v.22l.18.12a.55.55,0,0,0,.31,0,.37.37,0,0,0,.18-.19h-.13c-.06.13-.13.15-.31.14a.67.67,0,0,0-.22-.19Zm9.92,0a.81.81,0,0,0-.44.75l.21.23c.41,0,.73-.59.53-.82,0-.08-.09-.1-.16-.16Zm-15,.22a6.18,6.18,0,0,0,.79.45c.37.12.66-.15.82,0h.1v0a1.6,1.6,0,0,0-1.52.9l-.12.57h0a1.65,1.65,0,0,1,.56-1.43l-.12-.14A.62.62,0,0,1,14.69,4.21Zm6.14,0a.72.72,0,0,1-.84.31l-.07.07v.07a1.14,1.14,0,0,0,.68.09.72.72,0,0,0,.33-.51h0ZM4.44,4.38a.49.49,0,0,1,.37.21c-.15.23-.17.12-.39.07l-.19.16V5c.24,0,.54-.2.77,0,.53.2.29,1-.3,1a1,1,0,0,1-.33-.24l.17-.16c.1.06.22.14.32.07L5,5.51a.31.31,0,0,0,0-.19c-.32,0-.79.23-.91-.14C4,5.12,4,5,4,4.88s.22-.33.44-.48Zm16.67,0H21c-.07.59.08,1.27.68,1.31l.14-.09V5.51c-.14-.14-.46-.23-.56-.4s0-.56-.12-.77ZM31,5.61l-.07.75h0l-.24-.19a1.43,1.43,0,0,0,.05-.74h-.14l-.33.46h0c-.1-.1-.17-.09-.08-.2l.78-1.15a2,2,0,0,1,.62.51C31.48,5.42,31.33,5.63,31,5.61Zm-9.36-1-.07.1v.42l.26.16v0l.07-.07a.58.58,0,0,0-.29-.61Zm9.31.3-.18.29h0l.25.19h.14l.14-.11V5.21a1.07,1.07,0,0,0-.38-.35ZM3.61,5.1l.16.17h0c-.16.12-.25.3-.44.38v.09l.18.19.1-.1L4,5.53H4l.14.13-.42.4.19.23c.26,0,.39-.22.56-.35l.16.15A2.3,2.3,0,0,1,4,6.72H4l-1-1,.15-.14Zm11.84.12.93.35,1.33-.12c1.09-.22,2.69.37,2.89.89l-.07.09c-.81,0-1.84-.69-2.91-.42-.43.11-1.43.43-1.85.14a1,1,0,0,1-.35-.94Zm16.46.12.16.16-.93,1.17L31,6.5l.1-.09Zm.65.67a.41.41,0,0,1,.24.19l-.71,1.42-.16-.18.14-.31c-.2-.37-.32-.28-.68-.21l-.14-.16Zm-16.77.2.16.17c-.14.33-.36.58-.51.93a6.76,6.76,0,0,1-1,2.22.4.4,0,0,1-.31-.1c.05-.06.05-.06.14-.09a1.39,1.39,0,0,0,.43-.42l.3-.86A12.34,12.34,0,0,1,15.79,6.21Zm3.27,0c.29.08.59.09.74.38v.07l-.09.13c-.41.09-1,.12-1-.37l.07-.09Zm13.31.09L32,6.52l.18.27h0Zm-16.21.12h.19a6.58,6.58,0,0,0-.91,2.66h.14c.87-.31,1.25-1.57,1.44-2.63h.29A4.49,4.49,0,0,1,16.14,9c-.15.11-.66.52-.89.35h-.07a5.53,5.53,0,0,1,1-2.89Zm4.32,0c1,0,2.41.24,2.43,1,0,.42.2.94-.19,1.23-.3-.23-.37-.69-.72-.88-.7-.38-1.19.26-1.63.42l-.82.09h0l.16.08,1,.13v.24a5.11,5.11,0,0,1-1.38-.12l-.19-.23V8c.55-.72,1.34-.12,1.28-1.57Zm-2.8,0,.63.07c.26.12.44.45.7.53.48.16.74-.18,1.22-.18a1.31,1.31,0,0,1-1.73.37l-.4-.54c-.08,0-.33,0-.42-.19Zm-12.4,0a4.47,4.47,0,0,1-1.12,1,1.35,1.35,0,0,1,0,1.16h.07c0-.17.3-.37.42-.54C5,7.61,5.26,6.88,5.91,7v-.1Zm24.57,0L29.5,7c.69,0,.84.4,1.26.7l-.05-.14c.18,0,.05-.13.26-.07l-.12-.16h0l.24.17a4.24,4.24,0,0,0-1.24-1Zm-12.4,0h.11c.49.59-.45,2-.7,2.34h0A1.19,1.19,0,0,0,18,7.92h0a1.58,1.58,0,0,0,.77,1.33h.07a2,2,0,0,1-.05-1.5c-.48-.21-.83-.34-1-.88.14,0,.15,0,.19.09l.44.51.59.16a2.62,2.62,0,0,0,.07,2,2.13,2.13,0,0,1-1-.75l-.21-.44A1.75,1.75,0,0,1,16.49,9l.79-1.57c.2-.16.06-.64.17-.91Zm-.73.07h.14c-.13.53-.7,2.45-1.24,2.27a6,6,0,0,1,.87-2.27h.09c-.32.71-.61,1.43-.86,2.17h0a3.77,3.77,0,0,0,1-2.07Zm1.08.71c.31.19-.19.91-.31,1.12h0a3.76,3.76,0,0,0,.61-.77h0a1.89,1.89,0,0,0,.35,1h0a1.65,1.65,0,0,1,0-.7h.09v.36a1.8,1.8,0,0,0,.07,1h0L18.4,9a5.93,5.93,0,0,0-.35-1L18,8.06a1.4,1.4,0,0,1-.87.76A5,5,0,0,0,17.8,7.3ZM4.28,7.38v.07h0Zm-.21.12L4,7.56l.07-.06Zm22.69,4.6a28.19,28.19,0,0,1-4.11,0c-.7-.11-1.19.06-1.54-.36s-.25-1.35-.25-2.12c0-.51-.14-1.27.09-1.61a.94.94,0,0,1,1.26.12c0,1-.19,2.4.54,2.73h.91c1.07,0,3.54-.25,3.95.35s.13,2.84.13,3.81v9.1c0,1,.27,2.93-.16,3.55-.34.08-.52.28-1,.19.43-.84.21-3.26.21-4.72ZM4.39,8.22h0v0Zm-2.17,0-.86.33c-.58.38-1.9,2.26-1,3a3.8,3.8,0,0,1,1-1.68h0c0,.87,0,2,.47,2.4-.16-1.13.22-2,1.08-2.26a5.66,5.66,0,0,0,1.61-.54H4.35v.06a4.08,4.08,0,0,1-1.14-.25l.09,0c-.13,0-.14-.07-.28-.16l.12.16h0a1.84,1.84,0,0,1-.84-.77h.12l-.19-.19.14.07H2.22Zm.08.08Zm18.81,0c-.22.34-.17,1,.21,1.09a.23.23,0,0,0,.32-.08.19.19,0,0,0,0-.13,1.87,1.87,0,0,1-.47-.46l.1-.33h-.07Zm.49.09h-.09a.55.55,0,0,0,0,.4h.21a.67.67,0,0,0-.14-.45ZM19,8.39c.18.21.24.34.63.33-.16.56.21.89.35,1.22A1.85,1.85,0,0,1,19,8.55ZM4.09,8.53,4,8.63l.09-.1Zm30,.22a2.29,2.29,0,0,1-1.31.44c0,.34-.63.38-1,.4H32a1,1,0,0,1-.42,0h0c.07,0,0,0,.07.07s-.11,0-.07,0c1.3.49,1.66,1.2,1.92,2.62l.09-.07.23-.31a3,3,0,0,0,.31-.91c.08-.3,0-.79.09-1l.12.1.4.49.42.86.09-.07a2,2,0,0,0,0-.91,4.63,4.63,0,0,0-1.12-1.55Zm-14.9,2.17h0L18.4,10h0c.46.09,1.53,1.06,1.82.67v-.06c-.64-.45-1.9-.61-2.12-1.31l.65.47a8.5,8.5,0,0,1,1.66.81.39.39,0,0,1-.12.31c-.55.16-.88-.18-1.24-.4a2.32,2.32,0,0,1,.4.63l-.14.09c-1,.27-.8-.65-1.28-1,.07.21.33.73,0,.84a.71.71,0,0,1-.57,0,1.25,1.25,0,0,1-.42-.86H17a1.31,1.31,0,0,1-.23.79A1.31,1.31,0,0,1,16,11c-.34-.25-.1-.48-.28-.75h0c-.24.31-.58.85-1.14.49V10.7l.16-.35h0c-.3.3-.63.67-1.14.44l-.1-.21.1-.16.63-.33c.38-.26.43-.79.79-1a2.22,2.22,0,0,1-1.33,1.5c0,.18,0,.2.24.21a6.35,6.35,0,0,0,1.31-1.17V9.7a9.79,9.79,0,0,0-.4,1.07h0c.59,0,1.17-1.06,1.31-1.52h0a9.45,9.45,0,0,0-.11,1.59.7.7,0,0,0,.6-.1A3.66,3.66,0,0,0,17,9.61l.09.06L17.63,11c1.08,0,0-1.1-.07-1.45a3.18,3.18,0,0,1,.91.88l.23.54c.11.13.34.11.54.1Zm-6.77-.15v1.57H13a1.37,1.37,0,0,1-.23-.19V12c.13-.3.55-.35.72-.61s.13-.31.24-.37h.12c-.08.56-.61.65-.92,1l.05.17c.5,0,1.17-.85,1.36-1.26h.21l-.07.07a2.82,2.82,0,0,1-1.31,1.31h1.17l-.19-.1a1.19,1.19,0,0,1,.77-1.3h0c-.17.22-.76.74-.63,1.12l.07.09h.1a3.76,3.76,0,0,1,.81-1.23h.17l-.38.42c-.27.41-.24.72-.67,1h1c-.12-.07-.18-.08-.24-.21-.13-.45.32-1.13.72-1.13-.2.28-.67.64-.53,1.15.61,0,.31-1.06,1.07-1.12h0c-.37.36-.44,1.05-.86,1.29h0a12.73,12.73,0,0,0,2.76,0c-.55,0-.54-1-.94-1.19h.17a4.39,4.39,0,0,0,.77,1.09h.07c0-.52-.4-.73-.58-1.1H18c.24.31.82.76.46,1.23h.78a2.14,2.14,0,0,1-.85-1.17.31.31,0,0,1,.19,0,2.56,2.56,0,0,0,.63.93h.12V12c.13-.32-.33-.75-.44-.89h.19c.21.32.53.52.46,1a2.61,2.61,0,0,1-.28.17h7.24v9.9a27.83,27.83,0,0,1-.09,5c-.54,2.46-1.85,4.91-3.95,6v.07l1,1.33a2.51,2.51,0,0,0,.67,0c0,.26.25.26.4.38s0,.32.21.28c0,.26.13.33.19.56a1.57,1.57,0,0,1-.07.68l.09.89.42-.07v-.17c.3.08.73,0,1.12.12.24-.39.14-1,.91-.77a.88.88,0,0,1-.07.69l-.47.24h.05l.52.19a1.35,1.35,0,0,0,.39.82c.09-.15.86-.13,1.31-.22a3.15,3.15,0,0,1,2.24-.07c.07,0,.27,0,.31.1s0-.09.11-.12c0,.16.13.19.12.28a.54.54,0,0,1,.42.26h.16a1.14,1.14,0,0,0,.16.31h.05a.77.77,0,0,1,.9-.59l.1,0,.16.19c0,.68-.44.85-1,.75v.09c.19.19-.16.92-.26,1-.25-.08-1.21.62-1.56.21-.27-.08-.63-.39-.94-.3,0-.55-1-.83-1.42-1s-.68.1-1,0l-.26.42.12.18h-.33v.1a2.24,2.24,0,0,0,1.12-.14l.77.14.37.56a2.3,2.3,0,0,1-.47.72,1,1,0,0,0-.67,0c-.45-.36-1.31-.63-1.52-1.07h-.05c-.13,0-.17.08-.16.28a2.82,2.82,0,0,0-.82,0v.09L28,42.32l0,.31a2.83,2.83,0,0,1-2.12.18l-3.25.08A5.15,5.15,0,0,1,21,42.58a4.88,4.88,0,0,0-1.42.21h-1.1l-.89-.09-1.14.07L15,42.72c-.32.1-.8,0-1.17.07L12.3,43c-.72.13-1-.33-1.42-.4l-1.75.42c-.29.09-.73,0-.91.24-.71-.38-3.84.34-4.37-.31l1-.82H4.64q0-.4,0-.81a1,1,0,0,0,.43-.14h0c.34,0,.63.24.76.24l.28-.19V41.1l-.47-.26L5.48,41a.94.94,0,0,0-.31-.66c-.61.17-1.11.15-1.68.26,0-.07,0,0,.07,0v-.09c-.31,0-.27-.18-.61-.19a1.6,1.6,0,0,0-.12-.49.72.72,0,0,1-.67,0,.69.69,0,0,1,0-.35c0-.1,0-.12.14-.16.3-.15.5.19.68.13s.29-.28.42-.32h.07c.17.07.61.13.65.16v.14a.64.64,0,0,1,.42.35l.59.1.11-.64a.21.21,0,0,0,.26,0,.85.85,0,0,1-.3-.75h.07a.47.47,0,0,1,.51.07V39a1.22,1.22,0,0,1,.73-.1v-.13h0c0,.22.7.24,1,.23v.18c.23.1.41.38.7.45h0l.54-1.5.58-.4a1.21,1.21,0,0,1,.24-2,.36.36,0,0,1,.25,0c.26.13.27.59.38.86-.81-.22-.84.12-.78.94h.1A2.49,2.49,0,0,1,11,36.65c-.12-.42.22-.75.35-1h.17c.31.21.38.48.37,1.05h.3L12,36.6a1.35,1.35,0,0,0-.19-1c-.7-.17-.85.34-1,1h0c-.38-2,2.44-1.5,2.17.2l1,.26.32-.19-.14-.16a1.1,1.1,0,0,0-.51,0c0-.36.49-1,.77-.65A1.13,1.13,0,0,1,14.35,38v-.42c-.73.36-1.85-.2-2.73,0h0v.09a2.66,2.66,0,0,0,1.17.26v.3c.62.11.61.88,1.15.91l-.07.19c.21.11.32.45.54.58a6.12,6.12,0,0,1,.79.54c.19.15.66.12.84.35s.08.39.12.51h0c.3-.08.65-.16,1-.23.06.09.13.2.08.28l-1.17.51h2.61a4.57,4.57,0,0,1,1.76-.19,18.05,18.05,0,0,0,5.62.49c0-.52-.95-1.07-1.4-1.23a22,22,0,0,0-2.57-.47,15.65,15.65,0,0,0-1.54-.56L19,40l-1.12-.77h0l.42-.19c.32.15.44.5.72.65h1.17c0-1-.22-2.37-1.4-2.1-.14-.07-.45-.31-.56-.24l-.47.82c-.33.26-1.35,0-1.68-.12h0c.12,0,.18-.11.26-.14l.95.14h.08l.32-.72h0a1.94,1.94,0,0,0-1.14-.14c-.41.12-.89.52-1.36.47h0a1.26,1.26,0,0,0,.1-.81h-.1l.61-2h-.1c.15.29-.46,1.33-.49,1.73l-.4-.4c.07-.21.44-1.41.42-1.42l-.42-.17c.05.08,0,0,.07,0a3.84,3.84,0,0,1-.46,1.22h-.1c-.07-.1-.14-.08-.18-.23l.49-1.07h-.12a1.82,1.82,0,0,1-.51,1l-.4-.28v-.07l.51-.8a.57.57,0,0,0-.38-.14c-.15.28-.45.51-.53.84l.46.33c-.24,0-.23.13-.34.26h0c-.16-.16-.25-.4-.45-.52-1-.59-1.53.45-2.45.47l.07-.07.65-.74a3.51,3.51,0,0,0,.42-2.13,4.69,4.69,0,0,1-1.14-1.44,13.78,13.78,0,0,1-1.15-2.46c-.23-.7-.18-1.7-.44-2.24V12.68a1.57,1.57,0,0,0,.61,0l-1-.65-1.78-.4-.86.7a10.87,10.87,0,0,0-1.63,1.82,11.24,11.24,0,0,0-1,1.71c-.21.42-.22.83-.42,1.24l-.12,1V38l-.93.1V18.69a8.83,8.83,0,0,1,0-2.18A17.28,17.28,0,0,1,3,13a10.11,10.11,0,0,1,2.53-3.2,3.37,3.37,0,0,1,.67-.58,1.72,1.72,0,0,1,1,.14A14.09,14.09,0,0,1,9.63,10c.32,1.09,1.53,1,2.84,1Zm16.7-1.7c2.21,1.12,4.38,4.86,4.65,7.52.08.8,0,1.93,0,2.87V38.21h0L32.86,38V19a7,7,0,0,0-.1-2.1,12.16,12.16,0,0,0-3.94-5.49c-.28,0-.71.23-.92.12-.11-.55-1-.68-1.68-.68-.24,0-.43.08-.63,0a2.24,2.24,0,0,1,.17-.89Zm-13.18.12a2.43,2.43,0,0,1-.82,1.31H15l.44-.94h.1a2.16,2.16,0,0,0-.43.87h.1Zm-12.73,0h0Zm13.1,0,.12.11a2.65,2.65,0,0,0-.12,1.12h.09a1.93,1.93,0,0,0,.22-1h.09c0,.48,0,1.11-.45,1.12l-.11-.1a5.87,5.87,0,0,0,.22-1ZM15,9.4h.07c-.07.29-1.11,1.33-1.26,1H14l.33-.16A3.08,3.08,0,0,0,15,9.61Zm2.41,0a1.7,1.7,0,0,1,.49,1.24l-.12.06a2.93,2.93,0,0,1-.68-1.23h.12a1.86,1.86,0,0,0,.54,1c.08,0,0,0,.09-.05-.09-.06-.48-.6-.38-.79ZM4.33,9.4h0s.11.3.06.27Zm17.1.12a.52.52,0,0,0,.13.72h.17l.09-.12V10a1.37,1.37,0,0,1-.3-.45Zm-3.25.14a1.82,1.82,0,0,1,.72,1h-.09s-.63-.4-.57-.73Zm.19,0v0Zm2.64,0a2.13,2.13,0,0,0,.34,1.59l.22-.1.07-.25a2,2,0,0,1-.49-1.24Zm-2.2.07,1.22.61H20c-.16.21-1-.13-1.08-.34Zm3.15,1-.21.35v.17l.12.07a1.38,1.38,0,0,0,.84-.35L22.66,11h-.49c0,.26,0,.15-.15.1Zm-6.93,0h0c-.17.39-.53.62-.6,1.07h-.1a7.68,7.68,0,0,1,.76-.75Zm-1,0h0a2.3,2.3,0,0,1-1,1.11h0v-.07c.56.17.86-.33,1.1-.68Zm1.92,0h0c-.17.39-.49.63-.58,1h0v-.09a3.54,3.54,0,0,1,.73-.48Zm7.09,0c-.17.19-.3.56-.58.63h-.7v.21h.07c.61-.12,1,0,1.31-.42a.33.33,0,0,0,0-.45Zm2.91.43a3.53,3.53,0,0,1-.56.14v.09l.21.19a1,1,0,0,0,.58-.19l.05-.16-.05,0Zm-9.29,0c.14.2-.33.88,0,1,.06.08.3.2.41,0l.14-.1a1.58,1.58,0,0,0-.18-1h.18a2.47,2.47,0,0,1,.19,1,1,1,0,0,1-.88.19,1.11,1.11,0,0,1,0-1.19Zm.11,0c.16.16-.11.55,0,.82h.16a5.34,5.34,0,0,1,0-.8h0c0,.35.18.79-.14,1l-.19-.15a4.18,4.18,0,0,1,.19-.92Zm1,0a2,2,0,0,1,.61,1h-.07c-.08-.46-.48-.7-.54-1Zm2.1,0h.22c.15.39,1,.77,1,1.12-1,.28-1.23-.51-1.66-1.1.28,0,.31.18.49.28l-.16-.25h0l.94,1h0c-.25-.13-.42-.43-.68-.57l.47.63h.35V12.3h0a3,3,0,0,1-1-1.09Zm3.9,0-.14.18.07.19a1.59,1.59,0,0,0,.75-.13l.05-.19h-.05Zm2.85,0c-.3.45-.63.41-1.26.54v.11h0a2.59,2.59,0,0,0,1.44-.32c.15-.19.15-.38-.18-.33Zm-7.84.05c.07,0,0,0,.07.09h0Zm6.16,0H24.8c-.35.52-.71.23-1.14.54l.07.12c.68,0,1.22,0,1.44-.49-.05-.11-.08-.13-.22-.17Zm-6.09.09a1.39,1.39,0,0,1,.49.77h0a2.47,2.47,0,0,1-.49-.77Zm9.78.12h.07c.22.15,1,.73.77,1a.69.69,0,0,1-.35.3c-.53,0-.88-.54-1.17-1l.17-.06c.33.25.5.64.88.86a.61.61,0,0,0,.35-.21v-.07l-.84-.84h0Zm-21.88,0a.28.28,0,0,1,.21.1l-.21.21-.7.91.12.21h0c.65,0,.93-.78,1.34-1.1l.14.1c-.11.13-.27.21-.33.39-.53.32-.8,1.37-1.52.59,0-.72.73-.85,1-1.39Zm13.15.05.07.07Zm-12.77.12h.06c.07,0,.07,0,.1.14-.35.19-.49.57-.82.81H6.33v-.07Zm21.1,0h.17l.67.74h0c-.16.14-.34-.17-.47-.28a3.3,3.3,0,0,1-.37-.44Zm-1.32.14a2,2,0,0,0,.32,1.37h.23l.05-.23-.07-.1c-.36-.13-.37-.52-.35-1Zm.46,0-.16.19a.56.56,0,0,0,.21.53c.24-.08.13-.47.09-.7Zm.44.12v0Zm0,.07a1.27,1.27,0,0,1,.56.91.79.79,0,0,1-.49.44v-.26h0L28.1,13c.08-.45-.23-.48-.24-.91ZM7.71,12l.24.19c-.16.27-1.12,1.19-.56,1.43.5-.13.9-.85,1.17-1.24l.16.12c-.27.36-.79,1.35-1.36,1.38a2.36,2.36,0,0,1-.42-.28,5,5,0,0,1,.82-1.54Zm.39.12h.17v.09l-.75.94h-.1V13.1h0Zm21.67.37h.07c.38.27,1.81,1.7.94,2.27-.32.2-.58-.09-.82,0-.13.94-1.06.35-1.33.44-.06.2-.52.61-.77.42v-.18c.35,0,.42-.13.61-.31,0-.6-.42-.82-.63-1.21l.09-.23h0a4.84,4.84,0,0,0,1,1.33.89.89,0,0,0,.75-.21l.1-.35a9.89,9.89,0,0,1-1-1.4H29a4.42,4.42,0,0,0,1.47,1.54.57.57,0,0,0,.26-.12,1.36,1.36,0,0,0,.07-.35,10.08,10.08,0,0,0-1.17-1.52h0ZM9,12.79v2.43l.33-.31a3.41,3.41,0,0,1,1.82.07l.26.33h0c.06-.07.06-.09.07-.22h.35a3.89,3.89,0,0,1,1-2.26l-.44.12c-.13,0-.26-.15-.44-.14Zm4.88,0c.13.6,1.13,1.46.84,2.17H15v-.07a6.6,6.6,0,0,1,0-2.08h0Zm2.33,0Zm1.59,0a3.51,3.51,0,0,1,.12.79h0c0-.39.14-.45.26-.77Zm2.68,0A2.09,2.09,0,0,1,20.39,15H21a3.56,3.56,0,0,1,0-2.19Zm2.81,0h0c.26.3.72,1.25.19,1.69a2.09,2.09,0,0,1,.26.88h0l.26-.3a3,3,0,0,1,1.8-.05c.19.09.31.28.46.4V12.82ZM8.45,16.32a1.43,1.43,0,0,1-1.17-.52.73.73,0,0,1-1-.44c-.77.49-.93,0-1.33-.42-.12,0-.42.19-.6,0-1-.44.72-1.89,1-2.18l.22.22c-.33.11-1.35,1.22-1.15,1.66v.09c.8,0,1.1-1.1,1.61-1.5h.18c-.25.39-1,.92-1,1.56.8,1.15,1.4-.61,1.84-1l.17.07c-.24.36-.72.75-.72,1.35.18.15.21.32.55.33.49-.29.57-.9.92-1.33l.16.1h0c-.09.13-.65,1.07-.54,1.23a.75.75,0,0,0,.91.4Zm9.22-3.38h-1l-.25.47c-.22-.07-.36-.36-.47-.54h-.8v1.94H16v-.37h.11l.21.35h.19l.19-.34h.09v.37h.86Zm11.82,0a2.21,2.21,0,0,1,1.07,1.36h-.07a10.63,10.63,0,0,1-1-1.36Zm-10.77,0-.39.28a3.32,3.32,0,0,0,.09,1.47c.3.44,1.75.14,2.06,0,.08-.35.12-1.35-.19-1.66ZM21.2,15h.35a.39.39,0,0,1,.09-.33h.1c.43.44.87.32,1.68.3v-.07l-.35-.39.35-.45a.78.78,0,0,0,0-.6c-.33-.68-.49-.54-1.47-.54h-.74ZM8.64,13c.11.61-.71.58-.1,1.19v.26c-.25-.13-.48-.23-.49-.61Zm4.41,0-.89,1.87h1l.21-.49.16.07.12.35,1,.12v-.07A9.2,9.2,0,0,1,13.71,13Zm-7.4.17h.14v.12c-.46.18-.74.86-1,1.24l-.11-.17a12.42,12.42,0,0,1,.93-1.11ZM29.42,14.6c0-.5-.51-.86-.75-1.17v0l.07-.07a.26.26,0,0,1,.12.17c.36.15,1,1,.56,1.35-.31-.14-1.14-.92-1.05-1.21l.09,0,.75,1Zm-10-1.24c.11,0,.07,0,.12.07.22.25.1.86,0,1.1h-.12a1.55,1.55,0,0,1-.06-1.12Zm7.57,0a2.47,2.47,0,0,0,.32,1.38h.12c.08,0,.1,0,.14-.11v-.24a1.14,1.14,0,0,1-.42-1Zm.6,0h-.16a.51.51,0,0,0-.16.37l.25.35h.15Zm-5.35.07h.08l.09.12a.65.65,0,0,1,0,.51h0c-.12,0-.12,0-.16-.09a.69.69,0,0,1,0-.49ZM5.85,14.72H6l.75-1,.14.12h0C6.58,14.23,6.35,15,5.72,15c-.36-.55.4-1.15.7-1.49l.1.09c-.26.41-.7.71-.73,1.23Zm1.54-.66c.25.27-.4.72-.48,1.17L7,15.3H7a8.55,8.55,0,0,1,.7-1h.12a2.32,2.32,0,0,1-.75,1.19c-.21,0-.22,0-.35-.14,0-.56.39-.8.61-1.22ZM18,14.2a2.37,2.37,0,0,1-.09.75h.42l.07,0c-.33,0-.31-.39-.42-.63Zm10,.08a2.92,2.92,0,0,1,.33.69l-.12.17-.23.07h0V15h.14a2.9,2.9,0,0,1-.14-.65ZM8.38,15.93a.67.67,0,0,1-.56-.14c0-.57.38-.84.56-1.28l.16.05h0c-.15.34-.54.73-.46,1.17h.16l.14-.08Zm23-1.28c1.08,1.25,1.05,3.24,1.05,5.6v2.29h0L31.54,22V19c-.11-.42,0-.86-.14-1.35a14.36,14.36,0,0,0-.65-2.5A.3.3,0,0,1,31,15c.22.75.59,1.55.77,2.36v1.36a11.19,11.19,0,0,1,.05,2.89l.33.17a18.68,18.68,0,0,0-.42-5.63c-.18-.49-.17-1-.52-1.29l.21-.18Zm-4.46.3a2.38,2.38,0,0,0,.23,1.31l.28.07.07-.12V16c-.38-.15-.43-.44-.42-1Zm.42,0a.89.89,0,0,0-.07.64l.11.06c.13,0,.14,0,.19-.06L27.5,15ZM4,15l.26.23a12.78,12.78,0,0,0-.91,5.26v1.65h0l.25-.16c0-2.25-.11-5.43.91-6.61l.19.07c-.3.73-.39,1.67-.65,2.45l-.06,2v2.59l-1,.52V17.66a9.28,9.28,0,0,1,1-2.59Zm5.53.16-.25.26c0,1.35-.29,1.73,1.19,1.73A1.47,1.47,0,0,0,11,17c.18-.46.4-1.59,0-1.87a4.32,4.32,0,0,0-1.52.05Zm14.93,0-.4.17a3.29,3.29,0,0,0,.07,1.84,3.91,3.91,0,0,0,1.8,0,2.37,2.37,0,0,0-.17-2Zm5.56.1a.51.51,0,0,1,.44.16l.51,2.34a14.63,14.63,0,0,1,.19,1.75,7,7,0,0,1,0,2.15.53.53,0,0,1-.7.27.54.54,0,0,1-.3-.36V20.14c-.28-1-.14-2.26-.44-3.15-.11-.36-.43-1.07-.21-1.38l.14-.1h0l.33,1.12.49,2.7c.12.66-.22,1.77.14,2.18h.1a12.62,12.62,0,0,0-.33-4.58A6.2,6.2,0,0,1,30,15.35Zm-9.7.19h-.14a.92.92,0,0,0,.57,0Zm1.8,2.75v.54c-.15.19-.44.26-.61.42A2.54,2.54,0,0,1,21,19h-.07c0,.74-.43.82-1.07.77-.12.84,1,1.94,1.26,2.62.18.4-.07.58-.17.84a4.56,4.56,0,0,0,0,1.38l.3.3a2.92,2.92,0,0,1,.38,1.38c-.61.39-2,.28-3,.28.26.62,0,.69-.28,1v.09l.07.05c.54-.11,1-.87,1.73-.46.16.4.4,1.61,0,1.91-.21.14-.63,0-.84,0a.66.66,0,0,1-1,.77c0,.09,0,0-.07.07a.77.77,0,0,1-.63.82.8.8,0,0,1-.7-.82h-.14c-.36.25-.73,0-1-.23a1,1,0,0,1,0-.58,1.44,1.44,0,0,1-.93-.14c-.08-.55-.21-1.61.23-1.92a2.8,2.8,0,0,1,1.61.65h.07a.32.32,0,0,0,0-.3c-.43-.18-.28-.57-.21-1-.86,0-2.11.23-2.73-.14a2.41,2.41,0,0,1,.11-1.38l.33-.35a3.78,3.78,0,0,0,.09-1.42.68.68,0,0,1-.42-.21,1.07,1.07,0,0,1,.38-.84,11.08,11.08,0,0,0,1.09-2l-.09-.46h-.09a.82.82,0,0,1-.52.22c-.24-.15-.46-.26-.56-.55s0-.2-.11-.3a.73.73,0,0,1-.45.16,2.27,2.27,0,0,1-.58-.39c-.13-.15,0-.37,0-.54h-.21a.68.68,0,0,1-.54,0c-.53-.25-.22-1.53-.07-1.93.8-.19,1.13.3,1.8.54H14V16.6c-.59-.16-.33-1,.19-1.12H12v7.26a15.58,15.58,0,0,0,.23,4.09A5.57,5.57,0,0,0,16.81,31a5.7,5.7,0,0,0,3.78-1c3-1.88,2.64-4.69,2.64-9.48V15.54h0c-.58.14-1.48-.16-2,.07a.33.33,0,0,1,.3.21c.19.59-.25.63-.35,1h0c.65,0,.87-.57,1.59-.56.1.11.25.2.3.35a2.66,2.66,0,0,1-.12,1.6,1.41,1.41,0,0,1-.86.08Zm-7.54-2.73c.36.19.55.07.91,0h-.91Zm1.05,0c.64.46.71.66.12,1.24v.09h0c.25-.1,1.41-1,1.7-.42.25,0,.3-.32.68-.23s.83.56,1.38.63l.07-.23h0c-.42-.13-.39-.52-.26-.91l.3-.16Zm-10.16.12L5,17.21A12.66,12.66,0,0,0,4.58,20a4.26,4.26,0,0,0,.09,1.88l.14-.09c.14-.57-.09-1.23,0-1.92.24-1.41.59-2.86.86-4.08.15,0,.2.14.28.26l-.4,1.47-.32,2.22V22c-.14.48-.71.41-1,.14A19.69,19.69,0,0,1,5,15.79a.83.83,0,0,1,.46-.11Zm14.41.09H19.7l-.19.24c0,.23,0,.28.19.35h.09c0-.11,0-.3.1-.28s0,0,.11,0l.08.07c0,.17,0,.18.09.25h0l.09-.05V16c-.16-.09-.17-.2-.46-.25Zm.87,0c-.15.18-.28.2-.28.54h.23v-.24h.17a.49.49,0,0,0,.11.35h.19a.44.44,0,0,0,.16-.37l-.14-.17a3.11,3.11,0,0,0-.43,0Zm8.24,0H29c.58.81,1,4.2.79,5.72-1.9.46-.89-2.5-1.28-3.88a5.72,5.72,0,0,1-.33-1.54h.12c.41.2.61,2,.74,2.73l-.11,2,.21.34h.21a10,10,0,0,0-.24-3.57,5.55,5.55,0,0,1-.32-1.56Zm-14.57,0c-.22.12-.39.17-.31.53a.45.45,0,0,0,.24.14l.07-.07V16h.19l.11.28h.05a.27.27,0,0,0,.12-.09.94.94,0,0,0-.12-.42,1,1,0,0,0-.34.1Zm.91,0a1.16,1.16,0,0,0-.28.26v.26h.07l.11.07.08-.31c.11,0,.1,0,.16.08a.52.52,0,0,0,.09.29h.12a.46.46,0,0,0,.23-.34l-.16-.24ZM10,15.8c.24,0,.44,0,.52.16v.14c-.2.11-.61.2-.75,0V16Zm-3.73.09c.21,0,.23.06.3.19A11.29,11.29,0,0,0,6,19.63c0,.44-.14,1.26.12,1.49h0c.35-.14.34-1,.24-1.47s.25-3.3.65-3.43H7.1c.22.37-.22.73-.19,1.1l-.23,1.54c-.27.94.4,2.08-.31,2.64a1,1,0,0,1-.65.28l-.23-.14c0-1.6.09-4.43.82-5.52Zm18.54,0c.25,0,.47,0,.56.16v.14c-.21.12-.65.21-.8,0v0ZM20,18.53v.11a1.9,1.9,0,0,0-.7.14c-.05.14-.12.15-.14.33h.07c.17-.12.18-.28.44-.32l.26.18c.14-.1.16-.15.35-.16h0a3.24,3.24,0,0,1-.36.38v.11c.14.12.26.26.4.38h.12c.15-.15.31-.25.35-.52a.64.64,0,0,1-.33-.32h0l.3.14.05-.07v-.14l-.17-.19v-.06c.66-.06.51,0,1,.3l.07-.07c-.17-.43-.44-.44-.91-.56l-.16-.37a.44.44,0,0,0,.33-.19c.5.15,1.26.64,1.91.42a3.88,3.88,0,0,0-.09-1.59h0c-.82,0-1.06.7-1.77.86l-.09-.11a.41.41,0,0,0,.11-.35c-.24-.17-.25-.44-.65-.47-.35.16-.61.43-.47.82-.09,0-.1,0-.14.13-.73-.15-1-.85-1.8-.86l-.09.07c0,.34-.12,1.44.07,1.64.35-.09,1.56-.27,1.73-.59.24,0,.17.21.51.22v.09a.51.51,0,0,0-.33.61ZM7.83,16.47a.25.25,0,0,1,.26.19c-.2.56-.77,3-.28,3.73H8c.28-.65,0-2.26.42-2.75V20c0,.29.08.71-.14.79s-.84.72-1,.28c-.22-.21,0-.88,0-1.21,0-1.17,0-2.84.5-3.39Zm7.08,0a1.16,1.16,0,0,0-.52.63l.07.09a5.57,5.57,0,0,1,1,0,.69.69,0,0,0-.58-.72Zm2.17.07a6.12,6.12,0,0,1-.91.49c-.24.14-.42.35-.63.49-.14-.62-1-.14-1.33,0a4,4,0,0,0-1.61-1l-.17.07v1.62a3.2,3.2,0,0,0,1.82-.58,1.1,1.1,0,0,0,1.31,0,3,3,0,0,0,1.82.53h0a2.7,2.7,0,0,0-.14-1.59Zm9.9.14c-.17.52.09,1.59.56,1.31v-.24l-.33-.25-.12-.82Zm.42,0-.19.31a.55.55,0,0,0,.28.46l.15-.14-.15-.54c-.06-.07,0-.05-.12-.09Zm-15.92.4a1,1,0,0,1-.54.44v.07c.38.14.41.43.57.77a6.82,6.82,0,0,0-.06-1.28Zm-2.41.09V18a.55.55,0,0,1,.75-.22l.09.06a1,1,0,0,0,.4-.25A2.05,2.05,0,0,1,9,17.21Zm17.21,0-.09.28-.05-.1a.3.3,0,0,1-.21.2h0l.39.21a1.46,1.46,0,0,0-.07-.55Zm-2.48.12v.46l.29-.18a1.83,1.83,0,0,1-.32-.28Zm-13.24.54c-.65.49-.25,1.41-.61,1.7H9.88l-.06-.81.09-.54h0L9.55,18l-.09.07-.3.63a1.71,1.71,0,0,0,.61,1.68c.63.15.78-.52.91-.94.06-.21-.1-.5,0-.72h.12v.83l-.23.66h.51c.19-.78.56-2.38-.57-2.38Zm13.43,0v1h.4c-.06.21-.27.33-.4.49v1.1l.54-.68c.21.08.33.29.59.35,1,.22,1-.6,1-1.4v-.82Zm-2.92,0-.16.07V18h0a.94.94,0,0,1,1,.7H22c-.31-.42-.34-.79-1-.85Zm-1.29,0c-.63.24-1,.1-1.07.91h.14c.2-.68.56-.47,1-.89h0Zm-5,0c-.2.14-.48.28-.37.65h0l.28-.11.7.07,0-.19c-.2-.15-.18-.32-.68-.31Zm.63,0,.09.24c.66,0,.64.33.87.65h.07V18.6l-.14-.37a1,1,0,0,0-.91-.27Zm-1.47.08c-.3.32-.6.31-.66.86h0c.19-.13.19-.43.37-.56s.47-.06.61-.28h0Zm3.69.2c-.31.26-.59.15-1,.12a1,1,0,0,1,0,.63.41.41,0,0,0-.35.21v.1h.17l2.45-.08v0c-.21,0-.25-.16-.4-.25l.05-.51a1.41,1.41,0,0,1-.94-.16Zm2,.26.05-.21a.7.7,0,0,0-.77.52H19a.58.58,0,0,1,.64-.18Zm-4.16-.16,0,.19a.72.72,0,0,1,.63.37h0a.84.84,0,0,0-.28-.51Zm11.45,0c0,.59,0,1.34.51,1.38v-.35c-.41-.1-.44-.5-.42-1Zm.42,0a.83.83,0,0,0-.07.56.36.36,0,0,0,.21.19c.06,0,.05,0,.09-.1a1.22,1.22,0,0,0-.12-.65Zm-13.27,0c-.15.15-.42.21-.55.45h.06a.65.65,0,0,1,.59-.3v-.17Zm6.85.21v.22h0c.29-.08.35.18.53.3h0l.05-.09c-.16-.07-.21-.25-.55-.26Zm-6.12,0c-.21.09-.39.08-.49.28l.09.11c.51-.33.64.06.91,0v-.14l-.07-.09a1.05,1.05,0,0,0-.43,0Zm.7,0v.16a.48.48,0,0,1,.45.3h.14V19a1.07,1.07,0,0,0-.58-.34Zm-1.45,0c-.13.16-.31.2-.37.45h0l.09-.07c0-.21.28-.19.4-.35Zm11,.12h.23c.11.09.12.17,0,.23H25l-.12-.16h0Zm-10.33.16a.6.6,0,0,1-.35.35l.05.07a.55.55,0,0,0,.49.38l.31-.38v-.11c-.2-.07-.27-.12-.33-.31Zm.8.19V19h0v-.09Zm2.78.3v.21h-.08v-.16h-.61v.14h-.07l-.07-.19h-.42v.12a.86.86,0,0,0-.67-.07.45.45,0,0,1-.05.34l-.09-.39h-.61v.09l.23.68-.7,1.24A7.55,7.55,0,0,0,17,21.17c.27-.2.27-.69.61-.83l-1.1,1.84c-.12.26-.14.56-.23.77H14.74l-.07,1.84h-.3l-.31,1.35h2.43v-.56h.45v.56h.13v-.56h.45v.56h.14v-.56h.44v.56h.12v-.56h.44v.56h2.9l-.47-1.33h-.28l-.14-1.6H19l-.24-.79-1-1.77.63,1h1.91c-.16-.27-.88-1.22-.79-1.58l.21-.57H19v.12h-.09V19.5Zm7.86.44c-.14.16-.36.25-.51.4h0a1,1,0,0,1,.56.29v-.71Zm.66.07a1.83,1.83,0,0,0,.35,1.38h.23l.05-.14c-.06-.25-.27-.22-.37-.4a1.88,1.88,0,0,1-.07-.82Zm-15.43,0a.52.52,0,0,1-.31.44c-.44.14-.66-.12-1.1.12v.07a3,3,0,0,1,1.33,0l0,.24h0Zm15.9,0a.63.63,0,0,0-.07.65l.25.1a1.89,1.89,0,0,0,0-.75Zm-9.72,0h.12v.46h-.1Zm1.36,0,.07.07H19v.27Zm-2.06,0,.09.05h0Zm1.29,0h.09l-.07.06h0v-.06Zm-1.94.05h0ZM9,19.8v.51a.47.47,0,0,0,.38-.23c-.11.32-.17.13-.32.13Zm15.46,0-.14.16h.4V19.9Zm-.61.47c0,1.13-.14,1.82.78,2.1a1.4,1.4,0,0,0,.81,0l.49-.33L26,20.29ZM11.2,22.65a11.24,11.24,0,0,1,0-2.17h-.54V22H10.4a2.8,2.8,0,0,0,0-1.08h-.35V22H9.77a6,6,0,0,1,0-1.2H9.18c.19.61-.13,1.54,0,2.15Zm-3-1.58h.17v11.4H8.19a11.46,11.46,0,0,1-.1-2.68v-6.1a8.24,8.24,0,0,1,.13-2.27Zm-.37,0c.15.18,0,.68,0,1V32.28a17.32,17.32,0,0,0,0,3.22v0c.6-.9.47-2.41.86-3.64.1-.32,0-.93.1-1.29V28.63l.42,1.45a3.5,3.5,0,0,1-.11,1.33L9,32.53c-.26.91-.36,2-.63,2.85a4.71,4.71,0,0,1-1.07,2.29v-16Zm17,.1c.21,0,.38,0,.47.14v.14a.91.91,0,0,1-.61,0l-.12-.11v-.07Zm-18,0h.26v15.3c0,.31.13.92,0,1.12a.2.2,0,0,1-.21,0Zm9.06.07h-.79c-.15.56-.81.85-.91,1.44l2-.07a2.79,2.79,0,0,1,.63-1.37h-.93Zm11.21,0H27v.12c0,.28-.06.91.3,1.07h.18c.1-.37-.14-.24-.28-.51a1.36,1.36,0,0,1-.06-.29Zm.3,0a.69.69,0,0,0-.18.47l.25.3h.12a2.32,2.32,0,0,0-.07-.69ZM21,22.66a2.5,2.5,0,0,0-.63-1.28H18.49A3.14,3.14,0,0,1,19,22.62Zm7.73-1.16a1,1,0,0,1,.42,0v4.21a3.81,3.81,0,0,1-.07,1.54h-.45V21.53Zm-23,.35c.22,0,.48,0,.57.09a4.15,4.15,0,0,1,0,1.07V36.67a6.84,6.84,0,0,1,0,1.28.84.84,0,0,1-.66,0V23.5a3.3,3.3,0,0,1,.16-1.29Zm23.8,0c.17,0,.18,0,.21.09a7,7,0,0,1,.05.93V34.71a19.24,19.24,0,0,1-.05,3.22s-.07.11-.1.07,0,0-.13,0a24.71,24.71,0,0,1-.05-3.75V23.68a5.6,5.6,0,0,1,.14-1.47ZM26.18,22c-.19.62-.76.43-1.21.77A2.36,2.36,0,0,1,26.2,23Zm-2.52,0v.91c.28-.2.7-.14,1.1-.23h0a1.15,1.15,0,0,1-1-.27Zm6.75,0,.11.07V37.54c-.11,0-.15.07-.21,0h-.1V23.62c0-.34-.11-.89.05-1.13l.22-.07ZM5,22.13a.53.53,0,0,1,.25,0V37c0,.29.12.86,0,1A.2.2,0,0,1,5,38Zm26.1.22a.68.68,0,0,1,.4.06l.12,11.8v2.73a4.27,4.27,0,0,1-.05.88,1.82,1.82,0,0,1-.14.19.55.55,0,0,1-.3-.09,18.75,18.75,0,0,1,0-3.67V27c-.05-1.08-.3-3.51,0-4.22Zm-27.15.09a1.17,1.17,0,0,1,.49.11V36.74A3.3,3.3,0,0,1,4.35,38L4,38l-.28-.16V23Zm7.45.18v.14c-.15,0-.68.11-1,.17h0l.35.17c.14-.07.28-.2.4-.17a.27.27,0,0,1,.26.28h0a.52.52,0,0,0,.06-.16Zm20.64,0,.18.07v13.8c0,.29.12.82,0,1s0,0-.06.07,0,0-.07,0a3,3,0,0,1-.07-.91V23.15Zm-23,0a4.18,4.18,0,0,0,0,1H9c0-.5.37-.47.63-.73h0a1.23,1.23,0,0,1-.59.21ZM27,23.21c0,.41,0,1.17.44,1.38.07,0,0,0,.07-.05s.08-.15.07-.3c-.45-.17-.38-.55-.42-1Zm.46,0-.11.07c-.05.24-.09.52.11.63h.19V23.6a1.34,1.34,0,0,1-.07-.4Zm-24.35,0H3.2l.07.07V36.81A3.3,3.3,0,0,1,3.2,38h0L3,37.93V27.65c-.08-1.15-.3-3.6,0-4.44ZM24.8,25.4h.46v-1h.26v1.07h.59l-.16-2H24v2.11h.63c0-.26-.09-1,.05-1.09s.08,0,.16,0Zm-13.52.47v-1h-.23c0-.17.22-.29.23-.42v-.84h-.1l-.35.44h-.06c-.15-.62-1.1-.54-1.34-.09a6.44,6.44,0,0,0-.07,1.91ZM10,24.71h.18l.1.09v.09l-.12.08H9.9l-.09-.08C9.81,24.76,9.83,24.78,10,24.71Zm17,.07a2.39,2.39,0,0,0,.21,1.29l.3.09h0l.05-.26c-.41-.22-.45-.48-.42-1.08Zm.44,0a.58.58,0,0,0-.16.5,1.64,1.64,0,0,1,.21.25c.1,0,.07,0,.11-.07.12-.22-.07-.41,0-.58s0,0-.07-.07Zm-10.93.29h.45v.6h-.45Zm.58,0h.45v.6H17Zm.59,0h.44v.6h-.44Zm.56,0h.44v.6h-.44Zm8.08.35v.14a1.11,1.11,0,0,1-.67.16l-.38-.09-.74.16h0a3.65,3.65,0,0,1,1.7.23l.12.33a2.33,2.33,0,0,0-.05-.91Zm-2.52.14-.07.49c.2-.11.25-.21.56-.21h0c-.17-.14-.37-.15-.51-.26Zm-14.62.3A2.11,2.11,0,0,0,9.27,27c.11-.49,1-.68,1.47-.84h0a2.08,2.08,0,0,1-1.63-.28Zm14.55.28Zm-.23,2.52,2,.19.18-.87h-.58v-.21l.93-1v-.54l-2,0-.14.86h.09c.12,0,.52,0,.58.19a1.91,1.91,0,0,0-1.05,1.42Zm4-2.36-.21.21a1.3,1.3,0,0,0,.16.54h.21l-.07-.72Zm-16.18,0a2.57,2.57,0,0,1-.82.23h0a3.19,3.19,0,0,0,.41,1.24h0a.31.31,0,0,1,0,.23c-.13,0-.35.1-.46,0s0-.08,0-.19c.21-.38-.16-.83-.07-1.23-1.28,0-.71,2.08,0,2.45a1.14,1.14,0,0,0,1.47-.66,1.11,1.11,0,0,0,0-.65c-.07-.32-.26-.34-.42-.54h0a.65.65,0,0,0,.26-.26l-.19-.63ZM27,26.3c0,.55,0,1.2.39,1.35h.12l.07-.3c-.36-.24-.43-.44-.42-1.07Zm-9.84.37-.32.23.05.4.2.07a.53.53,0,0,1,.17-.35c.09-.05,0,0,.09,0h0l.12.4a1.88,1.88,0,0,0-.4.44l.12.31-.22.16h0c-.2-.26-1.5-1-1.78-.82a3.87,3.87,0,0,0,0,1.59,5.42,5.42,0,0,0,1.76-.52l.53.17a1.22,1.22,0,0,0,.77-.17c.19-.06,1.4.61,1.92.45A3.65,3.65,0,0,0,20,27.42a4.37,4.37,0,0,0-1.73.88h-.07l-.09-.11c0-.11.16-.2.09-.35l-.3-.43.09-.34h.1l0,.28c.22.08.29,0,.42-.12h0V27c-.09-.13-.42-.34-.63-.17s-.17.27-.26.45a2.39,2.39,0,0,1-.28-.49Zm9.07.16a1.37,1.37,0,0,1-.61.75h0a.37.37,0,0,0,.24.23A1.4,1.4,0,0,1,25.56,29a4.43,4.43,0,0,1-2.36-.26c-.33-.55.37-1.25.52-1.54-.13-.13-.15-.18-.24-.28a5.45,5.45,0,0,1-5.79,4.48,5.48,5.48,0,0,1-1.28,0,8.24,8.24,0,0,1-3-1.47,1.73,1.73,0,0,1,.21.53,4,4,0,0,1,1.33.77c.28.2.71.15,1,.35a.65.65,0,0,1,.21.49l-.21.4H16l.44-.23h.21c.15-.09.17-.48.37-.51h0a1.94,1.94,0,0,1,1.12,0,3.81,3.81,0,0,1,0,2.62c-1.47.23-2.48.1-2.43-1.5h-.09c-.08.24-.38,1-.65,1.09a1.12,1.12,0,0,1-.63,0V34l.79.3,1.56.26h1c.53-.11,1-.06,1.47-.17a17.06,17.06,0,0,0,2-.6L21,33.51V32c-.15-.38-.5-.54-.43-1.1a3.66,3.66,0,0,0,1.06-.67c.4.09.39.4.67.65s1.16.4,1.59.68a.53.53,0,0,1,0,.35c1.12-.63,2.36-3.58,2.38-5Zm-10.82.82,1,.52v.06c-.35,0-1-.29-1-.53Zm4.37.07h.09c-.25.08-.63.45-.86.35V28Zm8.85.12c.35.25,1.1,1.18.47,1.66a1.87,1.87,0,0,1-.87.25c.37.39,1.1.89.33,1.45a5.5,5.5,0,0,0-.75-1.54H28a.32.32,0,0,1-.3,0l-.14-.21a.69.69,0,0,0,.63-.09l.07-.28c-.18-.25-.29-.47-.65-.53a.65.65,0,0,1,.12-.36h0c.25.17,1.08.81.86,1.17-.08.19-.29.18-.42.33,1.19-.37.08-1.23-.37-1.57V28h.73Zm-16.51.37a5.35,5.35,0,0,1-.24.67,5.32,5.32,0,0,1,.8.12l-.19-.19A1.29,1.29,0,0,0,12.08,28.21Zm4.69.16v.12l-.63.23v-.09l.39-.14H15.32V28.4h1.47Zm9.61,0c.79,0,1.48,0,1.73.58a.28.28,0,0,1,0,.28c-1,.24-1.24-.3-1.72-.85Zm-8,0h1.38v.1h-1l.17.09v.07c-.15,0-.47,0-.53-.21Zm-.91.45a2.06,2.06,0,0,0-.44.49l.07.16h0a1.11,1.11,0,0,1,.91,0c.09-.07.1-.13.1-.28a.58.58,0,0,0-.62-.32Zm.59,0c.1.2.56.3.74.53v.07h-.07c-.19-.09-.28-.23-.51-.3v.28a.73.73,0,0,1,.63.35l.09-.09c.1.06.14.12.26,0-.25-.45-.35-.8-1.12-.79Zm-1.4.07c-.35.24-.72.33-.73.91h.17c.2-.74.61-.45,1-.87h0Zm-6.94.19v.16s.31.64.24.7l.49.84h.09v-.09c-.39-.28.16-1,.28-1.19h0a1.58,1.58,0,0,1-1.08-.37Zm2.29,0c-.39.25-1,.54-1.19,1s.92,1.69,1.42,1.57c.33-.08,1.21-.77,1.08-1.29-.09-.34-.35-.5-.52-.74a1,1,0,0,0-.77-.47Zm14.41.07c.29.07.68,0,.84.23s0,.21,0,.33l.14-.21.09.07c0,.55-.49,1.32-1,1.14h0l.07-.14c-.15,0-.17.06-.25,0s-.72-.68-.43-1,.36-.23.56-.36Zm-9.7.07c-.2.2-.47.13-.51.51h0l.26-.26a2.58,2.58,0,0,0,.42-.12v-.18Zm.28.65a1.47,1.47,0,0,0,.54-.16h0a1.41,1.41,0,0,1-.45.39v.14l.37.35c.29,0,.57-.31.47-.53-.18,0-.24-.15-.3-.31h0c.18,0,.26.12.4.07L18,29.66c-.26-.46-.73-.11-1.07,0-.06-.09-.08-.11-.24-.11l-.39.37V30s0,0,.11,0c.06-.29.27-.3.51-.3Zm1.17-.35v.21c.34-.05.3.07.51.28l.12-.11a.65.65,0,0,0-.61-.31Zm9.34.28a1.82,1.82,0,0,1,.91,1.52h0a1.24,1.24,0,0,0-1.24-.7l.07-.07c.07-.23.27-.29.28-.68Zm-.3,0-.42.63h0c.16,0,.52-.4.44-.53Zm-15,.23h.14c0,.34-.36.74-.7.66.06-.27.3-.4.59-.56Zm9.74,2c.41,0,.51.28.88.35a1.55,1.55,0,0,1,.77-.56v-.12a5.69,5.69,0,0,1-1.55-.53l-.45-.68h-.09a2,2,0,0,1-.79.59v.09c.65.48.48,1.36.46,2.45.24-.15.87-.56.94-.77S22,32.44,22,32.07Zm3.5-1.36c.56.15,1,.07,1.43.45.08.08.36.42.11.53a.38.38,0,0,1-.28.14h0c.33,0,.47-.08.47-.4L26.92,31c.09-.17.16-.19.3-.08s.38.6.17.87-1.12.42-1.26,0h.11a.61.61,0,0,0,.42,0,1.71,1.71,0,0,1-1.18-1.07Zm2.17,0a1.32,1.32,0,0,1,.65.56h0c-.17.14-.36,0-.54,0h0l.12.11c.26.55.38.59,0,1.1-.18,0-1,.54-1.19.31a1.15,1.15,0,0,1-.28-.66h.42a.92.92,0,0,0,.82-.28c.05-.48-.21-.71-.35-1a.38.38,0,0,0,.38-.09Zm-14,0-.1.07.42.75a.92.92,0,0,0-.91.93,1,1,0,0,0,.07.35,2.83,2.83,0,0,0,1.66.89s1-1.78,1.1-1.94c-.28-.08-.73-.45-.91-.39l-.1.23h-.09c-.1-.07-.1-.24-.16-.37-.36,0-.65-.33-.91-.45Zm-3,.05h-.06a7,7,0,0,0,2.94,2.73v-.07c-.24,0-.3-.2-.39-.3a1.33,1.33,0,0,1,.27-1.85l.11-.07L13.37,31h0c-.59.92-1.31,1.07-2.1.28-.15-.15-.39-.3-.42-.56h-.12c0,.08,0,.11,0,.07Zm18.43.7V38a5.7,5.7,0,0,1-1.77-3.27c-.2-.63-.16-1.64.32-1.89a2.37,2.37,0,0,0,0,.84l.09,1.07a13.1,13.1,0,0,0,.86,2h.05V32Zm-11,.42H17a.76.76,0,0,1,0,.47,1,1,0,0,0-1,.47c0,1.4.85,1.48,2,1.28A11.88,11.88,0,0,1,18.08,32Zm7.14,0a4.66,4.66,0,0,1,1,.56c.14.53-.49.36-.77.49,0-.17-.18-.13-.28-.18v-.26l-.25-.17v-.11c.14-.17.26-.19.33-.26Zm-10.9.49h.14a.57.57,0,0,1-.26.47H14a.67.67,0,0,1,.31-.35Zm8.78,0c-.16.24-.5.11-.75,0a3,3,0,0,1,0,.6h.09l.75-.56Zm1.68.23H25l.16.44c.23,0,.55-.18.72,0a.28.28,0,0,1,.12.12c0,.4-1.36.56-1.47-.28a.94.94,0,0,1,.26-.14Zm3.36.14h.21v2.2h-.19ZM17,32.86H17a.72.72,0,0,1,0,.61h-.07a.23.23,0,0,1-.07-.07A.64.64,0,0,1,17,33Zm-4.9.09c-.15,1,.11,1.44.79,1.75,0-.25.36-.59.52-.86l0-.07-.23-.11c.06.1.1,0,0,.13l-.45.8a1,1,0,0,1-.34-.28l.51-.82h0a2.7,2.7,0,0,1-.7-.4Zm.09.26.31.12-.35.49a1.86,1.86,0,0,1,.09-.47Zm12.31,0a.75.75,0,0,1,.16.54v.07c.15,0,.21,0,.28-.1H25a.77.77,0,0,1,.63-.06h0v.16c-.08.19-.47.49-.74.4a.89.89,0,0,1-.42-1Zm-2.27.26-.23.16,1.1,1.78h0c0-.22.07-.27,0-.45h.11c-.12-.54-.79-.85-.93-1.49Zm-8.57,0h0Zm-.68,0v.07H13Zm.85.07c.13.11.46.24.53.19h0Zm7.79.3a11.14,11.14,0,0,1,1.17,2.81,2.91,2.91,0,0,1-1.26.55l-1-3h-.16c.07.6,1.74,3.26.33,3.27v.07c.21.45.3,1.32.81,1.54.19-.17,1,0,1.24-.11.43-.13,1.41-.84,1.49-1.33a.61.61,0,0,0,.42,0v-.11c-.25-.12-.23-.7-.44-.85a2.6,2.6,0,0,0-1-.13c-.18-.14-.19-.37-.3-.54-.34-.57-.67-1.06-1-1.68-.05.07-.1-.12-.27-.26Zm-.32,0L20.9,34a13.63,13.63,0,0,0,.86,2.39c.11.1.24,0,.39,0a11.74,11.74,0,0,0-.87-2.29Zm-6.66.37h0Zm5.32.1-.91.25a9.9,9.9,0,0,1,.49,2.22h.19l-.53-2.17h0l.47-.09a5.58,5.58,0,0,0,.77,2.55.36.36,0,0,0,.23-.08h0A12.29,12.29,0,0,0,20,34.4Zm-4.62.09h.09v-.07Zm.16,0Zm.54.09c0,.66-.41,1.22-.4,1.82l.38-.09.32-1.69a.64.64,0,0,1-.27.27Zm2.73,0-.28.07a15.27,15.27,0,0,0,.14,1.66l.47.21a7.37,7.37,0,0,0-.3-1.61Zm-2.31,0h.32a3.92,3.92,0,0,0-.18,1.36h.16l.14-1.41Zm.84.11L17.2,36h.33V35h.28v1.29H18V34.91H16.88Zm-5.41,0c.85,0,1,.43,1.38.84h0a.53.53,0,0,1,.71-.25.52.52,0,0,1,.21.18c-.66,0-.83.5-.89,1h0c-.07-1.16-1.13-2-2.19-1.18-.34.27-.24.94-.44,1.23h-.19c0-.22-.16-.85-.37-.88s-.27,0-.35-.12,0-.19.14-.26l.72.07.58-.42Zm11.86,0c-1.05.91.25,1.32.65,1.85.19.24.16.65.45.81H25a1.72,1.72,0,0,0-.17-.7l0-.86c-.16,0-.37-.68-1.1-.67Zm-.12.21.14.23L23.6,35v.12h0Zm.46,0A.24.24,0,0,1,24,35l-.12-.14Zm-.09.12V35H24Zm0,.28c.08,0,.09.11.12.21a.27.27,0,0,1-.21-.12H24Zm-.42,0a.5.5,0,0,1,.09.24h0l-.21-.07v-.07h.14c.07,0,0,.5,0,.42Zm.72.14.26.07h-.12Zm-10.67,1h-.23c.11-.47,0-.77.44-.94a.45.45,0,0,1,.47.1.72.72,0,0,0-.56.16,2.93,2.93,0,0,0-.06,1.18Zm10.74-.86h0Zm-.07,0h0Zm-.32.14a.14.14,0,0,1,.06.19h0l-.05.38h-.1Zm3.27.65c-.43.34-.3.27-.52.75a2.24,2.24,0,0,0,.63-.28v-.43Zm-16.09,1v-.14l-.16.1h0ZM26,37.22l-1.24.32a5.83,5.83,0,0,1-.7.49,6.36,6.36,0,0,1-1,.94l-1.31.18,1.35.35,1.57.24c.52.11.72.44,1.26.18a3.46,3.46,0,0,0,1.45-1.17c.54-.25-.57-1-1.32-1Zm-.31.35c.06.09,0,.1,0,.16v-.16Zm-14.8,0-.54.23a1.75,1.75,0,0,0-.42,2c.12.29.49.59.49.77.3,0,1,.52,1.4.68a4.07,4.07,0,0,0,2.41-.31c.76-.15,1,.41,1.75-.11v-.1c-.34-.4-1-.42-1.45-.74a4.56,4.56,0,0,1-1-1.1c-.11-.19-.19-.49-.38-.61a6.37,6.37,0,0,0-1.37-.65c-.08.07-.07.08,0,.18-.25,0-.28-.19-.45-.25Zm14.73.09c.05.06,0,0,0,.07Zm-.07.07a.64.64,0,0,0,.33.07v.12h-.37Zm1,0L27,38H27l-.39.18c0-.09,0,0,0-.11l.26-.12-.24-.07Zm3.57.16c-.59.46-1.77.13-2.31.49v.12l.19.18c1.49,0,1.67.63,2.43,1.1a2.15,2.15,0,0,0,1.74.1,1,1,0,0,0,.15-1.31,16.33,16.33,0,0,1-2.16-.06ZM9.61,38a12.47,12.47,0,0,0-.73,1.35,1.67,1.67,0,0,1,.63,0c0,.21.2-.38.14-.68ZM30.79,38a.72.72,0,0,1,.18.33h0v-.14h0l-.12.18h0Zm2.56.09c-.23.17-.48.31-.46.65h0l.56-.07.22-.45a.34.34,0,0,0-.15-.14Zm-28.06,0a.5.5,0,0,0,.21.49h.09v-.39H5.51a.36.36,0,0,0-.26.44.44.44,0,0,0,.08.15Zm19.19.05.28.33h0a.82.82,0,0,1-.44,0v-.06h.26l-.17-.19h0Zm-13.38.12v.09H11Zm14.57,0,.07.07-.14.16h-.09ZM11,38.36a.55.55,0,0,1,.21.19h-.35l.1-.12Zm20.71.14a.53.53,0,0,1,.35,0l-.14.14c0,.66-.13.65-.17.57Zm-19.36.07h.08l-.12.21h.23v.08h-.31Zm-6.09.07c-.36.35-.71,0-1,.68-.12.38.25.73.42.86,1,.77,2.18.07,3-.21.23-.09.62,0,.74-.21a.26.26,0,0,0,0-.21h0c-.33-.07-.85,0-1.16,0s-.44-.35-.7-.52a2.68,2.68,0,0,0-1.26.35Zm4.11,0h.09c0,.12.06.31-.07.25h0Zm21.51,0h0l-.07.07h0ZM13,38.64v.19l.15-.12h0l-.07.09-.21.12a.65.65,0,0,1,.17.48Zm13.47,0c.06.07.08.08.07.16h-.07c0,.62,0,.68,0,.6Zm-15.88,0h.05l-.14.1Zm20.41,0h.42v.07h-.23c.08.14.17.14,0,.25a.79.79,0,0,0-.15.51Zm-18.8,0h.07c0,.87,0,.9,0,.85Zm-5.9,0,.23.23c-.17,0-.25.09-.35,0l.21-.1h0l-.09-.05h0Zm20.26,0,.14.14h-.37v.83c.17,0,.21,0,.27-.07Zm3.88.09h.16l-.14.19h0Zm-28.09,0a.66.66,0,0,0-.12.3.5.5,0,0,0,.47-.09h0a.33.33,0,0,1-.19-.18Zm.89,0L3,38.94c0,.94,1.37.73,2.08.58v-.14c-.91.77-.83.25-1.76.23Zm-.07.12.23.11,0,0H3.26v.11h0a.31.31,0,1,1,0,.61Zm.42,0,.09.07H3.63Zm2.14,0c0,.1,0,.09-.11.16h0l.21.08h0L5.53,39l.11-.14Zm-2,.09.12.09H3.59Zm21.2,0,.19.24a.27.27,0,0,1,.09-.21h.1l-.19.39h-.05c-.05.72-.14.68-.14.48Zm-13.07,0,.07.21c.08,0,.09-.08.18-.07l-.07.09a.38.38,0,0,0-.21.14Zm20,.06.35.17h0l-.32.16v.88c.1,0,.11,0,.14-.14h-.21ZM7.2,39h0l-.07.14h.24v.06h-.3Zm-3.1.09v0Zm6.86,0h.1v.16c0,.06,0-.06.15-.09a.3.3,0,0,1-.17.12l-.09.11h0Zm-7.49,0,.07.07-.14.07h.11l-.24-.09Zm.63,0c.09.06.06.07.09.16H4c.07,1,.08,1,.08.88Zm8.85,0a.15.15,0,0,1,0,.18Zm18.19,0h.26v1.12h0c-.15-.07-.17,0-.23,0s.1.08.14.07c-.12.07-.15-.09-.26-.17h0c.07,0,0,.1.08,0Zm-27.29,0a.24.24,0,0,1,0,.28h0l-.17-.11v-.07l.14.09v-.07s0,1,0,1Zm2.45,0c.13,0,.18,0,.23.09s0,.08.07.14l-.37.07c0-.11.12-.1.21-.16a.5.5,0,0,1,.43.56.5.5,0,0,1-.56.42ZM4,40.21H4Zm6.22,0h.06v.18h.12c0,.06,0,0-.12.07h0Zm2.82,0h0s0,.07,0,0Zm-2.61,0h.06c0,.13-.09.16,0,.1Zm2.54,0h0s0,.15,0,.12Zm15.29,0c-.32.4-.82,0-1.24.06v0a.33.33,0,0,1,0,.14c.42,0,1.83,1.41,2.2.4.17-.38-.43-.53-.94-.5ZM5.82,40.3c.06.07.06.05,0,.14h0Zm22.76.05h0l-.11.07v.07h0l-.14-.14a.46.46,0,0,0,.32.17Zm-22.82,0v.09H6v.09H5.65Zm8,0v0Zm0,.07v.07c.14,0,.17,0,.21.07h-.32Zm-2,0v.07h0Zm-2.2,0c-.21.22-.54.14-.84.24a8.6,8.6,0,0,1-1.38.63.61.61,0,0,0-.37-.1,2.72,2.72,0,0,0-.73.78c.22,0,.45.24.77.16l.07-.33c-.07,0,0,0-.07-.07a1.1,1.1,0,0,0,.87-.51,2.85,2.85,0,0,0,.72,0c.66.12.78.24,1.33,0,.19-.09.35-.09.47-.23-.24-.08-.26-.32-.44-.43H9.61v-.12Zm2.94,0c.08,0,.1.13.17.19a.23.23,0,0,1,.06-.16h0l-.13.19v-.07a.35.35,0,0,1-.13.11ZM7,40.42h.07l-.1.31-.11-.1-.09-.18H6.9l.07.16H7Zm4.67,0v.16h0Zm17.23.07.14.21a.33.33,0,0,1-.23-.07H29c0,.19,0,.21,0,.15Zm-.72,0a.22.22,0,0,1,0,.16c.12,0,.09,0,.14.07h-.26v-.07Zm.42.16a.48.48,0,0,1,.07.26l-.24-.09v-.1l.14.07Zm-17.72,0c.08,0,.07,0,.11.12a.35.35,0,0,1-.14.24Zm.2,0h.07v.09h0Zm-.12.09.12.07h0Zm2.27.14h.07v.3l-.06-.07h-.07v0a2.28,2.28,0,1,0,0,.23ZM12.08,41h.07l-.05.17h.07l.14-.1v.07l-.23.17h0Zm1.05,0,0,.07Zm-2.75.11-.73.42a.89.89,0,0,1-.72-.16,1.89,1.89,0,0,0-1.57.47.64.64,0,0,0,0,.84c1.12.23,1.48.14,2.14-.51l.33-.4c.23-.17.61-.17.66-.59Zm-5.33,0h0c-.49.32-.1.83.17,1a8.6,8.6,0,0,0,1.68.07v-.09h0c-.4-.08-.59-.18-.73-.42h0a2.76,2.76,0,0,0-.56-.45Zm5.75,0c-.15.49-.53.51-.8.84h0a2.72,2.72,0,0,0,.66-.33,2.1,2.1,0,0,1,1.56.16h0l-.07-.14c-.58.41-1,.08-1.4,0ZM5,41.27a.4.4,0,0,1,.19.07H5.12Zm.21,0h0Zm.31,0,.23.14h-.1Zm8.87,0-.33.09h0a4.69,4.69,0,0,0,1.45-.07h0Zm-9.27,0v.09c-.08.55-.06.6,0,.51Zm3.34.17.12.32a.54.54,0,0,0-.33.07v-.09Zm-3.2,0v.1h.08v.1l-.28,0Zm2.38,0H8c0,.1,0,.07-.1.12l-.14,0,.12.19h0a.38.38,0,0,1-.19.38Zm4.79.07-.07.09h.72a1.83,1.83,0,0,1-.7.56Zm-6.77,0a.32.32,0,0,1,.09.28.7.7,0,0,1-.26-.19l.19.07Zm2.75.75a.4.4,0,0,1-.35-.21h.07l.19.07h0L8.25,42h.07a1,1,0,0,1,0,1ZM7.69,42h.09l-.07.17h.21v.1H7.61v.54Zm-1.45.17L6,42.31H7v-.12ZM.87,43.34h.8v1.91h.16a12.45,12.45,0,0,0,0-1.93h.79c0,.86.23,2.1-.49,2.31C.52,46.75.8,45.21.82,44Zm4.2,0h.77v.87H5.05Zm8.15,0H14v.87h-.77Zm2.08,0h.77v2.31H15.3c0-.08,0-.07-.05-.11-1,.88-1.26-1.14-.81-1.73a1.48,1.48,0,0,1,.86.07Zm4.07,0h.77v2.31h-.77v-.11a.84.84,0,0,1-1,0,3,3,0,0,1,.11-1.7,1,1,0,0,1,.82.07h.05Zm1.79,0h.66l.39,1h0v-1h.7v2.31a2.06,2.06,0,0,1-.7,0l-.35-1h0v1h-.7Zm6.1,0H28v.87h-.76Zm7.17,0h.77v2.31h-.74ZM17.28,45.65v-.19c-.09.32-.62.22-.84.07a1.56,1.56,0,0,1-.05-.68c.22-.23.66-.27.93-.44,0-.19,0-.29-.09-.37h-.12v.42h-.72A.93.93,0,0,1,18,44a2.91,2.91,0,0,1,.07,1.68Zm6.94,0v-.19c-.11.15-.5.37-.7.14-.27,0-.28-.45-.21-.75s.66-.28.93-.44l0-.37H24v.39h-.73a.92.92,0,0,1,1-.87.91.91,0,0,1,.51.19c.31.21.41,1.32.23,1.85Zm9.9,0h-.77a.15.15,0,0,0,0-.16c-.07.35-.65.19-.84.07a1.78,1.78,0,0,1,0-.65,2.57,2.57,0,0,1,.93-.44v-.4h-.19v.39H32.5a1,1,0,0,1,1.57-.61,15.14,15.14,0,0,1,0,2.44Zm-29.35,0H4V44.07H3.81a12.32,12.32,0,0,0-.05,1.61H3V43.79h.78V44a.72.72,0,0,1,1,0Zm4.86-.94h-1v.63h0l.19-.07v-.42h.73c0,1-1.47,1.08-1.75.37v-.58l0-.61c.19-.46,1.36-.47,1.63-.07a1.32,1.32,0,0,1,.1,1.39Zm1,.94H9.91V44.37h.77v.24l.07,0a.49.49,0,0,1,.4-.21V45h0a.57.57,0,0,0-.42.1ZM13,45h-.77v-.25c-.16,0-.19,0-.26.09l.05.23a1.84,1.84,0,0,1,1,.57c0,1-1.34,1-1.72.41l-.05-.37H12c0,.23,0,.47.28.35h.09v-.28a1.9,1.9,0,0,1-1.07-.61l.05-.41C11.7,44.36,13,44,13,45Zm13.17.1v-.4H26A3.45,3.45,0,0,0,26.1,46h.07v-.07a.75.75,0,0,0,0-.42h.7a.91.91,0,0,1-1.47.67c-.33-.23-.27-1.11-.17-1.56.36-.28,1.34-.48,1.59.07a.55.55,0,0,1,0,.4h0Zm2.73-.73c.53,0,1.2.07,1.15.51-.08.69.14,1.2-.4,1.4a1.16,1.16,0,0,1-1.33-.3v-.72a1.15,1.15,0,0,1,.11-.66,1.52,1.52,0,0,1,.48-.23Zm2.25.33v1.61h-.75V44.37h.77v.16l.18-.11c.16-.18.58,0,.7,0a3.32,3.32,0,0,1,.1,1.82h-.77a3.42,3.42,0,0,0,0-1.56ZM5,44.37h.77v1.9H5Zm2,0h.71l-.38,1.92a3.69,3.69,0,0,1-1,0L6,44.39h.7l.21,1.43Zm6.12,0H14v1.92H13.2Zm14,0H28v1.92h-.74Zm-18.4.68v-.37H8.57V45h0ZM15,44.68A2.85,2.85,0,0,0,15,46a.31.31,0,0,0,.19,0,3.34,3.34,0,0,0,0-1.26Zm4.06,0A2.85,2.85,0,0,0,19,46h.17l0-.07a4.62,4.62,0,0,0,0-1.23Zm10.11,0H29A3.93,3.93,0,0,0,29,46h.17Zm-5.09.7a.45.45,0,0,0-.18.42V46H24a1.13,1.13,0,0,0,.08-.6Zm-6.93,0c-.17.13-.19.3-.14.58h.18a1.06,1.06,0,0,0,0-.56Zm16.06,0-.16.17.05.41h.16Zm-5.55,2h.09a1.11,1.11,0,0,1-1,.38l.17-.19.19-.17Zm-20.06,0h.68c-.37.11-.46.33-1,.33Zm-5.93.1H2.79l.5,2.31H2.45v-.42h-.3v.42H1.31Zm18,0h.78v2.31h-.78v-.14a.71.71,0,0,1-1,0,3.21,3.21,0,0,1,.14-1.68,1.67,1.67,0,0,1,.86.07Zm3.81,0h1l.21,1h0l.21-1h1v2.29h-.73a5.1,5.1,0,0,0,0-1.56L25,49.86h-.44l-.31-1.52h0v1.52h-.7Zm6.61,0h.77v.28H30Zm-23.72.16V48h.23v.28H6.31v1.19h.26v.3c-.81,0-1.06,0-1.06-.77v-.75H5.35v-.28h.19v-.3Zm11.3,2.15h-.77a.22.22,0,0,0-.05-.17c-.13.39-.63.15-.84.08a1,1,0,0,1,.07-.82,2.19,2.19,0,0,0,.75-.28.68.68,0,0,0,0-.4h-.1v.4H16a1,1,0,0,1,1.54-.66c.33.36.19,1.37.17,1.92ZM7.35,47.85a1,1,0,0,1,.56,2c-.93.28-1.44-.46-1.19-1.47.11-.28.36-.28.66-.46Zm3.23,1.94H9.8a7,7,0,0,0,0-1.59H9.63a5.1,5.1,0,0,0,0,1.56H8.86V48h.77v.16h0c1.24-.67,1,.71,1,1.73Zm.86-1.94c.5,0,1,.06,1.12.4a1.33,1.33,0,0,1-.37,1.52.93.93,0,0,1-1.28-.29.91.91,0,0,1-.1-.79,1.15,1.15,0,0,1,.07-.51c.07-.14.38-.15.59-.26Zm3.2,1.94H14a7,7,0,0,0,0-1.59c-.32,0-.22,1.2-.21,1.59H13V48h.77c0,.1,0,.11,0,.16.18-.34.75-.21.93,0l.12-.07a.71.71,0,0,1,.91,0c0,.43,0,1.25.05,1.73H15a7,7,0,0,0,0-1.59h-.12l-.07.07Zm7-.77h.74c.07,1.39-2.46,1-1.72-.79.28-.68,2.09-.48,1.7.65h-1v.59h.18ZM27,48.88v.58h0l.19-.08V49h.75a1,1,0,0,1-1.71.49,1.84,1.84,0,0,1-.07-.7v-.56c.26-.7,2.12-.52,1.73.63Zm5.77-.28H32v-.4h-.1A2.68,2.68,0,0,0,32,49.49h.12V49h.7c0,1-1.08.92-1.59.56-.14-.45-.22-1.38.17-1.61.57-.29,1.45,0,1.43.7Zm.89-.75a1,1,0,0,1,.56,2h0c-.94.28-1.44-.46-1.19-1.47.14-.28.39-.28.69-.46Zm-5.54,0h.66l.18.68.14-.68h.66c-.36,1-.27.86,0,1.89h-.66L29,49.21c0,.6-.16.72-.8.68l.33-1Zm-24.68,0h.77v1.59h.23V48h.77v1.89H4.42v-.14c-.13.09-.39.27-.59.21a.86.86,0,0,1-.39-.26Zm26.57,0h.8v1.89H30ZM2.12,48.94H2.4v-.1l-.12-.94h0Zm5.39-.81a3.44,3.44,0,0,0,0,1.28h.18V48.2Zm4.08,1.31h.19V48.18h-.14l-.07.07Zm7.87-1.23a3.21,3.21,0,0,0,0,1.31h.16v-.07a2.26,2.26,0,0,0,0-1.21h0Zm2.21.4v-.4h-.14v.07c0,.13,0,.25.07.3Zm5.42-.4a.9.9,0,0,0,0,.4h.21v-.32h-.07Zm6.79,0a2.84,2.84,0,0,0,0,1.23l0,.08h.14V48.26Zm-17,.72-.16.19v.42l.17,0a1.32,1.32,0,0,0-.05-.52Z"/></g></g></svg>