<svg xmlns="http://www.w3.org/2000/svg" viewBox="0 0 32.83 50.23"><defs><style>.cls-1{fill:#d7af00;}.cls-2{fill:#fff;}.cls-3{fill:#dadada;}.cls-4{fill:#c6c6c6;}.cls-5{fill:#ae8f00;}.cls-6{fill:#e3e3e3;}</style></defs><g id="Capa_2" data-name="Capa 2"><g id="Layer_1" data-name="Layer 1"><path class="cls-1" d="M3.14,39.34v.74h-3v-4H3.06v.74H1.14v.84H3v.74H1.14v1Z"/><path class="cls-1" d="M6.85,36.32v.79a3.36,3.36,0,0,0-1.27-.36.8.8,0,0,0-.43.09.26.26,0,0,0-.16.24.27.27,0,0,0,.12.22,1.64,1.64,0,0,0,.55.26,5.78,5.78,0,0,1,.72.31,1.36,1.36,0,0,1,.46.4,1,1,0,0,1,.19.64,1.09,1.09,0,0,1-.42.89,1.8,1.8,0,0,1-1.12.33A2.94,2.94,0,0,1,4,39.74v-.87a3.16,3.16,0,0,0,.72.4,1.82,1.82,0,0,0,.65.12c.4,0,.59-.12.59-.37a.37.37,0,0,0-.12-.24,1.93,1.93,0,0,0-.56-.27,4.87,4.87,0,0,1-.71-.3,1.33,1.33,0,0,1-.46-.39A1,1,0,0,1,4,37.16a1,1,0,0,1,.42-.83A1.74,1.74,0,0,1,5.49,36,3.55,3.55,0,0,1,6.85,36.32Z"/><path class="cls-1" d="M11.53,36.06v.74H10.07v3.28h-1V36.8H7.62v-.74Z"/><path class="cls-1" d="M15.34,36.06h1v2.28a1.69,1.69,0,0,1-.52,1.33,2.62,2.62,0,0,1-3,0,1.68,1.68,0,0,1-.53-1.32V36.06h1v2.31a.88.88,0,0,0,.27.67,1,1,0,0,0,.72.26A1,1,0,0,0,15,39a1,1,0,0,0,.28-.74Z"/><path class="cls-1" d="M17.42,36.06h1.77a2.3,2.3,0,0,1,1.62.56,1.92,1.92,0,0,1,.6,1.46,1.84,1.84,0,0,1-.6,1.46,2.52,2.52,0,0,1-1.73.54H17.42Zm1,.74v2.54h.66a1.31,1.31,0,0,0,1-.35,1.44,1.44,0,0,0,0-1.85,1.31,1.31,0,0,0-1-.34Z"/><path class="cls-1" d="M23.4,36.06v4h-1v-4Z"/><path class="cls-1" d="M26.68,36a2.28,2.28,0,0,1,1.66.62,1.93,1.93,0,0,1,.15,2.74l-.15.15a2.56,2.56,0,0,1-3.31,0A2,2,0,0,1,25,36.69l.06-.06A2.3,2.3,0,0,1,26.68,36Zm0,3.29A1.3,1.3,0,0,0,27.6,39a1.24,1.24,0,0,0,.35-.89,1.16,1.16,0,0,0-.35-.88,1.41,1.41,0,0,0-1.84,0,1.16,1.16,0,0,0-.35.88,1.24,1.24,0,0,0,.35.89A1.3,1.3,0,0,0,26.68,39.3Z"/><path class="cls-1" d="M32.65,36.32v.79a3.31,3.31,0,0,0-1.27-.36.8.8,0,0,0-.43.09.26.26,0,0,0-.16.24.28.28,0,0,0,.11.22,1.91,1.91,0,0,0,.56.26,5.78,5.78,0,0,1,.72.31,1.36,1.36,0,0,1,.46.4,1,1,0,0,1,.19.64,1.09,1.09,0,0,1-.42.89,1.8,1.8,0,0,1-1.12.33,2.94,2.94,0,0,1-1.45-.39v-.87a3.16,3.16,0,0,0,.72.4,1.82,1.82,0,0,0,.65.12c.4,0,.59-.12.59-.37a.37.37,0,0,0-.12-.24,1.93,1.93,0,0,0-.56-.27,4.87,4.87,0,0,1-.71-.3,1.33,1.33,0,0,1-.46-.39,1,1,0,0,1-.19-.66,1,1,0,0,1,.42-.83A1.74,1.74,0,0,1,31.29,36,3.55,3.55,0,0,1,32.65,36.32Z"/><path class="cls-1" d="M3.91,41.93v.74H2.45v3.26h-1V42.69H0v-.76Z"/><path class="cls-1" d="M7.55,45.23v.7h-3v-4H7.46v.74H5.54v.84H7.38v.73H5.54v1ZM6.94,40.7l-1,.86H5.51l.43-.86Z"/><path class="cls-1" d="M12.11,44.74v.88a3.36,3.36,0,0,1-1.58.39,2.36,2.36,0,0,1-1.7-.59,2,2,0,0,1-.09-2.83l.09-.09a2.54,2.54,0,0,1,1.75-.6,2.71,2.71,0,0,1,1.45.35v.89a2.92,2.92,0,0,0-1.38-.41,1.6,1.6,0,0,0-1.05.35,1.17,1.17,0,0,0-.11,1.64l.11.11a1.53,1.53,0,0,0,1,.35,2.47,2.47,0,0,0,.6-.08A7.17,7.17,0,0,0,12.11,44.74Z"/><path class="cls-1" d="M17,41.93v4h-.85L14,43.36v2.57H13v-4h.92L16,44.38V41.93Z"/><path class="cls-1" d="M19,41.93v4H18v-4Z"/><path class="cls-1" d="M23.75,44.74v.88a3.36,3.36,0,0,1-1.58.39,2.36,2.36,0,0,1-1.7-.59,2,2,0,0,1-.09-2.83l.09-.09a2.54,2.54,0,0,1,1.75-.6,2.71,2.71,0,0,1,1.45.35v.89a2.73,2.73,0,0,0-1.33-.41,1.58,1.58,0,0,0-1,.35,1.12,1.12,0,0,0-.4.87,1.11,1.11,0,0,0,.4.88,1.53,1.53,0,0,0,1,.35,2.33,2.33,0,0,0,.59-.08A6,6,0,0,0,23.75,44.74Z"/><path class="cls-1" d="M26.73,41.93a2.21,2.21,0,0,1,1.66.62,1.93,1.93,0,0,1,.14,2.74.93.93,0,0,1-.14.14,2.57,2.57,0,0,1-3.32,0A2,2,0,0,1,25,42.6l.06-.06A2.27,2.27,0,0,1,26.73,41.93Zm0,3.28a1.26,1.26,0,0,0,.92-.34A1.15,1.15,0,0,0,28,44a1.2,1.2,0,0,0-.35-.88,1.41,1.41,0,0,0-1.84,0,1.2,1.2,0,0,0-.35.88,1.15,1.15,0,0,0,.35.89,1.27,1.27,0,0,0,.92.31Z"/><path class="cls-1" d="M32.54,42.21V43a3.36,3.36,0,0,0-1.28-.36.76.76,0,0,0-.42.09.26.26,0,0,0-.05.46,1.93,1.93,0,0,0,.56.27c.24.09.48.19.71.3a1.48,1.48,0,0,1,.46.4,1,1,0,0,1,.2.64,1,1,0,0,1-.43.89,1.75,1.75,0,0,1-1.11.33,2.93,2.93,0,0,1-1.45-.38v-.87a3.28,3.28,0,0,0,.71.39,1.65,1.65,0,0,0,.66.13c.39,0,.59-.12.59-.37a.33.33,0,0,0-.12-.24A2.12,2.12,0,0,0,31,44.4a6.29,6.29,0,0,1-.71-.3,1.16,1.16,0,0,1-.45-.4,1,1,0,0,1-.19-.65,1,1,0,0,1,.41-.84,1.85,1.85,0,0,1,1.12-.31A3.38,3.38,0,0,1,32.54,42.21Z"/><path class="cls-2" d="M1.75,47.54v.39H.55v.7H1.69V49H.55v.75H1.78v.4H0V47.54Z"/><path class="cls-2" d="M3.06,47.5a1.53,1.53,0,0,1,.75.2v.45a1.51,1.51,0,0,0-.74-.24.53.53,0,0,0-.3.07.23.23,0,0,0-.11.2c0,.1.07.19.21.28l.43.21a1.36,1.36,0,0,1,.48.34.8.8,0,0,1,.14.45.67.67,0,0,1-.25.56,1,1,0,0,1-.63.21,1.61,1.61,0,0,1-.44-.06A2.17,2.17,0,0,1,2.19,50v-.51a1.28,1.28,0,0,0,.8.36.46.46,0,0,0,.3-.09.24.24,0,0,0,.12-.21.35.35,0,0,0-.2-.31L2.78,49a1.43,1.43,0,0,1-.47-.33.7.7,0,0,1-.16-.44.66.66,0,0,1,.25-.54A1,1,0,0,1,3.06,47.5Z"/><path class="cls-2" d="M5.43,47.54a.91.91,0,0,1,.61.21.75.75,0,0,1,.23.56.71.71,0,0,1-.23.55.9.9,0,0,1-.63.22H4.92v1.11H4.41V47.54Zm-.09,1.14a.53.53,0,0,0,.32-.1.32.32,0,0,0,.11-.27c0-.25-.16-.37-.47-.37H5v.74Z"/><path class="cls-2" d="M8.43,47.54v.39H7.23v.7H8.34V49H7.19v.75H8.42v.4H6.68V47.54Z"/><path class="cls-2" d="M10.34,47.5a1.61,1.61,0,0,1,.44.06,2,2,0,0,1,.47.17v.48a1.89,1.89,0,0,0-.46-.2,1.54,1.54,0,0,0-.43-.06,1.26,1.26,0,0,0-.51.11.8.8,0,0,0-.35.33.85.85,0,0,0-.13.47.89.89,0,0,0,.48.81,1,1,0,0,0,.51.11,1.52,1.52,0,0,0,.42-.06,4.46,4.46,0,0,0,.5-.22V50a2,2,0,0,1-.48.19,2.07,2.07,0,0,1-.5.06,1.75,1.75,0,0,1-.75-.17A1.15,1.15,0,0,1,9,49.58a1.31,1.31,0,0,1-.19-.69A1.32,1.32,0,0,1,9,48.17a1.34,1.34,0,0,1,.54-.49A1.71,1.71,0,0,1,10.34,47.5Z"/><path class="cls-2" d="M12.34,47.54v2.65h-.51V47.54Z"/><path class="cls-2" d="M14.34,47.54l1.17,2.65H15l-.28-.64H13.51l-.25.64h-.54l1.09-2.65Zm-.67,1.62h.86l-.46-1Z"/><path class="cls-2" d="M16.34,47.54v2.25h1.29v.4h-1.8V47.54Z"/><path class="cls-2" d="M18.57,47.54v2.65h-.51V47.54Z"/><path class="cls-2" d="M21.39,47.54l-1.55,2.25H21.4v.4H19l1.55-2.26H19.06v-.4Z"/><path class="cls-2" d="M23.17,47.54l1.17,2.65H23.8l-.27-.64H22.34l-.26.64h-.54l1.1-2.65Zm-.67,1.62h.84l-.45-1Z"/><path class="cls-2" d="M25.8,47.54a1.71,1.71,0,0,1,.74.17,1.26,1.26,0,0,1,.5.47,1.41,1.41,0,0,1,0,1.38,1.22,1.22,0,0,1-.51.47,1.68,1.68,0,0,1-.76.16H24.69V47.54Zm-.05,2.25a.91.91,0,0,0,.68-.26,1,1,0,0,0,0-1.34.91.91,0,0,0-.7-.25h-.52v1.85Z"/><path class="cls-2" d="M29.1,47.5a1.71,1.71,0,0,1,.74.17,1.32,1.32,0,0,1,.52.5,1.29,1.29,0,0,1,.2.69,1.32,1.32,0,0,1-.19.7,1.36,1.36,0,0,1-.52.49,1.67,1.67,0,0,1-1.51,0,1.34,1.34,0,0,1-.55-1.81l0-.06a1.32,1.32,0,0,1,.52-.5A1.55,1.55,0,0,1,29.1,47.5Zm-.94,1.36a1,1,0,0,0,.12.48.87.87,0,0,0,.33.33.93.93,0,0,0,.49.11A.88.88,0,0,0,30,49v-.09a1,1,0,0,0-.12-.47.87.87,0,0,0-.33-.33,1.17,1.17,0,0,0-.49-.11,1.13,1.13,0,0,0-.48.11.87.87,0,0,0-.33.33,1,1,0,0,0-.12.47Z"/><path class="cls-2" d="M31.85,47.5a1.49,1.49,0,0,1,.74.2v.45a1.47,1.47,0,0,0-.73-.24.53.53,0,0,0-.3.07.23.23,0,0,0-.11.2c0,.1.07.19.2.28l.44.21a1.21,1.21,0,0,1,.47.34.74.74,0,0,1,.15.45.67.67,0,0,1-.25.56,1,1,0,0,1-.64.21,1.54,1.54,0,0,1-.43-.06A2.17,2.17,0,0,1,31,50v-.51a1.28,1.28,0,0,0,.8.36.53.53,0,0,0,.3-.09.24.24,0,0,0,.12-.21.35.35,0,0,0-.2-.31L31.56,49a1.5,1.5,0,0,1-.46-.33.71.71,0,0,1,.07-1h0A1,1,0,0,1,31.85,47.5Z"/><polygon class="cls-3" points="8.55 2.31 0.33 4.71 2.71 8.89 8.55 7.9 8.55 2.31"/><polygon class="cls-4" points="0.33 29.63 0.33 4.71 2.71 8.89 2.71 25.41 0.33 29.63"/><polygon class="cls-3" points="8.55 31.85 8.55 26.29 2.71 25.41 0.33 29.63 8.55 31.85"/><polygon class="cls-3" points="6.93 19.65 6.93 14.26 2.71 14.77 2.71 19.57 6.93 19.65"/><polygon class="cls-5" points="10.35 1.79 16.46 0 16.46 34 14.23 33.42 14.23 6.95 10.35 7.64 10.35 1.79"/><polygon class="cls-1" points="22.57 1.79 16.46 0 16.46 34 18.71 33.38 18.71 6.99 22.57 7.61 22.57 1.79"/><polygon class="cls-6" points="32.61 4.72 24.35 2.31 27.52 8.45 32.61 9.29 32.61 4.72"/><polygon class="cls-2" points="24.35 31.85 24.35 2.31 27.52 8.45 27.52 25.84 24.35 31.85"/><polygon class="cls-6" points="32.61 25.04 27.52 25.84 24.35 31.85 32.61 29.61 32.61 25.04"/><polygon class="cls-6" points="31.45 19.56 31.45 14.84 27.52 14.44 27.52 19.64 31.45 19.56"/></g></g></svg>